; NON-PLATED HOLES START AT T1
; THROUGH (PLATED) HOLES START AT T100
M48
INCH
T1C0.125984
T2C0.314960
T100C0.035000
T101C0.031497
T102C0.038000
%
T1
X001012Y013862
X014512Y013862
T2
X013512Y001862
T100
X013012Y006362
X013012Y010362
T101
X012512Y012862
X012512Y011878
T102
X008512Y014377
X007512Y014377
X013012Y004863
X010012Y000845
X000922Y006362
X004512Y012862
X010012Y006362
X010512Y014377
X010012Y001848
X010012Y005359
X005512Y012862
X009512Y014377
X006605Y012862
X002512Y012862
X000922Y000845
X003512Y012862
X007605Y012862
X009605Y012862
X008605Y012862
T00
M30
