; NON-PLATED HOLES START AT T1
; THROUGH (PLATED) HOLES START AT T100
M48
INCH
T1C0.165354
T2C0.125984
T100C0.038000
%
T1
X012482Y003469
T2
X000982Y013969
X012982Y013969
T100
X007482Y012484
X010482Y012484
X000893Y000966
X010482Y013984
X009982Y006484
X005389Y012484
X008482Y013984
X009982Y000966
X000893Y006484
X009982Y005480
X009482Y012484
X009982Y001969
X006389Y012484
X007482Y013984
X004389Y012484
X008482Y012484
X003389Y012484
X009482Y013984
T00
M30
