G04 MADE WITH FRITZING*
G04 WWW.FRITZING.ORG*
G04 DOUBLE SIDED*
G04 HOLES PLATED*
G04 CONTOUR ON CENTER OF CONTOUR VECTOR*
%ASAXBY*%
%FSLAX23Y23*%
%MOIN*%
%OFA0B0*%
%SFA1.0B1.0*%
%ADD10C,0.010000*%
%ADD11C,0.020011*%
%ADD12C,0.005768*%
%ADD13C,0.011923*%
%ADD14R,0.001000X0.001000*%
%LNSILK1*%
G90*
G70*
G54D10*
X698Y1348D02*
X1098Y1348D01*
D02*
X1098Y1348D02*
X1098Y1448D01*
D02*
X1098Y1448D02*
X698Y1448D01*
D02*
X698Y1448D02*
X698Y1348D01*
G54D11*
D02*
X1100Y1308D02*
X290Y1308D01*
D02*
X290Y734D02*
X1100Y734D01*
D02*
X1100Y734D02*
X1100Y1308D01*
G54D12*
D02*
X1066Y1308D02*
X1100Y1274D01*
G54D13*
D02*
X25Y698D02*
X25Y40D01*
D02*
X27Y38D02*
X1116Y38D01*
D02*
X1116Y40D02*
X1116Y698D01*
D02*
X1114Y703D02*
X26Y703D01*
G54D14*
X0Y1496D02*
X1376Y1496D01*
X0Y1495D02*
X1376Y1495D01*
X0Y1494D02*
X1376Y1494D01*
X0Y1493D02*
X1376Y1493D01*
X0Y1492D02*
X1376Y1492D01*
X0Y1491D02*
X1376Y1491D01*
X0Y1490D02*
X1376Y1490D01*
X0Y1489D02*
X1376Y1489D01*
X0Y1488D02*
X7Y1488D01*
X1369Y1488D02*
X1376Y1488D01*
X0Y1487D02*
X7Y1487D01*
X1369Y1487D02*
X1376Y1487D01*
X0Y1486D02*
X7Y1486D01*
X1369Y1486D02*
X1376Y1486D01*
X0Y1485D02*
X7Y1485D01*
X1369Y1485D02*
X1376Y1485D01*
X0Y1484D02*
X7Y1484D01*
X1369Y1484D02*
X1376Y1484D01*
X0Y1483D02*
X7Y1483D01*
X1369Y1483D02*
X1376Y1483D01*
X0Y1482D02*
X7Y1482D01*
X1369Y1482D02*
X1376Y1482D01*
X0Y1481D02*
X7Y1481D01*
X1369Y1481D02*
X1376Y1481D01*
X0Y1480D02*
X7Y1480D01*
X1369Y1480D02*
X1376Y1480D01*
X0Y1479D02*
X7Y1479D01*
X1369Y1479D02*
X1376Y1479D01*
X0Y1478D02*
X7Y1478D01*
X1369Y1478D02*
X1376Y1478D01*
X0Y1477D02*
X7Y1477D01*
X1369Y1477D02*
X1376Y1477D01*
X0Y1476D02*
X7Y1476D01*
X1369Y1476D02*
X1376Y1476D01*
X0Y1475D02*
X7Y1475D01*
X1369Y1475D02*
X1376Y1475D01*
X0Y1474D02*
X7Y1474D01*
X1369Y1474D02*
X1376Y1474D01*
X0Y1473D02*
X7Y1473D01*
X1369Y1473D02*
X1376Y1473D01*
X0Y1472D02*
X7Y1472D01*
X1369Y1472D02*
X1376Y1472D01*
X0Y1471D02*
X7Y1471D01*
X1369Y1471D02*
X1376Y1471D01*
X0Y1470D02*
X7Y1470D01*
X1369Y1470D02*
X1376Y1470D01*
X0Y1469D02*
X7Y1469D01*
X1369Y1469D02*
X1376Y1469D01*
X0Y1468D02*
X7Y1468D01*
X1369Y1468D02*
X1376Y1468D01*
X0Y1467D02*
X7Y1467D01*
X1369Y1467D02*
X1376Y1467D01*
X0Y1466D02*
X7Y1466D01*
X1369Y1466D02*
X1376Y1466D01*
X0Y1465D02*
X7Y1465D01*
X1369Y1465D02*
X1376Y1465D01*
X0Y1464D02*
X7Y1464D01*
X1369Y1464D02*
X1376Y1464D01*
X0Y1463D02*
X7Y1463D01*
X1369Y1463D02*
X1376Y1463D01*
X0Y1462D02*
X7Y1462D01*
X1369Y1462D02*
X1376Y1462D01*
X0Y1461D02*
X7Y1461D01*
X1369Y1461D02*
X1376Y1461D01*
X0Y1460D02*
X7Y1460D01*
X1369Y1460D02*
X1376Y1460D01*
X0Y1459D02*
X7Y1459D01*
X1369Y1459D02*
X1376Y1459D01*
X0Y1458D02*
X7Y1458D01*
X1369Y1458D02*
X1376Y1458D01*
X0Y1457D02*
X7Y1457D01*
X1369Y1457D02*
X1376Y1457D01*
X0Y1456D02*
X7Y1456D01*
X1369Y1456D02*
X1376Y1456D01*
X0Y1455D02*
X7Y1455D01*
X1369Y1455D02*
X1376Y1455D01*
X0Y1454D02*
X7Y1454D01*
X1369Y1454D02*
X1376Y1454D01*
X0Y1453D02*
X7Y1453D01*
X1369Y1453D02*
X1376Y1453D01*
X0Y1452D02*
X7Y1452D01*
X1369Y1452D02*
X1376Y1452D01*
X0Y1451D02*
X7Y1451D01*
X1369Y1451D02*
X1376Y1451D01*
X0Y1450D02*
X7Y1450D01*
X1369Y1450D02*
X1376Y1450D01*
X0Y1449D02*
X7Y1449D01*
X1369Y1449D02*
X1376Y1449D01*
X0Y1448D02*
X7Y1448D01*
X1369Y1448D02*
X1376Y1448D01*
X0Y1447D02*
X7Y1447D01*
X1369Y1447D02*
X1376Y1447D01*
X0Y1446D02*
X7Y1446D01*
X1369Y1446D02*
X1376Y1446D01*
X0Y1445D02*
X7Y1445D01*
X1369Y1445D02*
X1376Y1445D01*
X0Y1444D02*
X7Y1444D01*
X1369Y1444D02*
X1376Y1444D01*
X0Y1443D02*
X7Y1443D01*
X1369Y1443D02*
X1376Y1443D01*
X0Y1442D02*
X7Y1442D01*
X1369Y1442D02*
X1376Y1442D01*
X0Y1441D02*
X7Y1441D01*
X1369Y1441D02*
X1376Y1441D01*
X0Y1440D02*
X7Y1440D01*
X1369Y1440D02*
X1376Y1440D01*
X0Y1439D02*
X7Y1439D01*
X1369Y1439D02*
X1376Y1439D01*
X0Y1438D02*
X7Y1438D01*
X1369Y1438D02*
X1376Y1438D01*
X0Y1437D02*
X7Y1437D01*
X1369Y1437D02*
X1376Y1437D01*
X0Y1436D02*
X7Y1436D01*
X1369Y1436D02*
X1376Y1436D01*
X0Y1435D02*
X7Y1435D01*
X1369Y1435D02*
X1376Y1435D01*
X0Y1434D02*
X7Y1434D01*
X1369Y1434D02*
X1376Y1434D01*
X0Y1433D02*
X7Y1433D01*
X1369Y1433D02*
X1376Y1433D01*
X0Y1432D02*
X7Y1432D01*
X1369Y1432D02*
X1376Y1432D01*
X0Y1431D02*
X7Y1431D01*
X1369Y1431D02*
X1376Y1431D01*
X0Y1430D02*
X7Y1430D01*
X1369Y1430D02*
X1376Y1430D01*
X0Y1429D02*
X7Y1429D01*
X1369Y1429D02*
X1376Y1429D01*
X0Y1428D02*
X7Y1428D01*
X1369Y1428D02*
X1376Y1428D01*
X0Y1427D02*
X7Y1427D01*
X1369Y1427D02*
X1376Y1427D01*
X0Y1426D02*
X7Y1426D01*
X1369Y1426D02*
X1376Y1426D01*
X0Y1425D02*
X7Y1425D01*
X1369Y1425D02*
X1376Y1425D01*
X0Y1424D02*
X7Y1424D01*
X1369Y1424D02*
X1376Y1424D01*
X0Y1423D02*
X7Y1423D01*
X1369Y1423D02*
X1376Y1423D01*
X0Y1422D02*
X7Y1422D01*
X1369Y1422D02*
X1376Y1422D01*
X0Y1421D02*
X7Y1421D01*
X1369Y1421D02*
X1376Y1421D01*
X0Y1420D02*
X7Y1420D01*
X225Y1420D02*
X239Y1420D01*
X253Y1420D02*
X264Y1420D01*
X291Y1420D02*
X293Y1420D01*
X330Y1420D02*
X332Y1420D01*
X345Y1420D02*
X359Y1420D01*
X380Y1420D02*
X392Y1420D01*
X403Y1420D02*
X405Y1420D01*
X450Y1420D02*
X452Y1420D01*
X472Y1420D02*
X482Y1420D01*
X492Y1420D02*
X497Y1420D01*
X510Y1420D02*
X512Y1420D01*
X523Y1420D02*
X534Y1420D01*
X569Y1420D02*
X572Y1420D01*
X583Y1420D02*
X585Y1420D01*
X599Y1420D02*
X602Y1420D01*
X620Y1420D02*
X632Y1420D01*
X650Y1420D02*
X662Y1420D01*
X1369Y1420D02*
X1376Y1420D01*
X0Y1419D02*
X7Y1419D01*
X224Y1419D02*
X241Y1419D01*
X253Y1419D02*
X266Y1419D01*
X291Y1419D02*
X294Y1419D01*
X329Y1419D02*
X332Y1419D01*
X344Y1419D02*
X361Y1419D01*
X379Y1419D02*
X392Y1419D01*
X403Y1419D02*
X406Y1419D01*
X449Y1419D02*
X452Y1419D01*
X470Y1419D02*
X482Y1419D01*
X492Y1419D02*
X498Y1419D01*
X509Y1419D02*
X512Y1419D01*
X522Y1419D02*
X536Y1419D01*
X569Y1419D02*
X572Y1419D01*
X582Y1419D02*
X586Y1419D01*
X599Y1419D02*
X602Y1419D01*
X619Y1419D02*
X632Y1419D01*
X649Y1419D02*
X662Y1419D01*
X1369Y1419D02*
X1376Y1419D01*
X0Y1418D02*
X7Y1418D01*
X223Y1418D02*
X241Y1418D01*
X253Y1418D02*
X267Y1418D01*
X291Y1418D02*
X294Y1418D01*
X328Y1418D02*
X332Y1418D01*
X343Y1418D02*
X361Y1418D01*
X378Y1418D02*
X392Y1418D01*
X403Y1418D02*
X406Y1418D01*
X448Y1418D02*
X452Y1418D01*
X470Y1418D02*
X482Y1418D01*
X492Y1418D02*
X498Y1418D01*
X509Y1418D02*
X512Y1418D01*
X523Y1418D02*
X536Y1418D01*
X568Y1418D02*
X572Y1418D01*
X582Y1418D02*
X586Y1418D01*
X599Y1418D02*
X602Y1418D01*
X618Y1418D02*
X632Y1418D01*
X648Y1418D02*
X662Y1418D01*
X1369Y1418D02*
X1376Y1418D01*
X0Y1417D02*
X7Y1417D01*
X223Y1417D02*
X242Y1417D01*
X254Y1417D02*
X267Y1417D01*
X290Y1417D02*
X295Y1417D01*
X328Y1417D02*
X332Y1417D01*
X343Y1417D02*
X362Y1417D01*
X378Y1417D02*
X391Y1417D01*
X403Y1417D02*
X406Y1417D01*
X448Y1417D02*
X452Y1417D01*
X469Y1417D02*
X481Y1417D01*
X492Y1417D02*
X499Y1417D01*
X509Y1417D02*
X512Y1417D01*
X523Y1417D02*
X537Y1417D01*
X568Y1417D02*
X571Y1417D01*
X582Y1417D02*
X586Y1417D01*
X599Y1417D02*
X602Y1417D01*
X617Y1417D02*
X631Y1417D01*
X647Y1417D02*
X661Y1417D01*
X1369Y1417D02*
X1376Y1417D01*
X0Y1416D02*
X7Y1416D01*
X223Y1416D02*
X226Y1416D01*
X239Y1416D02*
X242Y1416D01*
X257Y1416D02*
X260Y1416D01*
X264Y1416D02*
X268Y1416D01*
X290Y1416D02*
X295Y1416D01*
X327Y1416D02*
X331Y1416D01*
X343Y1416D02*
X346Y1416D01*
X359Y1416D02*
X362Y1416D01*
X377Y1416D02*
X381Y1416D01*
X403Y1416D02*
X406Y1416D01*
X447Y1416D02*
X451Y1416D01*
X468Y1416D02*
X473Y1416D01*
X492Y1416D02*
X499Y1416D01*
X509Y1416D02*
X512Y1416D01*
X527Y1416D02*
X530Y1416D01*
X534Y1416D02*
X538Y1416D01*
X567Y1416D02*
X571Y1416D01*
X582Y1416D02*
X586Y1416D01*
X599Y1416D02*
X602Y1416D01*
X617Y1416D02*
X621Y1416D01*
X647Y1416D02*
X651Y1416D01*
X1369Y1416D02*
X1376Y1416D01*
X0Y1415D02*
X7Y1415D01*
X223Y1415D02*
X227Y1415D01*
X239Y1415D02*
X242Y1415D01*
X257Y1415D02*
X260Y1415D01*
X264Y1415D02*
X268Y1415D01*
X290Y1415D02*
X295Y1415D01*
X327Y1415D02*
X330Y1415D01*
X343Y1415D02*
X346Y1415D01*
X359Y1415D02*
X362Y1415D01*
X377Y1415D02*
X380Y1415D01*
X403Y1415D02*
X406Y1415D01*
X446Y1415D02*
X450Y1415D01*
X467Y1415D02*
X472Y1415D01*
X492Y1415D02*
X500Y1415D01*
X509Y1415D02*
X512Y1415D01*
X527Y1415D02*
X530Y1415D01*
X534Y1415D02*
X538Y1415D01*
X566Y1415D02*
X570Y1415D01*
X582Y1415D02*
X586Y1415D01*
X599Y1415D02*
X602Y1415D01*
X616Y1415D02*
X620Y1415D01*
X646Y1415D02*
X650Y1415D01*
X1369Y1415D02*
X1376Y1415D01*
X0Y1414D02*
X7Y1414D01*
X223Y1414D02*
X227Y1414D01*
X240Y1414D02*
X242Y1414D01*
X257Y1414D02*
X260Y1414D01*
X265Y1414D02*
X269Y1414D01*
X289Y1414D02*
X295Y1414D01*
X326Y1414D02*
X330Y1414D01*
X343Y1414D02*
X347Y1414D01*
X359Y1414D02*
X362Y1414D01*
X376Y1414D02*
X380Y1414D01*
X403Y1414D02*
X406Y1414D01*
X446Y1414D02*
X450Y1414D01*
X466Y1414D02*
X471Y1414D01*
X492Y1414D02*
X500Y1414D01*
X509Y1414D02*
X512Y1414D01*
X527Y1414D02*
X530Y1414D01*
X535Y1414D02*
X539Y1414D01*
X566Y1414D02*
X570Y1414D01*
X582Y1414D02*
X586Y1414D01*
X599Y1414D02*
X602Y1414D01*
X616Y1414D02*
X620Y1414D01*
X646Y1414D02*
X650Y1414D01*
X1369Y1414D02*
X1376Y1414D01*
X0Y1413D02*
X7Y1413D01*
X224Y1413D02*
X228Y1413D01*
X257Y1413D02*
X260Y1413D01*
X266Y1413D02*
X269Y1413D01*
X289Y1413D02*
X296Y1413D01*
X325Y1413D02*
X329Y1413D01*
X344Y1413D02*
X348Y1413D01*
X376Y1413D02*
X379Y1413D01*
X403Y1413D02*
X406Y1413D01*
X445Y1413D02*
X449Y1413D01*
X466Y1413D02*
X470Y1413D01*
X492Y1413D02*
X500Y1413D01*
X509Y1413D02*
X512Y1413D01*
X527Y1413D02*
X530Y1413D01*
X535Y1413D02*
X539Y1413D01*
X565Y1413D02*
X569Y1413D01*
X582Y1413D02*
X586Y1413D01*
X599Y1413D02*
X602Y1413D01*
X615Y1413D02*
X619Y1413D01*
X645Y1413D02*
X649Y1413D01*
X1369Y1413D02*
X1376Y1413D01*
X0Y1412D02*
X7Y1412D01*
X224Y1412D02*
X229Y1412D01*
X257Y1412D02*
X260Y1412D01*
X266Y1412D02*
X270Y1412D01*
X289Y1412D02*
X296Y1412D01*
X325Y1412D02*
X329Y1412D01*
X344Y1412D02*
X349Y1412D01*
X375Y1412D02*
X379Y1412D01*
X403Y1412D02*
X406Y1412D01*
X445Y1412D02*
X449Y1412D01*
X465Y1412D02*
X469Y1412D01*
X492Y1412D02*
X501Y1412D01*
X509Y1412D02*
X512Y1412D01*
X527Y1412D02*
X530Y1412D01*
X536Y1412D02*
X540Y1412D01*
X565Y1412D02*
X569Y1412D01*
X582Y1412D02*
X586Y1412D01*
X599Y1412D02*
X602Y1412D01*
X615Y1412D02*
X619Y1412D01*
X645Y1412D02*
X649Y1412D01*
X1369Y1412D02*
X1376Y1412D01*
X0Y1411D02*
X7Y1411D01*
X225Y1411D02*
X230Y1411D01*
X257Y1411D02*
X260Y1411D01*
X267Y1411D02*
X270Y1411D01*
X288Y1411D02*
X296Y1411D01*
X324Y1411D02*
X328Y1411D01*
X345Y1411D02*
X350Y1411D01*
X375Y1411D02*
X378Y1411D01*
X403Y1411D02*
X406Y1411D01*
X444Y1411D02*
X448Y1411D01*
X464Y1411D02*
X469Y1411D01*
X492Y1411D02*
X496Y1411D01*
X498Y1411D02*
X501Y1411D01*
X509Y1411D02*
X512Y1411D01*
X527Y1411D02*
X530Y1411D01*
X536Y1411D02*
X540Y1411D01*
X564Y1411D02*
X568Y1411D01*
X582Y1411D02*
X586Y1411D01*
X599Y1411D02*
X602Y1411D01*
X614Y1411D02*
X618Y1411D01*
X644Y1411D02*
X648Y1411D01*
X1369Y1411D02*
X1376Y1411D01*
X0Y1410D02*
X7Y1410D01*
X226Y1410D02*
X230Y1410D01*
X257Y1410D02*
X260Y1410D01*
X267Y1410D02*
X271Y1410D01*
X288Y1410D02*
X297Y1410D01*
X324Y1410D02*
X328Y1410D01*
X346Y1410D02*
X350Y1410D01*
X374Y1410D02*
X378Y1410D01*
X403Y1410D02*
X406Y1410D01*
X444Y1410D02*
X447Y1410D01*
X464Y1410D02*
X468Y1410D01*
X492Y1410D02*
X496Y1410D01*
X498Y1410D02*
X502Y1410D01*
X509Y1410D02*
X512Y1410D01*
X527Y1410D02*
X530Y1410D01*
X537Y1410D02*
X541Y1410D01*
X563Y1410D02*
X567Y1410D01*
X583Y1410D02*
X586Y1410D01*
X598Y1410D02*
X602Y1410D01*
X614Y1410D02*
X618Y1410D01*
X644Y1410D02*
X648Y1410D01*
X1369Y1410D02*
X1376Y1410D01*
X0Y1409D02*
X7Y1409D01*
X227Y1409D02*
X231Y1409D01*
X257Y1409D02*
X260Y1409D01*
X268Y1409D02*
X271Y1409D01*
X288Y1409D02*
X291Y1409D01*
X294Y1409D02*
X297Y1409D01*
X323Y1409D02*
X327Y1409D01*
X347Y1409D02*
X351Y1409D01*
X374Y1409D02*
X377Y1409D01*
X403Y1409D02*
X406Y1409D01*
X443Y1409D02*
X447Y1409D01*
X463Y1409D02*
X467Y1409D01*
X492Y1409D02*
X496Y1409D01*
X499Y1409D02*
X502Y1409D01*
X509Y1409D02*
X512Y1409D01*
X527Y1409D02*
X530Y1409D01*
X537Y1409D02*
X541Y1409D01*
X563Y1409D02*
X567Y1409D01*
X583Y1409D02*
X587Y1409D01*
X598Y1409D02*
X601Y1409D01*
X613Y1409D02*
X617Y1409D01*
X643Y1409D02*
X647Y1409D01*
X1369Y1409D02*
X1376Y1409D01*
X0Y1408D02*
X7Y1408D01*
X228Y1408D02*
X232Y1408D01*
X257Y1408D02*
X260Y1408D01*
X268Y1408D02*
X272Y1408D01*
X288Y1408D02*
X291Y1408D01*
X294Y1408D02*
X297Y1408D01*
X322Y1408D02*
X326Y1408D01*
X347Y1408D02*
X352Y1408D01*
X373Y1408D02*
X377Y1408D01*
X403Y1408D02*
X406Y1408D01*
X442Y1408D02*
X446Y1408D01*
X463Y1408D02*
X466Y1408D01*
X492Y1408D02*
X496Y1408D01*
X499Y1408D02*
X503Y1408D01*
X509Y1408D02*
X512Y1408D01*
X527Y1408D02*
X530Y1408D01*
X538Y1408D02*
X541Y1408D01*
X562Y1408D02*
X566Y1408D01*
X584Y1408D02*
X587Y1408D01*
X597Y1408D02*
X601Y1408D01*
X613Y1408D02*
X617Y1408D01*
X643Y1408D02*
X647Y1408D01*
X1369Y1408D02*
X1376Y1408D01*
X0Y1407D02*
X7Y1407D01*
X228Y1407D02*
X233Y1407D01*
X257Y1407D02*
X260Y1407D01*
X269Y1407D02*
X272Y1407D01*
X287Y1407D02*
X291Y1407D01*
X294Y1407D02*
X298Y1407D01*
X322Y1407D02*
X326Y1407D01*
X348Y1407D02*
X353Y1407D01*
X373Y1407D02*
X376Y1407D01*
X403Y1407D02*
X406Y1407D01*
X442Y1407D02*
X446Y1407D01*
X463Y1407D02*
X466Y1407D01*
X492Y1407D02*
X496Y1407D01*
X499Y1407D02*
X503Y1407D01*
X509Y1407D02*
X512Y1407D01*
X527Y1407D02*
X530Y1407D01*
X538Y1407D02*
X542Y1407D01*
X562Y1407D02*
X566Y1407D01*
X584Y1407D02*
X588Y1407D01*
X597Y1407D02*
X600Y1407D01*
X613Y1407D02*
X616Y1407D01*
X643Y1407D02*
X646Y1407D01*
X1369Y1407D02*
X1376Y1407D01*
X0Y1406D02*
X7Y1406D01*
X229Y1406D02*
X234Y1406D01*
X257Y1406D02*
X260Y1406D01*
X269Y1406D02*
X272Y1406D01*
X287Y1406D02*
X290Y1406D01*
X294Y1406D02*
X298Y1406D01*
X321Y1406D02*
X325Y1406D01*
X349Y1406D02*
X353Y1406D01*
X373Y1406D02*
X376Y1406D01*
X403Y1406D02*
X406Y1406D01*
X441Y1406D02*
X445Y1406D01*
X462Y1406D02*
X466Y1406D01*
X492Y1406D02*
X496Y1406D01*
X500Y1406D02*
X503Y1406D01*
X509Y1406D02*
X512Y1406D01*
X527Y1406D02*
X530Y1406D01*
X539Y1406D02*
X542Y1406D01*
X561Y1406D02*
X565Y1406D01*
X584Y1406D02*
X588Y1406D01*
X597Y1406D02*
X600Y1406D01*
X613Y1406D02*
X616Y1406D01*
X643Y1406D02*
X646Y1406D01*
X1369Y1406D02*
X1376Y1406D01*
X0Y1405D02*
X7Y1405D01*
X230Y1405D02*
X234Y1405D01*
X257Y1405D02*
X260Y1405D01*
X269Y1405D02*
X272Y1405D01*
X287Y1405D02*
X290Y1405D01*
X295Y1405D02*
X298Y1405D01*
X321Y1405D02*
X325Y1405D01*
X350Y1405D02*
X354Y1405D01*
X373Y1405D02*
X376Y1405D01*
X403Y1405D02*
X406Y1405D01*
X441Y1405D02*
X445Y1405D01*
X462Y1405D02*
X466Y1405D01*
X492Y1405D02*
X496Y1405D01*
X500Y1405D02*
X504Y1405D01*
X509Y1405D02*
X512Y1405D01*
X527Y1405D02*
X530Y1405D01*
X539Y1405D02*
X542Y1405D01*
X561Y1405D02*
X564Y1405D01*
X585Y1405D02*
X588Y1405D01*
X596Y1405D02*
X600Y1405D01*
X612Y1405D02*
X616Y1405D01*
X642Y1405D02*
X646Y1405D01*
X1369Y1405D02*
X1376Y1405D01*
X0Y1404D02*
X7Y1404D01*
X231Y1404D02*
X235Y1404D01*
X257Y1404D02*
X260Y1404D01*
X269Y1404D02*
X272Y1404D01*
X286Y1404D02*
X290Y1404D01*
X295Y1404D02*
X298Y1404D01*
X320Y1404D02*
X324Y1404D01*
X351Y1404D02*
X355Y1404D01*
X373Y1404D02*
X376Y1404D01*
X403Y1404D02*
X406Y1404D01*
X440Y1404D02*
X444Y1404D01*
X462Y1404D02*
X466Y1404D01*
X492Y1404D02*
X496Y1404D01*
X501Y1404D02*
X504Y1404D01*
X509Y1404D02*
X512Y1404D01*
X527Y1404D02*
X530Y1404D01*
X539Y1404D02*
X542Y1404D01*
X560Y1404D02*
X564Y1404D01*
X585Y1404D02*
X589Y1404D01*
X596Y1404D02*
X599Y1404D01*
X612Y1404D02*
X616Y1404D01*
X642Y1404D02*
X646Y1404D01*
X1369Y1404D02*
X1376Y1404D01*
X0Y1403D02*
X7Y1403D01*
X231Y1403D02*
X236Y1403D01*
X257Y1403D02*
X260Y1403D01*
X269Y1403D02*
X272Y1403D01*
X286Y1403D02*
X290Y1403D01*
X295Y1403D02*
X299Y1403D01*
X320Y1403D02*
X323Y1403D01*
X351Y1403D02*
X356Y1403D01*
X373Y1403D02*
X376Y1403D01*
X403Y1403D02*
X406Y1403D01*
X439Y1403D02*
X443Y1403D01*
X462Y1403D02*
X466Y1403D01*
X474Y1403D02*
X482Y1403D01*
X492Y1403D02*
X496Y1403D01*
X501Y1403D02*
X505Y1403D01*
X509Y1403D02*
X512Y1403D01*
X527Y1403D02*
X530Y1403D01*
X539Y1403D02*
X542Y1403D01*
X559Y1403D02*
X563Y1403D01*
X586Y1403D02*
X589Y1403D01*
X595Y1403D02*
X599Y1403D01*
X613Y1403D02*
X616Y1403D01*
X643Y1403D02*
X646Y1403D01*
X1369Y1403D02*
X1376Y1403D01*
X0Y1402D02*
X7Y1402D01*
X232Y1402D02*
X237Y1402D01*
X257Y1402D02*
X260Y1402D01*
X268Y1402D02*
X272Y1402D01*
X286Y1402D02*
X289Y1402D01*
X296Y1402D02*
X299Y1402D01*
X319Y1402D02*
X323Y1402D01*
X352Y1402D02*
X357Y1402D01*
X373Y1402D02*
X376Y1402D01*
X403Y1402D02*
X406Y1402D01*
X439Y1402D02*
X443Y1402D01*
X462Y1402D02*
X466Y1402D01*
X473Y1402D02*
X482Y1402D01*
X492Y1402D02*
X496Y1402D01*
X502Y1402D02*
X505Y1402D01*
X509Y1402D02*
X512Y1402D01*
X527Y1402D02*
X530Y1402D01*
X538Y1402D02*
X542Y1402D01*
X559Y1402D02*
X563Y1402D01*
X586Y1402D02*
X590Y1402D01*
X595Y1402D02*
X599Y1402D01*
X613Y1402D02*
X616Y1402D01*
X643Y1402D02*
X646Y1402D01*
X1369Y1402D02*
X1376Y1402D01*
X0Y1401D02*
X7Y1401D01*
X233Y1401D02*
X237Y1401D01*
X257Y1401D02*
X260Y1401D01*
X268Y1401D02*
X272Y1401D01*
X286Y1401D02*
X289Y1401D01*
X296Y1401D02*
X299Y1401D01*
X318Y1401D02*
X322Y1401D01*
X353Y1401D02*
X357Y1401D01*
X373Y1401D02*
X377Y1401D01*
X403Y1401D02*
X406Y1401D01*
X438Y1401D02*
X442Y1401D01*
X462Y1401D02*
X466Y1401D01*
X473Y1401D02*
X482Y1401D01*
X492Y1401D02*
X496Y1401D01*
X502Y1401D02*
X506Y1401D01*
X509Y1401D02*
X512Y1401D01*
X527Y1401D02*
X530Y1401D01*
X538Y1401D02*
X541Y1401D01*
X558Y1401D02*
X562Y1401D01*
X586Y1401D02*
X590Y1401D01*
X595Y1401D02*
X598Y1401D01*
X613Y1401D02*
X617Y1401D01*
X643Y1401D02*
X647Y1401D01*
X1369Y1401D02*
X1376Y1401D01*
X0Y1400D02*
X7Y1400D01*
X234Y1400D02*
X238Y1400D01*
X257Y1400D02*
X260Y1400D01*
X267Y1400D02*
X271Y1400D01*
X285Y1400D02*
X289Y1400D01*
X296Y1400D02*
X300Y1400D01*
X318Y1400D02*
X322Y1400D01*
X354Y1400D02*
X358Y1400D01*
X374Y1400D02*
X377Y1400D01*
X403Y1400D02*
X406Y1400D01*
X438Y1400D02*
X442Y1400D01*
X462Y1400D02*
X466Y1400D01*
X473Y1400D02*
X482Y1400D01*
X492Y1400D02*
X496Y1400D01*
X502Y1400D02*
X506Y1400D01*
X509Y1400D02*
X512Y1400D01*
X527Y1400D02*
X530Y1400D01*
X537Y1400D02*
X541Y1400D01*
X558Y1400D02*
X562Y1400D01*
X587Y1400D02*
X590Y1400D01*
X594Y1400D02*
X598Y1400D01*
X613Y1400D02*
X617Y1400D01*
X643Y1400D02*
X647Y1400D01*
X1369Y1400D02*
X1376Y1400D01*
X0Y1399D02*
X7Y1399D01*
X235Y1399D02*
X239Y1399D01*
X257Y1399D02*
X260Y1399D01*
X267Y1399D02*
X271Y1399D01*
X285Y1399D02*
X300Y1399D01*
X317Y1399D02*
X321Y1399D01*
X354Y1399D02*
X359Y1399D01*
X374Y1399D02*
X378Y1399D01*
X403Y1399D02*
X406Y1399D01*
X437Y1399D02*
X441Y1399D01*
X462Y1399D02*
X466Y1399D01*
X474Y1399D02*
X482Y1399D01*
X492Y1399D02*
X496Y1399D01*
X503Y1399D02*
X507Y1399D01*
X509Y1399D02*
X512Y1399D01*
X527Y1399D02*
X530Y1399D01*
X537Y1399D02*
X541Y1399D01*
X557Y1399D02*
X561Y1399D01*
X587Y1399D02*
X591Y1399D01*
X594Y1399D02*
X597Y1399D01*
X614Y1399D02*
X618Y1399D01*
X644Y1399D02*
X648Y1399D01*
X1369Y1399D02*
X1376Y1399D01*
X0Y1398D02*
X7Y1398D01*
X235Y1398D02*
X240Y1398D01*
X257Y1398D02*
X260Y1398D01*
X266Y1398D02*
X270Y1398D01*
X285Y1398D02*
X300Y1398D01*
X317Y1398D02*
X321Y1398D01*
X355Y1398D02*
X360Y1398D01*
X375Y1398D02*
X378Y1398D01*
X403Y1398D02*
X406Y1398D01*
X437Y1398D02*
X440Y1398D01*
X462Y1398D02*
X466Y1398D01*
X479Y1398D02*
X482Y1398D01*
X492Y1398D02*
X496Y1398D01*
X503Y1398D02*
X507Y1398D01*
X509Y1398D02*
X512Y1398D01*
X527Y1398D02*
X530Y1398D01*
X536Y1398D02*
X540Y1398D01*
X556Y1398D02*
X560Y1398D01*
X587Y1398D02*
X591Y1398D01*
X593Y1398D02*
X597Y1398D01*
X614Y1398D02*
X618Y1398D01*
X644Y1398D02*
X648Y1398D01*
X1369Y1398D02*
X1376Y1398D01*
X0Y1397D02*
X7Y1397D01*
X236Y1397D02*
X241Y1397D01*
X257Y1397D02*
X260Y1397D01*
X266Y1397D02*
X270Y1397D01*
X284Y1397D02*
X300Y1397D01*
X316Y1397D02*
X320Y1397D01*
X356Y1397D02*
X360Y1397D01*
X375Y1397D02*
X379Y1397D01*
X403Y1397D02*
X406Y1397D01*
X436Y1397D02*
X440Y1397D01*
X462Y1397D02*
X466Y1397D01*
X479Y1397D02*
X482Y1397D01*
X492Y1397D02*
X496Y1397D01*
X504Y1397D02*
X507Y1397D01*
X509Y1397D02*
X512Y1397D01*
X527Y1397D02*
X530Y1397D01*
X536Y1397D02*
X540Y1397D01*
X556Y1397D02*
X560Y1397D01*
X588Y1397D02*
X591Y1397D01*
X593Y1397D02*
X597Y1397D01*
X615Y1397D02*
X619Y1397D01*
X645Y1397D02*
X649Y1397D01*
X1369Y1397D02*
X1376Y1397D01*
X0Y1396D02*
X7Y1396D01*
X237Y1396D02*
X241Y1396D01*
X257Y1396D02*
X260Y1396D01*
X265Y1396D02*
X269Y1396D01*
X284Y1396D02*
X301Y1396D01*
X315Y1396D02*
X319Y1396D01*
X344Y1396D02*
X344Y1396D01*
X357Y1396D02*
X361Y1396D01*
X376Y1396D02*
X379Y1396D01*
X403Y1396D02*
X406Y1396D01*
X435Y1396D02*
X439Y1396D01*
X462Y1396D02*
X466Y1396D01*
X479Y1396D02*
X482Y1396D01*
X492Y1396D02*
X496Y1396D01*
X504Y1396D02*
X512Y1396D01*
X527Y1396D02*
X530Y1396D01*
X535Y1396D02*
X539Y1396D01*
X555Y1396D02*
X559Y1396D01*
X588Y1396D02*
X596Y1396D01*
X615Y1396D02*
X619Y1396D01*
X645Y1396D02*
X649Y1396D01*
X1369Y1396D02*
X1376Y1396D01*
X0Y1395D02*
X7Y1395D01*
X223Y1395D02*
X225Y1395D01*
X238Y1395D02*
X242Y1395D01*
X257Y1395D02*
X260Y1395D01*
X265Y1395D02*
X269Y1395D01*
X284Y1395D02*
X287Y1395D01*
X298Y1395D02*
X301Y1395D01*
X315Y1395D02*
X319Y1395D01*
X343Y1395D02*
X345Y1395D01*
X358Y1395D02*
X362Y1395D01*
X376Y1395D02*
X380Y1395D01*
X403Y1395D02*
X406Y1395D01*
X435Y1395D02*
X439Y1395D01*
X462Y1395D02*
X466Y1395D01*
X479Y1395D02*
X482Y1395D01*
X492Y1395D02*
X496Y1395D01*
X505Y1395D02*
X512Y1395D01*
X527Y1395D02*
X530Y1395D01*
X535Y1395D02*
X539Y1395D01*
X555Y1395D02*
X559Y1395D01*
X589Y1395D02*
X596Y1395D01*
X616Y1395D02*
X620Y1395D01*
X646Y1395D02*
X650Y1395D01*
X1369Y1395D02*
X1376Y1395D01*
X0Y1394D02*
X7Y1394D01*
X223Y1394D02*
X226Y1394D01*
X238Y1394D02*
X242Y1394D01*
X257Y1394D02*
X260Y1394D01*
X264Y1394D02*
X268Y1394D01*
X284Y1394D02*
X287Y1394D01*
X298Y1394D02*
X301Y1394D01*
X314Y1394D02*
X318Y1394D01*
X343Y1394D02*
X346Y1394D01*
X358Y1394D02*
X362Y1394D01*
X377Y1394D02*
X380Y1394D01*
X403Y1394D02*
X406Y1394D01*
X434Y1394D02*
X438Y1394D01*
X463Y1394D02*
X466Y1394D01*
X479Y1394D02*
X482Y1394D01*
X492Y1394D02*
X496Y1394D01*
X505Y1394D02*
X512Y1394D01*
X527Y1394D02*
X530Y1394D01*
X534Y1394D02*
X538Y1394D01*
X554Y1394D02*
X558Y1394D01*
X589Y1394D02*
X595Y1394D01*
X616Y1394D02*
X620Y1394D01*
X646Y1394D02*
X650Y1394D01*
X1369Y1394D02*
X1376Y1394D01*
X0Y1393D02*
X7Y1393D01*
X223Y1393D02*
X226Y1393D01*
X239Y1393D02*
X242Y1393D01*
X257Y1393D02*
X260Y1393D01*
X264Y1393D02*
X268Y1393D01*
X283Y1393D02*
X287Y1393D01*
X298Y1393D02*
X302Y1393D01*
X314Y1393D02*
X318Y1393D01*
X343Y1393D02*
X346Y1393D01*
X359Y1393D02*
X362Y1393D01*
X377Y1393D02*
X381Y1393D01*
X403Y1393D02*
X406Y1393D01*
X434Y1393D02*
X438Y1393D01*
X463Y1393D02*
X467Y1393D01*
X478Y1393D02*
X482Y1393D01*
X492Y1393D02*
X496Y1393D01*
X506Y1393D02*
X512Y1393D01*
X527Y1393D02*
X530Y1393D01*
X533Y1393D02*
X538Y1393D01*
X554Y1393D02*
X557Y1393D01*
X589Y1393D02*
X595Y1393D01*
X617Y1393D02*
X621Y1393D01*
X647Y1393D02*
X651Y1393D01*
X1369Y1393D02*
X1376Y1393D01*
X0Y1392D02*
X7Y1392D01*
X223Y1392D02*
X242Y1392D01*
X253Y1392D02*
X267Y1392D01*
X283Y1392D02*
X286Y1392D01*
X299Y1392D02*
X302Y1392D01*
X313Y1392D02*
X317Y1392D01*
X343Y1392D02*
X362Y1392D01*
X378Y1392D02*
X391Y1392D01*
X403Y1392D02*
X421Y1392D01*
X433Y1392D02*
X437Y1392D01*
X463Y1392D02*
X482Y1392D01*
X492Y1392D02*
X496Y1392D01*
X506Y1392D02*
X512Y1392D01*
X523Y1392D02*
X537Y1392D01*
X553Y1392D02*
X557Y1392D01*
X590Y1392D02*
X595Y1392D01*
X618Y1392D02*
X631Y1392D01*
X647Y1392D02*
X661Y1392D01*
X1369Y1392D02*
X1376Y1392D01*
X0Y1391D02*
X7Y1391D01*
X224Y1391D02*
X242Y1391D01*
X253Y1391D02*
X267Y1391D01*
X283Y1391D02*
X286Y1391D01*
X299Y1391D02*
X302Y1391D01*
X313Y1391D02*
X316Y1391D01*
X343Y1391D02*
X362Y1391D01*
X378Y1391D02*
X392Y1391D01*
X403Y1391D02*
X422Y1391D01*
X433Y1391D02*
X436Y1391D01*
X464Y1391D02*
X481Y1391D01*
X492Y1391D02*
X496Y1391D01*
X506Y1391D02*
X512Y1391D01*
X523Y1391D02*
X536Y1391D01*
X553Y1391D02*
X556Y1391D01*
X590Y1391D02*
X594Y1391D01*
X618Y1391D02*
X632Y1391D01*
X648Y1391D02*
X662Y1391D01*
X1369Y1391D02*
X1376Y1391D01*
X0Y1390D02*
X7Y1390D01*
X224Y1390D02*
X241Y1390D01*
X253Y1390D02*
X266Y1390D01*
X283Y1390D02*
X286Y1390D01*
X299Y1390D02*
X302Y1390D01*
X313Y1390D02*
X316Y1390D01*
X344Y1390D02*
X361Y1390D01*
X379Y1390D02*
X392Y1390D01*
X403Y1390D02*
X422Y1390D01*
X433Y1390D02*
X436Y1390D01*
X465Y1390D02*
X480Y1390D01*
X493Y1390D02*
X496Y1390D01*
X507Y1390D02*
X512Y1390D01*
X523Y1390D02*
X536Y1390D01*
X552Y1390D02*
X556Y1390D01*
X591Y1390D02*
X594Y1390D01*
X619Y1390D02*
X632Y1390D01*
X649Y1390D02*
X662Y1390D01*
X1369Y1390D02*
X1376Y1390D01*
X0Y1389D02*
X7Y1389D01*
X226Y1389D02*
X240Y1389D01*
X253Y1389D02*
X264Y1389D01*
X283Y1389D02*
X285Y1389D01*
X300Y1389D02*
X302Y1389D01*
X313Y1389D02*
X315Y1389D01*
X346Y1389D02*
X360Y1389D01*
X381Y1389D02*
X392Y1389D01*
X403Y1389D02*
X422Y1389D01*
X433Y1389D02*
X435Y1389D01*
X466Y1389D02*
X479Y1389D01*
X493Y1389D02*
X495Y1389D01*
X507Y1389D02*
X512Y1389D01*
X523Y1389D02*
X534Y1389D01*
X553Y1389D02*
X555Y1389D01*
X591Y1389D02*
X593Y1389D01*
X621Y1389D02*
X631Y1389D01*
X650Y1389D02*
X661Y1389D01*
X1369Y1389D02*
X1376Y1389D01*
X0Y1388D02*
X7Y1388D01*
X1369Y1388D02*
X1376Y1388D01*
X0Y1387D02*
X7Y1387D01*
X1369Y1387D02*
X1376Y1387D01*
X0Y1386D02*
X7Y1386D01*
X1369Y1386D02*
X1376Y1386D01*
X0Y1385D02*
X7Y1385D01*
X699Y1385D02*
X699Y1385D01*
X1369Y1385D02*
X1376Y1385D01*
X0Y1384D02*
X7Y1384D01*
X698Y1384D02*
X700Y1384D01*
X1369Y1384D02*
X1376Y1384D01*
X0Y1383D02*
X7Y1383D01*
X697Y1383D02*
X701Y1383D01*
X1369Y1383D02*
X1376Y1383D01*
X0Y1382D02*
X7Y1382D01*
X696Y1382D02*
X702Y1382D01*
X1369Y1382D02*
X1376Y1382D01*
X0Y1381D02*
X7Y1381D01*
X697Y1381D02*
X703Y1381D01*
X1369Y1381D02*
X1376Y1381D01*
X0Y1380D02*
X7Y1380D01*
X698Y1380D02*
X704Y1380D01*
X1369Y1380D02*
X1376Y1380D01*
X0Y1379D02*
X7Y1379D01*
X699Y1379D02*
X705Y1379D01*
X1369Y1379D02*
X1376Y1379D01*
X0Y1378D02*
X7Y1378D01*
X700Y1378D02*
X706Y1378D01*
X1369Y1378D02*
X1376Y1378D01*
X0Y1377D02*
X7Y1377D01*
X701Y1377D02*
X707Y1377D01*
X1369Y1377D02*
X1376Y1377D01*
X0Y1376D02*
X7Y1376D01*
X702Y1376D02*
X708Y1376D01*
X1369Y1376D02*
X1376Y1376D01*
X0Y1375D02*
X7Y1375D01*
X703Y1375D02*
X709Y1375D01*
X1369Y1375D02*
X1376Y1375D01*
X0Y1374D02*
X7Y1374D01*
X704Y1374D02*
X710Y1374D01*
X1369Y1374D02*
X1376Y1374D01*
X0Y1373D02*
X7Y1373D01*
X705Y1373D02*
X711Y1373D01*
X1369Y1373D02*
X1376Y1373D01*
X0Y1372D02*
X7Y1372D01*
X706Y1372D02*
X712Y1372D01*
X1369Y1372D02*
X1376Y1372D01*
X0Y1371D02*
X7Y1371D01*
X707Y1371D02*
X713Y1371D01*
X1369Y1371D02*
X1376Y1371D01*
X0Y1370D02*
X7Y1370D01*
X708Y1370D02*
X714Y1370D01*
X1369Y1370D02*
X1376Y1370D01*
X0Y1369D02*
X7Y1369D01*
X709Y1369D02*
X715Y1369D01*
X1369Y1369D02*
X1376Y1369D01*
X0Y1368D02*
X7Y1368D01*
X710Y1368D02*
X715Y1368D01*
X1369Y1368D02*
X1376Y1368D01*
X0Y1367D02*
X7Y1367D01*
X711Y1367D02*
X716Y1367D01*
X1369Y1367D02*
X1376Y1367D01*
X0Y1366D02*
X7Y1366D01*
X712Y1366D02*
X718Y1366D01*
X1369Y1366D02*
X1376Y1366D01*
X0Y1365D02*
X7Y1365D01*
X713Y1365D02*
X719Y1365D01*
X1369Y1365D02*
X1376Y1365D01*
X0Y1364D02*
X7Y1364D01*
X714Y1364D02*
X720Y1364D01*
X1369Y1364D02*
X1376Y1364D01*
X0Y1363D02*
X7Y1363D01*
X715Y1363D02*
X721Y1363D01*
X1369Y1363D02*
X1376Y1363D01*
X0Y1362D02*
X7Y1362D01*
X716Y1362D02*
X722Y1362D01*
X1369Y1362D02*
X1376Y1362D01*
X0Y1361D02*
X7Y1361D01*
X717Y1361D02*
X723Y1361D01*
X1369Y1361D02*
X1376Y1361D01*
X0Y1360D02*
X7Y1360D01*
X718Y1360D02*
X724Y1360D01*
X1369Y1360D02*
X1376Y1360D01*
X0Y1359D02*
X7Y1359D01*
X719Y1359D02*
X725Y1359D01*
X1369Y1359D02*
X1376Y1359D01*
X0Y1358D02*
X7Y1358D01*
X720Y1358D02*
X726Y1358D01*
X1369Y1358D02*
X1376Y1358D01*
X0Y1357D02*
X7Y1357D01*
X721Y1357D02*
X727Y1357D01*
X1369Y1357D02*
X1376Y1357D01*
X0Y1356D02*
X7Y1356D01*
X722Y1356D02*
X728Y1356D01*
X1369Y1356D02*
X1376Y1356D01*
X0Y1355D02*
X7Y1355D01*
X723Y1355D02*
X729Y1355D01*
X1369Y1355D02*
X1376Y1355D01*
X0Y1354D02*
X7Y1354D01*
X724Y1354D02*
X730Y1354D01*
X1369Y1354D02*
X1376Y1354D01*
X0Y1353D02*
X7Y1353D01*
X725Y1353D02*
X731Y1353D01*
X1369Y1353D02*
X1376Y1353D01*
X0Y1352D02*
X7Y1352D01*
X726Y1352D02*
X732Y1352D01*
X1369Y1352D02*
X1376Y1352D01*
X0Y1351D02*
X7Y1351D01*
X727Y1351D02*
X733Y1351D01*
X1369Y1351D02*
X1376Y1351D01*
X0Y1350D02*
X7Y1350D01*
X728Y1350D02*
X733Y1350D01*
X1369Y1350D02*
X1376Y1350D01*
X0Y1349D02*
X7Y1349D01*
X729Y1349D02*
X732Y1349D01*
X1369Y1349D02*
X1376Y1349D01*
X0Y1348D02*
X7Y1348D01*
X730Y1348D02*
X731Y1348D01*
X1369Y1348D02*
X1376Y1348D01*
X0Y1347D02*
X7Y1347D01*
X1369Y1347D02*
X1376Y1347D01*
X0Y1346D02*
X7Y1346D01*
X1369Y1346D02*
X1376Y1346D01*
X0Y1345D02*
X7Y1345D01*
X1369Y1345D02*
X1376Y1345D01*
X0Y1344D02*
X7Y1344D01*
X1369Y1344D02*
X1376Y1344D01*
X0Y1343D02*
X7Y1343D01*
X1369Y1343D02*
X1376Y1343D01*
X0Y1342D02*
X7Y1342D01*
X1369Y1342D02*
X1376Y1342D01*
X0Y1341D02*
X7Y1341D01*
X1369Y1341D02*
X1376Y1341D01*
X0Y1340D02*
X7Y1340D01*
X1369Y1340D02*
X1376Y1340D01*
X0Y1339D02*
X7Y1339D01*
X1369Y1339D02*
X1376Y1339D01*
X0Y1338D02*
X7Y1338D01*
X1369Y1338D02*
X1376Y1338D01*
X0Y1337D02*
X7Y1337D01*
X1369Y1337D02*
X1376Y1337D01*
X0Y1336D02*
X7Y1336D01*
X1369Y1336D02*
X1376Y1336D01*
X0Y1335D02*
X7Y1335D01*
X1369Y1335D02*
X1376Y1335D01*
X0Y1334D02*
X7Y1334D01*
X1369Y1334D02*
X1376Y1334D01*
X0Y1333D02*
X7Y1333D01*
X1369Y1333D02*
X1376Y1333D01*
X0Y1332D02*
X7Y1332D01*
X1369Y1332D02*
X1376Y1332D01*
X0Y1331D02*
X7Y1331D01*
X1369Y1331D02*
X1376Y1331D01*
X0Y1330D02*
X7Y1330D01*
X1369Y1330D02*
X1376Y1330D01*
X0Y1329D02*
X7Y1329D01*
X1369Y1329D02*
X1376Y1329D01*
X0Y1328D02*
X7Y1328D01*
X1369Y1328D02*
X1376Y1328D01*
X0Y1327D02*
X7Y1327D01*
X1369Y1327D02*
X1376Y1327D01*
X0Y1326D02*
X7Y1326D01*
X1369Y1326D02*
X1376Y1326D01*
X0Y1325D02*
X7Y1325D01*
X1369Y1325D02*
X1376Y1325D01*
X0Y1324D02*
X7Y1324D01*
X1369Y1324D02*
X1376Y1324D01*
X0Y1323D02*
X7Y1323D01*
X1369Y1323D02*
X1376Y1323D01*
X0Y1322D02*
X7Y1322D01*
X1369Y1322D02*
X1376Y1322D01*
X0Y1321D02*
X7Y1321D01*
X1369Y1321D02*
X1376Y1321D01*
X0Y1320D02*
X7Y1320D01*
X1369Y1320D02*
X1376Y1320D01*
X0Y1319D02*
X7Y1319D01*
X1369Y1319D02*
X1376Y1319D01*
X0Y1318D02*
X7Y1318D01*
X1369Y1318D02*
X1376Y1318D01*
X0Y1317D02*
X7Y1317D01*
X1369Y1317D02*
X1376Y1317D01*
X0Y1316D02*
X7Y1316D01*
X1369Y1316D02*
X1376Y1316D01*
X0Y1315D02*
X7Y1315D01*
X1369Y1315D02*
X1376Y1315D01*
X0Y1314D02*
X7Y1314D01*
X1369Y1314D02*
X1376Y1314D01*
X0Y1313D02*
X7Y1313D01*
X1369Y1313D02*
X1376Y1313D01*
X0Y1312D02*
X7Y1312D01*
X1369Y1312D02*
X1376Y1312D01*
X0Y1311D02*
X7Y1311D01*
X1369Y1311D02*
X1376Y1311D01*
X0Y1310D02*
X7Y1310D01*
X1369Y1310D02*
X1376Y1310D01*
X0Y1309D02*
X7Y1309D01*
X1369Y1309D02*
X1376Y1309D01*
X0Y1308D02*
X7Y1308D01*
X283Y1308D02*
X296Y1308D01*
X1369Y1308D02*
X1376Y1308D01*
X0Y1307D02*
X7Y1307D01*
X283Y1307D02*
X296Y1307D01*
X1369Y1307D02*
X1376Y1307D01*
X0Y1306D02*
X7Y1306D01*
X283Y1306D02*
X296Y1306D01*
X1369Y1306D02*
X1376Y1306D01*
X0Y1305D02*
X7Y1305D01*
X283Y1305D02*
X296Y1305D01*
X1369Y1305D02*
X1376Y1305D01*
X0Y1304D02*
X7Y1304D01*
X283Y1304D02*
X296Y1304D01*
X1369Y1304D02*
X1376Y1304D01*
X0Y1303D02*
X7Y1303D01*
X283Y1303D02*
X296Y1303D01*
X1369Y1303D02*
X1376Y1303D01*
X0Y1302D02*
X7Y1302D01*
X283Y1302D02*
X296Y1302D01*
X1369Y1302D02*
X1376Y1302D01*
X0Y1301D02*
X7Y1301D01*
X283Y1301D02*
X296Y1301D01*
X1369Y1301D02*
X1376Y1301D01*
X0Y1300D02*
X7Y1300D01*
X283Y1300D02*
X296Y1300D01*
X1369Y1300D02*
X1376Y1300D01*
X0Y1299D02*
X7Y1299D01*
X283Y1299D02*
X296Y1299D01*
X1369Y1299D02*
X1376Y1299D01*
X0Y1298D02*
X7Y1298D01*
X283Y1298D02*
X296Y1298D01*
X1369Y1298D02*
X1376Y1298D01*
X0Y1297D02*
X7Y1297D01*
X283Y1297D02*
X296Y1297D01*
X1369Y1297D02*
X1376Y1297D01*
X0Y1296D02*
X7Y1296D01*
X283Y1296D02*
X296Y1296D01*
X1369Y1296D02*
X1376Y1296D01*
X0Y1295D02*
X7Y1295D01*
X283Y1295D02*
X296Y1295D01*
X1369Y1295D02*
X1376Y1295D01*
X0Y1294D02*
X7Y1294D01*
X283Y1294D02*
X296Y1294D01*
X1369Y1294D02*
X1376Y1294D01*
X0Y1293D02*
X7Y1293D01*
X283Y1293D02*
X296Y1293D01*
X1369Y1293D02*
X1376Y1293D01*
X0Y1292D02*
X7Y1292D01*
X283Y1292D02*
X296Y1292D01*
X1369Y1292D02*
X1376Y1292D01*
X0Y1291D02*
X7Y1291D01*
X283Y1291D02*
X296Y1291D01*
X1369Y1291D02*
X1376Y1291D01*
X0Y1290D02*
X7Y1290D01*
X283Y1290D02*
X296Y1290D01*
X1369Y1290D02*
X1376Y1290D01*
X0Y1289D02*
X7Y1289D01*
X283Y1289D02*
X296Y1289D01*
X1369Y1289D02*
X1376Y1289D01*
X0Y1288D02*
X7Y1288D01*
X283Y1288D02*
X296Y1288D01*
X1369Y1288D02*
X1376Y1288D01*
X0Y1287D02*
X7Y1287D01*
X283Y1287D02*
X296Y1287D01*
X1369Y1287D02*
X1376Y1287D01*
X0Y1286D02*
X7Y1286D01*
X283Y1286D02*
X296Y1286D01*
X1369Y1286D02*
X1376Y1286D01*
X0Y1285D02*
X7Y1285D01*
X283Y1285D02*
X296Y1285D01*
X1369Y1285D02*
X1376Y1285D01*
X0Y1284D02*
X7Y1284D01*
X283Y1284D02*
X296Y1284D01*
X1369Y1284D02*
X1376Y1284D01*
X0Y1283D02*
X7Y1283D01*
X283Y1283D02*
X296Y1283D01*
X1369Y1283D02*
X1376Y1283D01*
X0Y1282D02*
X7Y1282D01*
X283Y1282D02*
X296Y1282D01*
X1369Y1282D02*
X1376Y1282D01*
X0Y1281D02*
X7Y1281D01*
X283Y1281D02*
X296Y1281D01*
X1369Y1281D02*
X1376Y1281D01*
X0Y1280D02*
X7Y1280D01*
X283Y1280D02*
X296Y1280D01*
X1369Y1280D02*
X1376Y1280D01*
X0Y1279D02*
X7Y1279D01*
X283Y1279D02*
X296Y1279D01*
X1369Y1279D02*
X1376Y1279D01*
X0Y1278D02*
X7Y1278D01*
X283Y1278D02*
X296Y1278D01*
X1369Y1278D02*
X1376Y1278D01*
X0Y1277D02*
X7Y1277D01*
X283Y1277D02*
X296Y1277D01*
X1369Y1277D02*
X1376Y1277D01*
X0Y1276D02*
X7Y1276D01*
X283Y1276D02*
X296Y1276D01*
X1369Y1276D02*
X1376Y1276D01*
X0Y1275D02*
X7Y1275D01*
X283Y1275D02*
X296Y1275D01*
X1369Y1275D02*
X1376Y1275D01*
X0Y1274D02*
X7Y1274D01*
X283Y1274D02*
X296Y1274D01*
X1369Y1274D02*
X1376Y1274D01*
X0Y1273D02*
X7Y1273D01*
X283Y1273D02*
X296Y1273D01*
X1369Y1273D02*
X1376Y1273D01*
X0Y1272D02*
X7Y1272D01*
X283Y1272D02*
X296Y1272D01*
X1369Y1272D02*
X1376Y1272D01*
X0Y1271D02*
X7Y1271D01*
X283Y1271D02*
X296Y1271D01*
X1369Y1271D02*
X1376Y1271D01*
X0Y1270D02*
X7Y1270D01*
X283Y1270D02*
X296Y1270D01*
X1369Y1270D02*
X1376Y1270D01*
X0Y1269D02*
X7Y1269D01*
X283Y1269D02*
X296Y1269D01*
X1369Y1269D02*
X1376Y1269D01*
X0Y1268D02*
X7Y1268D01*
X283Y1268D02*
X296Y1268D01*
X1369Y1268D02*
X1376Y1268D01*
X0Y1267D02*
X7Y1267D01*
X55Y1267D02*
X71Y1267D01*
X94Y1267D02*
X94Y1267D01*
X283Y1267D02*
X296Y1267D01*
X1369Y1267D02*
X1376Y1267D01*
X0Y1266D02*
X7Y1266D01*
X53Y1266D02*
X73Y1266D01*
X92Y1266D02*
X96Y1266D01*
X283Y1266D02*
X296Y1266D01*
X1369Y1266D02*
X1376Y1266D01*
X0Y1265D02*
X7Y1265D01*
X52Y1265D02*
X74Y1265D01*
X91Y1265D02*
X96Y1265D01*
X283Y1265D02*
X296Y1265D01*
X1369Y1265D02*
X1376Y1265D01*
X0Y1264D02*
X7Y1264D01*
X51Y1264D02*
X75Y1264D01*
X91Y1264D02*
X96Y1264D01*
X283Y1264D02*
X296Y1264D01*
X1369Y1264D02*
X1376Y1264D01*
X0Y1263D02*
X7Y1263D01*
X50Y1263D02*
X75Y1263D01*
X91Y1263D02*
X96Y1263D01*
X283Y1263D02*
X296Y1263D01*
X1369Y1263D02*
X1376Y1263D01*
X0Y1262D02*
X7Y1262D01*
X50Y1262D02*
X76Y1262D01*
X91Y1262D02*
X96Y1262D01*
X283Y1262D02*
X296Y1262D01*
X1369Y1262D02*
X1376Y1262D01*
X0Y1261D02*
X7Y1261D01*
X50Y1261D02*
X76Y1261D01*
X91Y1261D02*
X96Y1261D01*
X283Y1261D02*
X296Y1261D01*
X1369Y1261D02*
X1376Y1261D01*
X0Y1260D02*
X7Y1260D01*
X50Y1260D02*
X55Y1260D01*
X71Y1260D02*
X76Y1260D01*
X91Y1260D02*
X96Y1260D01*
X283Y1260D02*
X295Y1260D01*
X1369Y1260D02*
X1376Y1260D01*
X0Y1259D02*
X7Y1259D01*
X50Y1259D02*
X55Y1259D01*
X71Y1259D02*
X76Y1259D01*
X91Y1259D02*
X96Y1259D01*
X283Y1259D02*
X295Y1259D01*
X1369Y1259D02*
X1376Y1259D01*
X0Y1258D02*
X7Y1258D01*
X50Y1258D02*
X55Y1258D01*
X71Y1258D02*
X76Y1258D01*
X91Y1258D02*
X96Y1258D01*
X283Y1258D02*
X295Y1258D01*
X1369Y1258D02*
X1376Y1258D01*
X0Y1257D02*
X7Y1257D01*
X50Y1257D02*
X55Y1257D01*
X71Y1257D02*
X76Y1257D01*
X91Y1257D02*
X96Y1257D01*
X283Y1257D02*
X295Y1257D01*
X1369Y1257D02*
X1376Y1257D01*
X0Y1256D02*
X7Y1256D01*
X50Y1256D02*
X55Y1256D01*
X71Y1256D02*
X76Y1256D01*
X91Y1256D02*
X96Y1256D01*
X283Y1256D02*
X294Y1256D01*
X1369Y1256D02*
X1376Y1256D01*
X0Y1255D02*
X7Y1255D01*
X50Y1255D02*
X55Y1255D01*
X71Y1255D02*
X76Y1255D01*
X91Y1255D02*
X96Y1255D01*
X283Y1255D02*
X294Y1255D01*
X1369Y1255D02*
X1376Y1255D01*
X0Y1254D02*
X7Y1254D01*
X50Y1254D02*
X55Y1254D01*
X71Y1254D02*
X76Y1254D01*
X91Y1254D02*
X96Y1254D01*
X283Y1254D02*
X294Y1254D01*
X1369Y1254D02*
X1376Y1254D01*
X0Y1253D02*
X7Y1253D01*
X50Y1253D02*
X55Y1253D01*
X71Y1253D02*
X76Y1253D01*
X91Y1253D02*
X96Y1253D01*
X283Y1253D02*
X294Y1253D01*
X1369Y1253D02*
X1376Y1253D01*
X0Y1252D02*
X7Y1252D01*
X50Y1252D02*
X55Y1252D01*
X71Y1252D02*
X76Y1252D01*
X91Y1252D02*
X96Y1252D01*
X283Y1252D02*
X294Y1252D01*
X1369Y1252D02*
X1376Y1252D01*
X0Y1251D02*
X7Y1251D01*
X50Y1251D02*
X55Y1251D01*
X71Y1251D02*
X76Y1251D01*
X91Y1251D02*
X96Y1251D01*
X283Y1251D02*
X294Y1251D01*
X1369Y1251D02*
X1376Y1251D01*
X0Y1250D02*
X7Y1250D01*
X50Y1250D02*
X55Y1250D01*
X71Y1250D02*
X76Y1250D01*
X91Y1250D02*
X96Y1250D01*
X283Y1250D02*
X294Y1250D01*
X1369Y1250D02*
X1376Y1250D01*
X0Y1249D02*
X7Y1249D01*
X50Y1249D02*
X55Y1249D01*
X71Y1249D02*
X76Y1249D01*
X91Y1249D02*
X96Y1249D01*
X283Y1249D02*
X294Y1249D01*
X1369Y1249D02*
X1376Y1249D01*
X0Y1248D02*
X7Y1248D01*
X50Y1248D02*
X55Y1248D01*
X71Y1248D02*
X76Y1248D01*
X91Y1248D02*
X96Y1248D01*
X283Y1248D02*
X294Y1248D01*
X1369Y1248D02*
X1376Y1248D01*
X0Y1247D02*
X7Y1247D01*
X50Y1247D02*
X55Y1247D01*
X71Y1247D02*
X76Y1247D01*
X91Y1247D02*
X96Y1247D01*
X283Y1247D02*
X294Y1247D01*
X1369Y1247D02*
X1376Y1247D01*
X0Y1246D02*
X7Y1246D01*
X50Y1246D02*
X55Y1246D01*
X71Y1246D02*
X76Y1246D01*
X91Y1246D02*
X96Y1246D01*
X283Y1246D02*
X294Y1246D01*
X1369Y1246D02*
X1376Y1246D01*
X0Y1245D02*
X7Y1245D01*
X50Y1245D02*
X55Y1245D01*
X71Y1245D02*
X76Y1245D01*
X91Y1245D02*
X96Y1245D01*
X283Y1245D02*
X294Y1245D01*
X1369Y1245D02*
X1376Y1245D01*
X0Y1244D02*
X7Y1244D01*
X50Y1244D02*
X55Y1244D01*
X71Y1244D02*
X76Y1244D01*
X91Y1244D02*
X96Y1244D01*
X283Y1244D02*
X294Y1244D01*
X1369Y1244D02*
X1376Y1244D01*
X0Y1243D02*
X7Y1243D01*
X50Y1243D02*
X55Y1243D01*
X71Y1243D02*
X76Y1243D01*
X91Y1243D02*
X96Y1243D01*
X283Y1243D02*
X294Y1243D01*
X1369Y1243D02*
X1376Y1243D01*
X0Y1242D02*
X7Y1242D01*
X50Y1242D02*
X55Y1242D01*
X71Y1242D02*
X96Y1242D01*
X283Y1242D02*
X294Y1242D01*
X1369Y1242D02*
X1376Y1242D01*
X0Y1241D02*
X7Y1241D01*
X50Y1241D02*
X55Y1241D01*
X71Y1241D02*
X96Y1241D01*
X283Y1241D02*
X295Y1241D01*
X1369Y1241D02*
X1376Y1241D01*
X0Y1240D02*
X7Y1240D01*
X50Y1240D02*
X55Y1240D01*
X71Y1240D02*
X96Y1240D01*
X283Y1240D02*
X295Y1240D01*
X1369Y1240D02*
X1376Y1240D01*
X0Y1239D02*
X7Y1239D01*
X50Y1239D02*
X55Y1239D01*
X72Y1239D02*
X96Y1239D01*
X283Y1239D02*
X295Y1239D01*
X1369Y1239D02*
X1376Y1239D01*
X0Y1238D02*
X7Y1238D01*
X51Y1238D02*
X54Y1238D01*
X73Y1238D02*
X96Y1238D01*
X283Y1238D02*
X295Y1238D01*
X1369Y1238D02*
X1376Y1238D01*
X0Y1237D02*
X7Y1237D01*
X52Y1237D02*
X53Y1237D01*
X75Y1237D02*
X96Y1237D01*
X283Y1237D02*
X295Y1237D01*
X1369Y1237D02*
X1376Y1237D01*
X0Y1236D02*
X7Y1236D01*
X283Y1236D02*
X296Y1236D01*
X1369Y1236D02*
X1376Y1236D01*
X0Y1235D02*
X7Y1235D01*
X283Y1235D02*
X296Y1235D01*
X1369Y1235D02*
X1376Y1235D01*
X0Y1234D02*
X7Y1234D01*
X283Y1234D02*
X296Y1234D01*
X1369Y1234D02*
X1376Y1234D01*
X0Y1233D02*
X7Y1233D01*
X283Y1233D02*
X296Y1233D01*
X1369Y1233D02*
X1376Y1233D01*
X0Y1232D02*
X7Y1232D01*
X283Y1232D02*
X296Y1232D01*
X1369Y1232D02*
X1376Y1232D01*
X0Y1231D02*
X7Y1231D01*
X283Y1231D02*
X296Y1231D01*
X1369Y1231D02*
X1376Y1231D01*
X0Y1230D02*
X7Y1230D01*
X283Y1230D02*
X296Y1230D01*
X1369Y1230D02*
X1376Y1230D01*
X0Y1229D02*
X7Y1229D01*
X283Y1229D02*
X296Y1229D01*
X1369Y1229D02*
X1376Y1229D01*
X0Y1228D02*
X7Y1228D01*
X283Y1228D02*
X296Y1228D01*
X1369Y1228D02*
X1376Y1228D01*
X0Y1227D02*
X7Y1227D01*
X283Y1227D02*
X296Y1227D01*
X1369Y1227D02*
X1376Y1227D01*
X0Y1226D02*
X7Y1226D01*
X283Y1226D02*
X296Y1226D01*
X1369Y1226D02*
X1376Y1226D01*
X0Y1225D02*
X7Y1225D01*
X283Y1225D02*
X296Y1225D01*
X1369Y1225D02*
X1376Y1225D01*
X0Y1224D02*
X7Y1224D01*
X283Y1224D02*
X296Y1224D01*
X1369Y1224D02*
X1376Y1224D01*
X0Y1223D02*
X7Y1223D01*
X283Y1223D02*
X296Y1223D01*
X1369Y1223D02*
X1376Y1223D01*
X0Y1222D02*
X7Y1222D01*
X283Y1222D02*
X296Y1222D01*
X1369Y1222D02*
X1376Y1222D01*
X0Y1221D02*
X7Y1221D01*
X283Y1221D02*
X296Y1221D01*
X1369Y1221D02*
X1376Y1221D01*
X0Y1220D02*
X7Y1220D01*
X283Y1220D02*
X296Y1220D01*
X1369Y1220D02*
X1376Y1220D01*
X0Y1219D02*
X7Y1219D01*
X283Y1219D02*
X296Y1219D01*
X1369Y1219D02*
X1376Y1219D01*
X0Y1218D02*
X7Y1218D01*
X283Y1218D02*
X296Y1218D01*
X1369Y1218D02*
X1376Y1218D01*
X0Y1217D02*
X7Y1217D01*
X283Y1217D02*
X296Y1217D01*
X1369Y1217D02*
X1376Y1217D01*
X0Y1216D02*
X7Y1216D01*
X283Y1216D02*
X296Y1216D01*
X1369Y1216D02*
X1376Y1216D01*
X0Y1215D02*
X7Y1215D01*
X283Y1215D02*
X296Y1215D01*
X1369Y1215D02*
X1376Y1215D01*
X0Y1214D02*
X7Y1214D01*
X81Y1214D02*
X86Y1214D01*
X283Y1214D02*
X296Y1214D01*
X1369Y1214D02*
X1376Y1214D01*
X0Y1213D02*
X7Y1213D01*
X79Y1213D02*
X88Y1213D01*
X283Y1213D02*
X296Y1213D01*
X1369Y1213D02*
X1376Y1213D01*
X0Y1212D02*
X7Y1212D01*
X79Y1212D02*
X88Y1212D01*
X283Y1212D02*
X296Y1212D01*
X1369Y1212D02*
X1376Y1212D01*
X0Y1211D02*
X7Y1211D01*
X78Y1211D02*
X89Y1211D01*
X283Y1211D02*
X296Y1211D01*
X1369Y1211D02*
X1376Y1211D01*
X0Y1210D02*
X7Y1210D01*
X78Y1210D02*
X89Y1210D01*
X283Y1210D02*
X296Y1210D01*
X1369Y1210D02*
X1376Y1210D01*
X0Y1209D02*
X7Y1209D01*
X78Y1209D02*
X89Y1209D01*
X283Y1209D02*
X296Y1209D01*
X1369Y1209D02*
X1376Y1209D01*
X0Y1208D02*
X7Y1208D01*
X78Y1208D02*
X89Y1208D01*
X283Y1208D02*
X296Y1208D01*
X1369Y1208D02*
X1376Y1208D01*
X0Y1207D02*
X7Y1207D01*
X78Y1207D02*
X89Y1207D01*
X283Y1207D02*
X296Y1207D01*
X1369Y1207D02*
X1376Y1207D01*
X0Y1206D02*
X7Y1206D01*
X78Y1206D02*
X89Y1206D01*
X283Y1206D02*
X296Y1206D01*
X1369Y1206D02*
X1376Y1206D01*
X0Y1205D02*
X7Y1205D01*
X78Y1205D02*
X89Y1205D01*
X283Y1205D02*
X296Y1205D01*
X1369Y1205D02*
X1376Y1205D01*
X0Y1204D02*
X7Y1204D01*
X79Y1204D02*
X88Y1204D01*
X283Y1204D02*
X296Y1204D01*
X1369Y1204D02*
X1376Y1204D01*
X0Y1203D02*
X7Y1203D01*
X79Y1203D02*
X88Y1203D01*
X283Y1203D02*
X296Y1203D01*
X1369Y1203D02*
X1376Y1203D01*
X0Y1202D02*
X7Y1202D01*
X81Y1202D02*
X86Y1202D01*
X283Y1202D02*
X296Y1202D01*
X1369Y1202D02*
X1376Y1202D01*
X0Y1201D02*
X7Y1201D01*
X283Y1201D02*
X296Y1201D01*
X1369Y1201D02*
X1376Y1201D01*
X0Y1200D02*
X7Y1200D01*
X283Y1200D02*
X296Y1200D01*
X1369Y1200D02*
X1376Y1200D01*
X0Y1199D02*
X7Y1199D01*
X283Y1199D02*
X296Y1199D01*
X1369Y1199D02*
X1376Y1199D01*
X0Y1198D02*
X7Y1198D01*
X283Y1198D02*
X296Y1198D01*
X1369Y1198D02*
X1376Y1198D01*
X0Y1197D02*
X7Y1197D01*
X283Y1197D02*
X296Y1197D01*
X1369Y1197D02*
X1376Y1197D01*
X0Y1196D02*
X7Y1196D01*
X283Y1196D02*
X296Y1196D01*
X1369Y1196D02*
X1376Y1196D01*
X0Y1195D02*
X7Y1195D01*
X283Y1195D02*
X296Y1195D01*
X1369Y1195D02*
X1376Y1195D01*
X0Y1194D02*
X7Y1194D01*
X137Y1194D02*
X181Y1194D01*
X283Y1194D02*
X296Y1194D01*
X1369Y1194D02*
X1376Y1194D01*
X0Y1193D02*
X7Y1193D01*
X136Y1193D02*
X182Y1193D01*
X283Y1193D02*
X296Y1193D01*
X1369Y1193D02*
X1376Y1193D01*
X0Y1192D02*
X7Y1192D01*
X136Y1192D02*
X182Y1192D01*
X283Y1192D02*
X296Y1192D01*
X1369Y1192D02*
X1376Y1192D01*
X0Y1191D02*
X7Y1191D01*
X136Y1191D02*
X182Y1191D01*
X283Y1191D02*
X296Y1191D01*
X1369Y1191D02*
X1376Y1191D01*
X0Y1190D02*
X7Y1190D01*
X136Y1190D02*
X182Y1190D01*
X283Y1190D02*
X296Y1190D01*
X1369Y1190D02*
X1376Y1190D01*
X0Y1189D02*
X7Y1189D01*
X136Y1189D02*
X182Y1189D01*
X283Y1189D02*
X296Y1189D01*
X1369Y1189D02*
X1376Y1189D01*
X0Y1188D02*
X7Y1188D01*
X136Y1188D02*
X141Y1188D01*
X151Y1188D02*
X156Y1188D01*
X177Y1188D02*
X182Y1188D01*
X283Y1188D02*
X296Y1188D01*
X1369Y1188D02*
X1376Y1188D01*
X0Y1187D02*
X7Y1187D01*
X136Y1187D02*
X141Y1187D01*
X151Y1187D02*
X156Y1187D01*
X178Y1187D02*
X182Y1187D01*
X283Y1187D02*
X296Y1187D01*
X1369Y1187D02*
X1376Y1187D01*
X0Y1186D02*
X7Y1186D01*
X136Y1186D02*
X141Y1186D01*
X151Y1186D02*
X156Y1186D01*
X179Y1186D02*
X181Y1186D01*
X283Y1186D02*
X296Y1186D01*
X1369Y1186D02*
X1376Y1186D01*
X0Y1185D02*
X7Y1185D01*
X136Y1185D02*
X141Y1185D01*
X151Y1185D02*
X156Y1185D01*
X283Y1185D02*
X296Y1185D01*
X1369Y1185D02*
X1376Y1185D01*
X0Y1184D02*
X7Y1184D01*
X136Y1184D02*
X141Y1184D01*
X151Y1184D02*
X156Y1184D01*
X283Y1184D02*
X296Y1184D01*
X1369Y1184D02*
X1376Y1184D01*
X0Y1183D02*
X7Y1183D01*
X136Y1183D02*
X141Y1183D01*
X151Y1183D02*
X156Y1183D01*
X283Y1183D02*
X296Y1183D01*
X1369Y1183D02*
X1376Y1183D01*
X0Y1182D02*
X7Y1182D01*
X136Y1182D02*
X141Y1182D01*
X151Y1182D02*
X156Y1182D01*
X283Y1182D02*
X296Y1182D01*
X1369Y1182D02*
X1376Y1182D01*
X0Y1181D02*
X7Y1181D01*
X136Y1181D02*
X141Y1181D01*
X151Y1181D02*
X156Y1181D01*
X283Y1181D02*
X296Y1181D01*
X1369Y1181D02*
X1376Y1181D01*
X0Y1180D02*
X7Y1180D01*
X136Y1180D02*
X141Y1180D01*
X151Y1180D02*
X156Y1180D01*
X283Y1180D02*
X296Y1180D01*
X1369Y1180D02*
X1376Y1180D01*
X0Y1179D02*
X7Y1179D01*
X78Y1179D02*
X95Y1179D01*
X136Y1179D02*
X141Y1179D01*
X151Y1179D02*
X156Y1179D01*
X283Y1179D02*
X296Y1179D01*
X1369Y1179D02*
X1376Y1179D01*
X0Y1178D02*
X7Y1178D01*
X76Y1178D02*
X96Y1178D01*
X136Y1178D02*
X141Y1178D01*
X151Y1178D02*
X156Y1178D01*
X283Y1178D02*
X296Y1178D01*
X1369Y1178D02*
X1376Y1178D01*
X0Y1177D02*
X7Y1177D01*
X76Y1177D02*
X96Y1177D01*
X136Y1177D02*
X141Y1177D01*
X151Y1177D02*
X156Y1177D01*
X283Y1177D02*
X296Y1177D01*
X1369Y1177D02*
X1376Y1177D01*
X0Y1176D02*
X7Y1176D01*
X76Y1176D02*
X96Y1176D01*
X136Y1176D02*
X141Y1176D01*
X151Y1176D02*
X156Y1176D01*
X283Y1176D02*
X296Y1176D01*
X1369Y1176D02*
X1376Y1176D01*
X0Y1175D02*
X7Y1175D01*
X76Y1175D02*
X96Y1175D01*
X136Y1175D02*
X141Y1175D01*
X151Y1175D02*
X156Y1175D01*
X283Y1175D02*
X296Y1175D01*
X1369Y1175D02*
X1376Y1175D01*
X0Y1174D02*
X7Y1174D01*
X77Y1174D02*
X96Y1174D01*
X136Y1174D02*
X141Y1174D01*
X151Y1174D02*
X156Y1174D01*
X283Y1174D02*
X296Y1174D01*
X1369Y1174D02*
X1376Y1174D01*
X0Y1173D02*
X7Y1173D01*
X91Y1173D02*
X96Y1173D01*
X136Y1173D02*
X141Y1173D01*
X151Y1173D02*
X156Y1173D01*
X283Y1173D02*
X296Y1173D01*
X1369Y1173D02*
X1376Y1173D01*
X0Y1172D02*
X7Y1172D01*
X91Y1172D02*
X96Y1172D01*
X136Y1172D02*
X141Y1172D01*
X151Y1172D02*
X156Y1172D01*
X283Y1172D02*
X296Y1172D01*
X1369Y1172D02*
X1376Y1172D01*
X0Y1171D02*
X7Y1171D01*
X91Y1171D02*
X96Y1171D01*
X136Y1171D02*
X141Y1171D01*
X151Y1171D02*
X156Y1171D01*
X283Y1171D02*
X296Y1171D01*
X1369Y1171D02*
X1376Y1171D01*
X0Y1170D02*
X7Y1170D01*
X91Y1170D02*
X96Y1170D01*
X136Y1170D02*
X156Y1170D01*
X283Y1170D02*
X296Y1170D01*
X1369Y1170D02*
X1376Y1170D01*
X0Y1169D02*
X7Y1169D01*
X91Y1169D02*
X96Y1169D01*
X136Y1169D02*
X156Y1169D01*
X283Y1169D02*
X296Y1169D01*
X1369Y1169D02*
X1376Y1169D01*
X0Y1168D02*
X7Y1168D01*
X91Y1168D02*
X96Y1168D01*
X136Y1168D02*
X156Y1168D01*
X283Y1168D02*
X296Y1168D01*
X1369Y1168D02*
X1376Y1168D01*
X0Y1167D02*
X7Y1167D01*
X50Y1167D02*
X96Y1167D01*
X136Y1167D02*
X156Y1167D01*
X283Y1167D02*
X296Y1167D01*
X1369Y1167D02*
X1376Y1167D01*
X0Y1166D02*
X7Y1166D01*
X50Y1166D02*
X96Y1166D01*
X136Y1166D02*
X156Y1166D01*
X283Y1166D02*
X296Y1166D01*
X1369Y1166D02*
X1376Y1166D01*
X0Y1165D02*
X7Y1165D01*
X50Y1165D02*
X96Y1165D01*
X137Y1165D02*
X155Y1165D01*
X283Y1165D02*
X296Y1165D01*
X1369Y1165D02*
X1376Y1165D01*
X0Y1164D02*
X7Y1164D01*
X50Y1164D02*
X96Y1164D01*
X283Y1164D02*
X296Y1164D01*
X1369Y1164D02*
X1376Y1164D01*
X0Y1163D02*
X7Y1163D01*
X50Y1163D02*
X96Y1163D01*
X283Y1163D02*
X296Y1163D01*
X1369Y1163D02*
X1376Y1163D01*
X0Y1162D02*
X7Y1162D01*
X50Y1162D02*
X96Y1162D01*
X283Y1162D02*
X296Y1162D01*
X1369Y1162D02*
X1376Y1162D01*
X0Y1161D02*
X7Y1161D01*
X50Y1161D02*
X56Y1161D01*
X91Y1161D02*
X96Y1161D01*
X283Y1161D02*
X296Y1161D01*
X1369Y1161D02*
X1376Y1161D01*
X0Y1160D02*
X7Y1160D01*
X50Y1160D02*
X55Y1160D01*
X91Y1160D02*
X96Y1160D01*
X283Y1160D02*
X296Y1160D01*
X1369Y1160D02*
X1376Y1160D01*
X0Y1159D02*
X7Y1159D01*
X50Y1159D02*
X55Y1159D01*
X91Y1159D02*
X96Y1159D01*
X283Y1159D02*
X296Y1159D01*
X1369Y1159D02*
X1376Y1159D01*
X0Y1158D02*
X7Y1158D01*
X50Y1158D02*
X55Y1158D01*
X91Y1158D02*
X96Y1158D01*
X283Y1158D02*
X296Y1158D01*
X1369Y1158D02*
X1376Y1158D01*
X0Y1157D02*
X7Y1157D01*
X50Y1157D02*
X55Y1157D01*
X91Y1157D02*
X96Y1157D01*
X283Y1157D02*
X296Y1157D01*
X1369Y1157D02*
X1376Y1157D01*
X0Y1156D02*
X7Y1156D01*
X50Y1156D02*
X55Y1156D01*
X91Y1156D02*
X96Y1156D01*
X283Y1156D02*
X296Y1156D01*
X1369Y1156D02*
X1376Y1156D01*
X0Y1155D02*
X7Y1155D01*
X50Y1155D02*
X55Y1155D01*
X91Y1155D02*
X96Y1155D01*
X283Y1155D02*
X296Y1155D01*
X1369Y1155D02*
X1376Y1155D01*
X0Y1154D02*
X7Y1154D01*
X50Y1154D02*
X55Y1154D01*
X91Y1154D02*
X96Y1154D01*
X283Y1154D02*
X296Y1154D01*
X1369Y1154D02*
X1376Y1154D01*
X0Y1153D02*
X7Y1153D01*
X50Y1153D02*
X55Y1153D01*
X91Y1153D02*
X96Y1153D01*
X283Y1153D02*
X296Y1153D01*
X1369Y1153D02*
X1376Y1153D01*
X0Y1152D02*
X7Y1152D01*
X50Y1152D02*
X55Y1152D01*
X91Y1152D02*
X96Y1152D01*
X283Y1152D02*
X296Y1152D01*
X1369Y1152D02*
X1376Y1152D01*
X0Y1151D02*
X7Y1151D01*
X50Y1151D02*
X55Y1151D01*
X91Y1151D02*
X96Y1151D01*
X283Y1151D02*
X296Y1151D01*
X1369Y1151D02*
X1376Y1151D01*
X0Y1150D02*
X7Y1150D01*
X51Y1150D02*
X54Y1150D01*
X92Y1150D02*
X96Y1150D01*
X163Y1150D02*
X181Y1150D01*
X283Y1150D02*
X296Y1150D01*
X1369Y1150D02*
X1376Y1150D01*
X0Y1149D02*
X7Y1149D01*
X94Y1149D02*
X94Y1149D01*
X162Y1149D02*
X182Y1149D01*
X283Y1149D02*
X296Y1149D01*
X1369Y1149D02*
X1376Y1149D01*
X0Y1148D02*
X7Y1148D01*
X162Y1148D02*
X182Y1148D01*
X283Y1148D02*
X296Y1148D01*
X1369Y1148D02*
X1376Y1148D01*
X0Y1147D02*
X7Y1147D01*
X162Y1147D02*
X182Y1147D01*
X283Y1147D02*
X296Y1147D01*
X1369Y1147D02*
X1376Y1147D01*
X0Y1146D02*
X7Y1146D01*
X162Y1146D02*
X182Y1146D01*
X283Y1146D02*
X296Y1146D01*
X1369Y1146D02*
X1376Y1146D01*
X0Y1145D02*
X7Y1145D01*
X163Y1145D02*
X182Y1145D01*
X283Y1145D02*
X296Y1145D01*
X1369Y1145D02*
X1376Y1145D01*
X0Y1144D02*
X7Y1144D01*
X177Y1144D02*
X182Y1144D01*
X283Y1144D02*
X296Y1144D01*
X1369Y1144D02*
X1376Y1144D01*
X0Y1143D02*
X7Y1143D01*
X177Y1143D02*
X182Y1143D01*
X283Y1143D02*
X296Y1143D01*
X1369Y1143D02*
X1376Y1143D01*
X0Y1142D02*
X7Y1142D01*
X177Y1142D02*
X182Y1142D01*
X283Y1142D02*
X296Y1142D01*
X1369Y1142D02*
X1376Y1142D01*
X0Y1141D02*
X7Y1141D01*
X177Y1141D02*
X182Y1141D01*
X283Y1141D02*
X296Y1141D01*
X1369Y1141D02*
X1376Y1141D01*
X0Y1140D02*
X7Y1140D01*
X177Y1140D02*
X182Y1140D01*
X283Y1140D02*
X296Y1140D01*
X1369Y1140D02*
X1376Y1140D01*
X0Y1139D02*
X7Y1139D01*
X177Y1139D02*
X182Y1139D01*
X283Y1139D02*
X296Y1139D01*
X1369Y1139D02*
X1376Y1139D01*
X0Y1138D02*
X7Y1138D01*
X136Y1138D02*
X182Y1138D01*
X283Y1138D02*
X296Y1138D01*
X1369Y1138D02*
X1376Y1138D01*
X0Y1137D02*
X7Y1137D01*
X136Y1137D02*
X182Y1137D01*
X283Y1137D02*
X296Y1137D01*
X1369Y1137D02*
X1376Y1137D01*
X0Y1136D02*
X7Y1136D01*
X136Y1136D02*
X182Y1136D01*
X283Y1136D02*
X296Y1136D01*
X1369Y1136D02*
X1376Y1136D01*
X0Y1135D02*
X7Y1135D01*
X52Y1135D02*
X64Y1135D01*
X136Y1135D02*
X182Y1135D01*
X283Y1135D02*
X296Y1135D01*
X1369Y1135D02*
X1376Y1135D01*
X0Y1134D02*
X7Y1134D01*
X50Y1134D02*
X66Y1134D01*
X136Y1134D02*
X182Y1134D01*
X283Y1134D02*
X296Y1134D01*
X1369Y1134D02*
X1376Y1134D01*
X0Y1133D02*
X7Y1133D01*
X50Y1133D02*
X69Y1133D01*
X136Y1133D02*
X182Y1133D01*
X283Y1133D02*
X296Y1133D01*
X1369Y1133D02*
X1376Y1133D01*
X0Y1132D02*
X7Y1132D01*
X50Y1132D02*
X72Y1132D01*
X136Y1132D02*
X141Y1132D01*
X177Y1132D02*
X182Y1132D01*
X283Y1132D02*
X296Y1132D01*
X1369Y1132D02*
X1376Y1132D01*
X0Y1131D02*
X7Y1131D01*
X50Y1131D02*
X74Y1131D01*
X136Y1131D02*
X141Y1131D01*
X177Y1131D02*
X182Y1131D01*
X283Y1131D02*
X296Y1131D01*
X1369Y1131D02*
X1376Y1131D01*
X0Y1130D02*
X7Y1130D01*
X51Y1130D02*
X77Y1130D01*
X136Y1130D02*
X141Y1130D01*
X177Y1130D02*
X182Y1130D01*
X283Y1130D02*
X296Y1130D01*
X1369Y1130D02*
X1376Y1130D01*
X0Y1129D02*
X7Y1129D01*
X63Y1129D02*
X79Y1129D01*
X136Y1129D02*
X141Y1129D01*
X177Y1129D02*
X182Y1129D01*
X283Y1129D02*
X296Y1129D01*
X1369Y1129D02*
X1376Y1129D01*
X0Y1128D02*
X7Y1128D01*
X66Y1128D02*
X82Y1128D01*
X136Y1128D02*
X141Y1128D01*
X177Y1128D02*
X182Y1128D01*
X283Y1128D02*
X296Y1128D01*
X1369Y1128D02*
X1376Y1128D01*
X0Y1127D02*
X7Y1127D01*
X68Y1127D02*
X84Y1127D01*
X136Y1127D02*
X141Y1127D01*
X177Y1127D02*
X182Y1127D01*
X283Y1127D02*
X296Y1127D01*
X1369Y1127D02*
X1376Y1127D01*
X0Y1126D02*
X7Y1126D01*
X71Y1126D02*
X87Y1126D01*
X136Y1126D02*
X141Y1126D01*
X177Y1126D02*
X182Y1126D01*
X283Y1126D02*
X296Y1126D01*
X1369Y1126D02*
X1376Y1126D01*
X0Y1125D02*
X7Y1125D01*
X74Y1125D02*
X90Y1125D01*
X136Y1125D02*
X141Y1125D01*
X177Y1125D02*
X182Y1125D01*
X283Y1125D02*
X296Y1125D01*
X1369Y1125D02*
X1376Y1125D01*
X0Y1124D02*
X7Y1124D01*
X76Y1124D02*
X92Y1124D01*
X136Y1124D02*
X141Y1124D01*
X177Y1124D02*
X182Y1124D01*
X283Y1124D02*
X296Y1124D01*
X1369Y1124D02*
X1376Y1124D01*
X0Y1123D02*
X7Y1123D01*
X79Y1123D02*
X95Y1123D01*
X136Y1123D02*
X141Y1123D01*
X177Y1123D02*
X182Y1123D01*
X283Y1123D02*
X296Y1123D01*
X1369Y1123D02*
X1376Y1123D01*
X0Y1122D02*
X7Y1122D01*
X81Y1122D02*
X96Y1122D01*
X136Y1122D02*
X140Y1122D01*
X178Y1122D02*
X182Y1122D01*
X283Y1122D02*
X296Y1122D01*
X1369Y1122D02*
X1376Y1122D01*
X0Y1121D02*
X7Y1121D01*
X84Y1121D02*
X96Y1121D01*
X137Y1121D02*
X139Y1121D01*
X179Y1121D02*
X181Y1121D01*
X283Y1121D02*
X296Y1121D01*
X1369Y1121D02*
X1376Y1121D01*
X0Y1120D02*
X7Y1120D01*
X85Y1120D02*
X96Y1120D01*
X283Y1120D02*
X296Y1120D01*
X1369Y1120D02*
X1376Y1120D01*
X0Y1119D02*
X7Y1119D01*
X83Y1119D02*
X96Y1119D01*
X283Y1119D02*
X296Y1119D01*
X1369Y1119D02*
X1376Y1119D01*
X0Y1118D02*
X7Y1118D01*
X80Y1118D02*
X96Y1118D01*
X283Y1118D02*
X296Y1118D01*
X1369Y1118D02*
X1376Y1118D01*
X0Y1117D02*
X7Y1117D01*
X78Y1117D02*
X94Y1117D01*
X283Y1117D02*
X296Y1117D01*
X1369Y1117D02*
X1376Y1117D01*
X0Y1116D02*
X7Y1116D01*
X75Y1116D02*
X91Y1116D01*
X283Y1116D02*
X296Y1116D01*
X1369Y1116D02*
X1376Y1116D01*
X0Y1115D02*
X7Y1115D01*
X72Y1115D02*
X89Y1115D01*
X283Y1115D02*
X296Y1115D01*
X1369Y1115D02*
X1376Y1115D01*
X0Y1114D02*
X7Y1114D01*
X70Y1114D02*
X86Y1114D01*
X283Y1114D02*
X296Y1114D01*
X1369Y1114D02*
X1376Y1114D01*
X0Y1113D02*
X7Y1113D01*
X67Y1113D02*
X83Y1113D01*
X283Y1113D02*
X296Y1113D01*
X1369Y1113D02*
X1376Y1113D01*
X0Y1112D02*
X7Y1112D01*
X65Y1112D02*
X81Y1112D01*
X283Y1112D02*
X296Y1112D01*
X1369Y1112D02*
X1376Y1112D01*
X0Y1111D02*
X7Y1111D01*
X52Y1111D02*
X78Y1111D01*
X283Y1111D02*
X296Y1111D01*
X1369Y1111D02*
X1376Y1111D01*
X0Y1110D02*
X7Y1110D01*
X51Y1110D02*
X76Y1110D01*
X283Y1110D02*
X296Y1110D01*
X1369Y1110D02*
X1376Y1110D01*
X0Y1109D02*
X7Y1109D01*
X50Y1109D02*
X73Y1109D01*
X283Y1109D02*
X296Y1109D01*
X1369Y1109D02*
X1376Y1109D01*
X0Y1108D02*
X7Y1108D01*
X50Y1108D02*
X71Y1108D01*
X283Y1108D02*
X296Y1108D01*
X1369Y1108D02*
X1376Y1108D01*
X0Y1107D02*
X7Y1107D01*
X50Y1107D02*
X68Y1107D01*
X283Y1107D02*
X296Y1107D01*
X1369Y1107D02*
X1376Y1107D01*
X0Y1106D02*
X7Y1106D01*
X51Y1106D02*
X65Y1106D01*
X139Y1106D02*
X179Y1106D01*
X283Y1106D02*
X296Y1106D01*
X1369Y1106D02*
X1376Y1106D01*
X0Y1105D02*
X7Y1105D01*
X138Y1105D02*
X180Y1105D01*
X283Y1105D02*
X296Y1105D01*
X1369Y1105D02*
X1376Y1105D01*
X0Y1104D02*
X7Y1104D01*
X137Y1104D02*
X181Y1104D01*
X283Y1104D02*
X296Y1104D01*
X1369Y1104D02*
X1376Y1104D01*
X0Y1103D02*
X7Y1103D01*
X136Y1103D02*
X182Y1103D01*
X283Y1103D02*
X296Y1103D01*
X1369Y1103D02*
X1376Y1103D01*
X0Y1102D02*
X7Y1102D01*
X136Y1102D02*
X182Y1102D01*
X283Y1102D02*
X296Y1102D01*
X1369Y1102D02*
X1376Y1102D01*
X0Y1101D02*
X7Y1101D01*
X136Y1101D02*
X182Y1101D01*
X283Y1101D02*
X296Y1101D01*
X1369Y1101D02*
X1376Y1101D01*
X0Y1100D02*
X7Y1100D01*
X136Y1100D02*
X141Y1100D01*
X177Y1100D02*
X182Y1100D01*
X283Y1100D02*
X296Y1100D01*
X1369Y1100D02*
X1376Y1100D01*
X0Y1099D02*
X7Y1099D01*
X136Y1099D02*
X141Y1099D01*
X177Y1099D02*
X182Y1099D01*
X283Y1099D02*
X296Y1099D01*
X1369Y1099D02*
X1376Y1099D01*
X0Y1098D02*
X7Y1098D01*
X136Y1098D02*
X141Y1098D01*
X177Y1098D02*
X182Y1098D01*
X283Y1098D02*
X296Y1098D01*
X1369Y1098D02*
X1376Y1098D01*
X0Y1097D02*
X7Y1097D01*
X136Y1097D02*
X141Y1097D01*
X177Y1097D02*
X182Y1097D01*
X283Y1097D02*
X296Y1097D01*
X1369Y1097D02*
X1376Y1097D01*
X0Y1096D02*
X7Y1096D01*
X136Y1096D02*
X141Y1096D01*
X177Y1096D02*
X182Y1096D01*
X283Y1096D02*
X296Y1096D01*
X1369Y1096D02*
X1376Y1096D01*
X0Y1095D02*
X7Y1095D01*
X136Y1095D02*
X141Y1095D01*
X177Y1095D02*
X182Y1095D01*
X283Y1095D02*
X296Y1095D01*
X1369Y1095D02*
X1376Y1095D01*
X0Y1094D02*
X7Y1094D01*
X136Y1094D02*
X141Y1094D01*
X177Y1094D02*
X182Y1094D01*
X283Y1094D02*
X296Y1094D01*
X1369Y1094D02*
X1376Y1094D01*
X0Y1093D02*
X7Y1093D01*
X136Y1093D02*
X141Y1093D01*
X177Y1093D02*
X182Y1093D01*
X283Y1093D02*
X296Y1093D01*
X1369Y1093D02*
X1376Y1093D01*
X0Y1092D02*
X7Y1092D01*
X136Y1092D02*
X141Y1092D01*
X177Y1092D02*
X182Y1092D01*
X283Y1092D02*
X296Y1092D01*
X1369Y1092D02*
X1376Y1092D01*
X0Y1091D02*
X7Y1091D01*
X136Y1091D02*
X141Y1091D01*
X177Y1091D02*
X182Y1091D01*
X283Y1091D02*
X296Y1091D01*
X1369Y1091D02*
X1376Y1091D01*
X0Y1090D02*
X7Y1090D01*
X136Y1090D02*
X141Y1090D01*
X177Y1090D02*
X182Y1090D01*
X283Y1090D02*
X296Y1090D01*
X1369Y1090D02*
X1376Y1090D01*
X0Y1089D02*
X7Y1089D01*
X136Y1089D02*
X141Y1089D01*
X177Y1089D02*
X182Y1089D01*
X283Y1089D02*
X296Y1089D01*
X1369Y1089D02*
X1376Y1089D01*
X0Y1088D02*
X7Y1088D01*
X136Y1088D02*
X141Y1088D01*
X177Y1088D02*
X182Y1088D01*
X283Y1088D02*
X296Y1088D01*
X1369Y1088D02*
X1376Y1088D01*
X0Y1087D02*
X7Y1087D01*
X136Y1087D02*
X141Y1087D01*
X177Y1087D02*
X182Y1087D01*
X283Y1087D02*
X296Y1087D01*
X1369Y1087D02*
X1376Y1087D01*
X0Y1086D02*
X7Y1086D01*
X136Y1086D02*
X141Y1086D01*
X177Y1086D02*
X182Y1086D01*
X283Y1086D02*
X296Y1086D01*
X1369Y1086D02*
X1376Y1086D01*
X0Y1085D02*
X7Y1085D01*
X136Y1085D02*
X141Y1085D01*
X177Y1085D02*
X182Y1085D01*
X283Y1085D02*
X296Y1085D01*
X1369Y1085D02*
X1376Y1085D01*
X0Y1084D02*
X7Y1084D01*
X136Y1084D02*
X141Y1084D01*
X177Y1084D02*
X182Y1084D01*
X283Y1084D02*
X296Y1084D01*
X1369Y1084D02*
X1376Y1084D01*
X0Y1083D02*
X7Y1083D01*
X136Y1083D02*
X141Y1083D01*
X177Y1083D02*
X182Y1083D01*
X283Y1083D02*
X296Y1083D01*
X1369Y1083D02*
X1376Y1083D01*
X0Y1082D02*
X7Y1082D01*
X136Y1082D02*
X182Y1082D01*
X283Y1082D02*
X296Y1082D01*
X1369Y1082D02*
X1376Y1082D01*
X0Y1081D02*
X7Y1081D01*
X136Y1081D02*
X182Y1081D01*
X283Y1081D02*
X296Y1081D01*
X1369Y1081D02*
X1376Y1081D01*
X0Y1080D02*
X7Y1080D01*
X136Y1080D02*
X182Y1080D01*
X283Y1080D02*
X296Y1080D01*
X1369Y1080D02*
X1376Y1080D01*
X0Y1079D02*
X7Y1079D01*
X137Y1079D02*
X181Y1079D01*
X283Y1079D02*
X296Y1079D01*
X1369Y1079D02*
X1376Y1079D01*
X0Y1078D02*
X7Y1078D01*
X138Y1078D02*
X180Y1078D01*
X283Y1078D02*
X296Y1078D01*
X1369Y1078D02*
X1376Y1078D01*
X0Y1077D02*
X7Y1077D01*
X140Y1077D02*
X178Y1077D01*
X283Y1077D02*
X296Y1077D01*
X1369Y1077D02*
X1376Y1077D01*
X0Y1076D02*
X7Y1076D01*
X283Y1076D02*
X296Y1076D01*
X1369Y1076D02*
X1376Y1076D01*
X0Y1075D02*
X7Y1075D01*
X283Y1075D02*
X296Y1075D01*
X1369Y1075D02*
X1376Y1075D01*
X0Y1074D02*
X7Y1074D01*
X283Y1074D02*
X296Y1074D01*
X1369Y1074D02*
X1376Y1074D01*
X0Y1073D02*
X7Y1073D01*
X283Y1073D02*
X296Y1073D01*
X1369Y1073D02*
X1376Y1073D01*
X0Y1072D02*
X7Y1072D01*
X283Y1072D02*
X296Y1072D01*
X1369Y1072D02*
X1376Y1072D01*
X0Y1071D02*
X7Y1071D01*
X283Y1071D02*
X296Y1071D01*
X1369Y1071D02*
X1376Y1071D01*
X0Y1070D02*
X7Y1070D01*
X283Y1070D02*
X296Y1070D01*
X1369Y1070D02*
X1376Y1070D01*
X0Y1069D02*
X7Y1069D01*
X283Y1069D02*
X296Y1069D01*
X1369Y1069D02*
X1376Y1069D01*
X0Y1068D02*
X7Y1068D01*
X283Y1068D02*
X296Y1068D01*
X1369Y1068D02*
X1376Y1068D01*
X0Y1067D02*
X7Y1067D01*
X283Y1067D02*
X296Y1067D01*
X1369Y1067D02*
X1376Y1067D01*
X0Y1066D02*
X7Y1066D01*
X283Y1066D02*
X296Y1066D01*
X1369Y1066D02*
X1376Y1066D01*
X0Y1065D02*
X7Y1065D01*
X283Y1065D02*
X296Y1065D01*
X1369Y1065D02*
X1376Y1065D01*
X0Y1064D02*
X7Y1064D01*
X283Y1064D02*
X296Y1064D01*
X1369Y1064D02*
X1376Y1064D01*
X0Y1063D02*
X7Y1063D01*
X142Y1063D02*
X156Y1063D01*
X283Y1063D02*
X296Y1063D01*
X1369Y1063D02*
X1376Y1063D01*
X0Y1062D02*
X7Y1062D01*
X139Y1062D02*
X159Y1062D01*
X178Y1062D02*
X181Y1062D01*
X283Y1062D02*
X296Y1062D01*
X1369Y1062D02*
X1376Y1062D01*
X0Y1061D02*
X7Y1061D01*
X137Y1061D02*
X160Y1061D01*
X177Y1061D02*
X182Y1061D01*
X283Y1061D02*
X296Y1061D01*
X1369Y1061D02*
X1376Y1061D01*
X0Y1060D02*
X7Y1060D01*
X137Y1060D02*
X161Y1060D01*
X177Y1060D02*
X182Y1060D01*
X283Y1060D02*
X296Y1060D01*
X1369Y1060D02*
X1376Y1060D01*
X0Y1059D02*
X7Y1059D01*
X136Y1059D02*
X161Y1059D01*
X177Y1059D02*
X182Y1059D01*
X283Y1059D02*
X296Y1059D01*
X1369Y1059D02*
X1376Y1059D01*
X0Y1058D02*
X7Y1058D01*
X136Y1058D02*
X161Y1058D01*
X177Y1058D02*
X182Y1058D01*
X283Y1058D02*
X296Y1058D01*
X1369Y1058D02*
X1376Y1058D01*
X0Y1057D02*
X7Y1057D01*
X136Y1057D02*
X162Y1057D01*
X177Y1057D02*
X182Y1057D01*
X283Y1057D02*
X296Y1057D01*
X1369Y1057D02*
X1376Y1057D01*
X0Y1056D02*
X7Y1056D01*
X136Y1056D02*
X141Y1056D01*
X156Y1056D02*
X162Y1056D01*
X177Y1056D02*
X182Y1056D01*
X283Y1056D02*
X296Y1056D01*
X1369Y1056D02*
X1376Y1056D01*
X0Y1055D02*
X7Y1055D01*
X136Y1055D02*
X141Y1055D01*
X156Y1055D02*
X162Y1055D01*
X177Y1055D02*
X182Y1055D01*
X283Y1055D02*
X296Y1055D01*
X1369Y1055D02*
X1376Y1055D01*
X0Y1054D02*
X7Y1054D01*
X136Y1054D02*
X141Y1054D01*
X156Y1054D02*
X162Y1054D01*
X177Y1054D02*
X182Y1054D01*
X283Y1054D02*
X296Y1054D01*
X1369Y1054D02*
X1376Y1054D01*
X0Y1053D02*
X7Y1053D01*
X136Y1053D02*
X141Y1053D01*
X156Y1053D02*
X162Y1053D01*
X177Y1053D02*
X182Y1053D01*
X283Y1053D02*
X296Y1053D01*
X1369Y1053D02*
X1376Y1053D01*
X0Y1052D02*
X7Y1052D01*
X136Y1052D02*
X141Y1052D01*
X156Y1052D02*
X162Y1052D01*
X177Y1052D02*
X182Y1052D01*
X283Y1052D02*
X296Y1052D01*
X1369Y1052D02*
X1376Y1052D01*
X0Y1051D02*
X7Y1051D01*
X136Y1051D02*
X141Y1051D01*
X156Y1051D02*
X162Y1051D01*
X177Y1051D02*
X182Y1051D01*
X283Y1051D02*
X296Y1051D01*
X1369Y1051D02*
X1376Y1051D01*
X0Y1050D02*
X7Y1050D01*
X136Y1050D02*
X141Y1050D01*
X156Y1050D02*
X162Y1050D01*
X177Y1050D02*
X182Y1050D01*
X283Y1050D02*
X296Y1050D01*
X1369Y1050D02*
X1376Y1050D01*
X0Y1049D02*
X7Y1049D01*
X136Y1049D02*
X141Y1049D01*
X156Y1049D02*
X162Y1049D01*
X177Y1049D02*
X182Y1049D01*
X283Y1049D02*
X296Y1049D01*
X1369Y1049D02*
X1376Y1049D01*
X0Y1048D02*
X7Y1048D01*
X136Y1048D02*
X141Y1048D01*
X156Y1048D02*
X162Y1048D01*
X177Y1048D02*
X182Y1048D01*
X283Y1048D02*
X296Y1048D01*
X1369Y1048D02*
X1376Y1048D01*
X0Y1047D02*
X7Y1047D01*
X70Y1047D02*
X76Y1047D01*
X136Y1047D02*
X141Y1047D01*
X156Y1047D02*
X162Y1047D01*
X177Y1047D02*
X182Y1047D01*
X283Y1047D02*
X296Y1047D01*
X1369Y1047D02*
X1376Y1047D01*
X0Y1046D02*
X7Y1046D01*
X67Y1046D02*
X79Y1046D01*
X136Y1046D02*
X141Y1046D01*
X156Y1046D02*
X162Y1046D01*
X177Y1046D02*
X182Y1046D01*
X283Y1046D02*
X296Y1046D01*
X1369Y1046D02*
X1376Y1046D01*
X0Y1045D02*
X7Y1045D01*
X65Y1045D02*
X81Y1045D01*
X136Y1045D02*
X141Y1045D01*
X156Y1045D02*
X162Y1045D01*
X177Y1045D02*
X182Y1045D01*
X283Y1045D02*
X296Y1045D01*
X1369Y1045D02*
X1376Y1045D01*
X0Y1044D02*
X7Y1044D01*
X63Y1044D02*
X83Y1044D01*
X136Y1044D02*
X141Y1044D01*
X156Y1044D02*
X162Y1044D01*
X177Y1044D02*
X182Y1044D01*
X283Y1044D02*
X296Y1044D01*
X1369Y1044D02*
X1376Y1044D01*
X0Y1043D02*
X7Y1043D01*
X61Y1043D02*
X85Y1043D01*
X136Y1043D02*
X141Y1043D01*
X156Y1043D02*
X162Y1043D01*
X177Y1043D02*
X182Y1043D01*
X283Y1043D02*
X296Y1043D01*
X1369Y1043D02*
X1376Y1043D01*
X0Y1042D02*
X7Y1042D01*
X59Y1042D02*
X87Y1042D01*
X136Y1042D02*
X141Y1042D01*
X156Y1042D02*
X162Y1042D01*
X177Y1042D02*
X182Y1042D01*
X283Y1042D02*
X296Y1042D01*
X1369Y1042D02*
X1376Y1042D01*
X0Y1041D02*
X7Y1041D01*
X57Y1041D02*
X70Y1041D01*
X76Y1041D02*
X89Y1041D01*
X136Y1041D02*
X141Y1041D01*
X156Y1041D02*
X162Y1041D01*
X177Y1041D02*
X182Y1041D01*
X283Y1041D02*
X296Y1041D01*
X1369Y1041D02*
X1376Y1041D01*
X0Y1040D02*
X7Y1040D01*
X55Y1040D02*
X68Y1040D01*
X78Y1040D02*
X91Y1040D01*
X136Y1040D02*
X141Y1040D01*
X156Y1040D02*
X162Y1040D01*
X177Y1040D02*
X182Y1040D01*
X283Y1040D02*
X296Y1040D01*
X1369Y1040D02*
X1376Y1040D01*
X0Y1039D02*
X7Y1039D01*
X54Y1039D02*
X66Y1039D01*
X80Y1039D02*
X93Y1039D01*
X136Y1039D02*
X141Y1039D01*
X156Y1039D02*
X162Y1039D01*
X177Y1039D02*
X182Y1039D01*
X283Y1039D02*
X296Y1039D01*
X1369Y1039D02*
X1376Y1039D01*
X0Y1038D02*
X7Y1038D01*
X53Y1038D02*
X64Y1038D01*
X82Y1038D02*
X94Y1038D01*
X136Y1038D02*
X141Y1038D01*
X157Y1038D02*
X182Y1038D01*
X283Y1038D02*
X296Y1038D01*
X1369Y1038D02*
X1376Y1038D01*
X0Y1037D02*
X7Y1037D01*
X52Y1037D02*
X62Y1037D01*
X84Y1037D02*
X95Y1037D01*
X136Y1037D02*
X141Y1037D01*
X157Y1037D02*
X182Y1037D01*
X283Y1037D02*
X296Y1037D01*
X1369Y1037D02*
X1376Y1037D01*
X0Y1036D02*
X7Y1036D01*
X51Y1036D02*
X60Y1036D01*
X86Y1036D02*
X95Y1036D01*
X136Y1036D02*
X141Y1036D01*
X157Y1036D02*
X182Y1036D01*
X283Y1036D02*
X296Y1036D01*
X1369Y1036D02*
X1376Y1036D01*
X0Y1035D02*
X7Y1035D01*
X51Y1035D02*
X58Y1035D01*
X88Y1035D02*
X96Y1035D01*
X136Y1035D02*
X141Y1035D01*
X158Y1035D02*
X182Y1035D01*
X283Y1035D02*
X296Y1035D01*
X1369Y1035D02*
X1376Y1035D01*
X0Y1034D02*
X7Y1034D01*
X50Y1034D02*
X56Y1034D01*
X90Y1034D02*
X96Y1034D01*
X136Y1034D02*
X140Y1034D01*
X159Y1034D02*
X182Y1034D01*
X283Y1034D02*
X296Y1034D01*
X1369Y1034D02*
X1376Y1034D01*
X0Y1033D02*
X7Y1033D01*
X50Y1033D02*
X55Y1033D01*
X91Y1033D02*
X96Y1033D01*
X137Y1033D02*
X139Y1033D01*
X161Y1033D02*
X182Y1033D01*
X283Y1033D02*
X296Y1033D01*
X1369Y1033D02*
X1376Y1033D01*
X0Y1032D02*
X7Y1032D01*
X50Y1032D02*
X55Y1032D01*
X91Y1032D02*
X96Y1032D01*
X283Y1032D02*
X296Y1032D01*
X1369Y1032D02*
X1376Y1032D01*
X0Y1031D02*
X7Y1031D01*
X50Y1031D02*
X55Y1031D01*
X91Y1031D02*
X96Y1031D01*
X283Y1031D02*
X296Y1031D01*
X1369Y1031D02*
X1376Y1031D01*
X0Y1030D02*
X7Y1030D01*
X50Y1030D02*
X55Y1030D01*
X91Y1030D02*
X96Y1030D01*
X283Y1030D02*
X296Y1030D01*
X1369Y1030D02*
X1376Y1030D01*
X0Y1029D02*
X7Y1029D01*
X50Y1029D02*
X96Y1029D01*
X283Y1029D02*
X296Y1029D01*
X1369Y1029D02*
X1376Y1029D01*
X0Y1028D02*
X7Y1028D01*
X50Y1028D02*
X96Y1028D01*
X283Y1028D02*
X296Y1028D01*
X1369Y1028D02*
X1376Y1028D01*
X0Y1027D02*
X7Y1027D01*
X50Y1027D02*
X96Y1027D01*
X283Y1027D02*
X296Y1027D01*
X1369Y1027D02*
X1376Y1027D01*
X0Y1026D02*
X7Y1026D01*
X50Y1026D02*
X96Y1026D01*
X283Y1026D02*
X296Y1026D01*
X1369Y1026D02*
X1376Y1026D01*
X0Y1025D02*
X7Y1025D01*
X50Y1025D02*
X96Y1025D01*
X283Y1025D02*
X296Y1025D01*
X1369Y1025D02*
X1376Y1025D01*
X0Y1024D02*
X7Y1024D01*
X50Y1024D02*
X96Y1024D01*
X283Y1024D02*
X296Y1024D01*
X1369Y1024D02*
X1376Y1024D01*
X0Y1023D02*
X7Y1023D01*
X50Y1023D02*
X55Y1023D01*
X91Y1023D02*
X96Y1023D01*
X283Y1023D02*
X296Y1023D01*
X1369Y1023D02*
X1376Y1023D01*
X0Y1022D02*
X7Y1022D01*
X50Y1022D02*
X55Y1022D01*
X91Y1022D02*
X96Y1022D01*
X283Y1022D02*
X296Y1022D01*
X1369Y1022D02*
X1376Y1022D01*
X0Y1021D02*
X7Y1021D01*
X50Y1021D02*
X55Y1021D01*
X91Y1021D02*
X96Y1021D01*
X283Y1021D02*
X296Y1021D01*
X1369Y1021D02*
X1376Y1021D01*
X0Y1020D02*
X7Y1020D01*
X50Y1020D02*
X55Y1020D01*
X91Y1020D02*
X96Y1020D01*
X283Y1020D02*
X296Y1020D01*
X1369Y1020D02*
X1376Y1020D01*
X0Y1019D02*
X7Y1019D01*
X50Y1019D02*
X55Y1019D01*
X92Y1019D02*
X96Y1019D01*
X283Y1019D02*
X296Y1019D01*
X1369Y1019D02*
X1376Y1019D01*
X0Y1018D02*
X7Y1018D01*
X51Y1018D02*
X54Y1018D01*
X92Y1018D02*
X95Y1018D01*
X283Y1018D02*
X296Y1018D01*
X510Y1018D02*
X518Y1018D01*
X536Y1018D02*
X543Y1018D01*
X560Y1018D02*
X584Y1018D01*
X613Y1018D02*
X613Y1018D01*
X713Y1018D02*
X716Y1018D01*
X766Y1018D02*
X787Y1018D01*
X817Y1018D02*
X840Y1018D01*
X866Y1018D02*
X887Y1018D01*
X1369Y1018D02*
X1376Y1018D01*
X0Y1017D02*
X7Y1017D01*
X283Y1017D02*
X296Y1017D01*
X510Y1017D02*
X518Y1017D01*
X535Y1017D02*
X544Y1017D01*
X560Y1017D02*
X588Y1017D01*
X611Y1017D02*
X615Y1017D01*
X639Y1017D02*
X642Y1017D01*
X711Y1017D02*
X718Y1017D01*
X763Y1017D02*
X790Y1017D01*
X817Y1017D02*
X842Y1017D01*
X863Y1017D02*
X890Y1017D01*
X1369Y1017D02*
X1376Y1017D01*
X0Y1016D02*
X7Y1016D01*
X283Y1016D02*
X296Y1016D01*
X510Y1016D02*
X519Y1016D01*
X534Y1016D02*
X544Y1016D01*
X560Y1016D02*
X589Y1016D01*
X610Y1016D02*
X616Y1016D01*
X638Y1016D02*
X643Y1016D01*
X710Y1016D02*
X719Y1016D01*
X762Y1016D02*
X791Y1016D01*
X817Y1016D02*
X843Y1016D01*
X862Y1016D02*
X891Y1016D01*
X1369Y1016D02*
X1376Y1016D01*
X0Y1015D02*
X7Y1015D01*
X283Y1015D02*
X296Y1015D01*
X510Y1015D02*
X520Y1015D01*
X534Y1015D02*
X544Y1015D01*
X560Y1015D02*
X590Y1015D01*
X610Y1015D02*
X616Y1015D01*
X638Y1015D02*
X643Y1015D01*
X710Y1015D02*
X719Y1015D01*
X761Y1015D02*
X792Y1015D01*
X817Y1015D02*
X843Y1015D01*
X861Y1015D02*
X892Y1015D01*
X1369Y1015D02*
X1376Y1015D01*
X0Y1014D02*
X7Y1014D01*
X283Y1014D02*
X296Y1014D01*
X510Y1014D02*
X521Y1014D01*
X533Y1014D02*
X544Y1014D01*
X560Y1014D02*
X591Y1014D01*
X610Y1014D02*
X616Y1014D01*
X637Y1014D02*
X644Y1014D01*
X710Y1014D02*
X719Y1014D01*
X761Y1014D02*
X793Y1014D01*
X817Y1014D02*
X843Y1014D01*
X860Y1014D02*
X893Y1014D01*
X1369Y1014D02*
X1376Y1014D01*
X0Y1013D02*
X7Y1013D01*
X283Y1013D02*
X296Y1013D01*
X510Y1013D02*
X521Y1013D01*
X532Y1013D02*
X544Y1013D01*
X560Y1013D02*
X592Y1013D01*
X610Y1013D02*
X616Y1013D01*
X637Y1013D02*
X644Y1013D01*
X710Y1013D02*
X719Y1013D01*
X760Y1013D02*
X793Y1013D01*
X817Y1013D02*
X843Y1013D01*
X860Y1013D02*
X893Y1013D01*
X1369Y1013D02*
X1376Y1013D01*
X0Y1012D02*
X7Y1012D01*
X283Y1012D02*
X296Y1012D01*
X510Y1012D02*
X522Y1012D01*
X532Y1012D02*
X544Y1012D01*
X560Y1012D02*
X593Y1012D01*
X610Y1012D02*
X616Y1012D01*
X637Y1012D02*
X644Y1012D01*
X710Y1012D02*
X718Y1012D01*
X760Y1012D02*
X793Y1012D01*
X817Y1012D02*
X842Y1012D01*
X860Y1012D02*
X893Y1012D01*
X1369Y1012D02*
X1376Y1012D01*
X0Y1011D02*
X7Y1011D01*
X283Y1011D02*
X296Y1011D01*
X510Y1011D02*
X523Y1011D01*
X531Y1011D02*
X544Y1011D01*
X560Y1011D02*
X566Y1011D01*
X584Y1011D02*
X593Y1011D01*
X610Y1011D02*
X616Y1011D01*
X637Y1011D02*
X644Y1011D01*
X710Y1011D02*
X716Y1011D01*
X760Y1011D02*
X766Y1011D01*
X787Y1011D02*
X793Y1011D01*
X817Y1011D02*
X823Y1011D01*
X860Y1011D02*
X866Y1011D01*
X887Y1011D02*
X893Y1011D01*
X1369Y1011D02*
X1376Y1011D01*
X0Y1010D02*
X7Y1010D01*
X283Y1010D02*
X296Y1010D01*
X510Y1010D02*
X523Y1010D01*
X530Y1010D02*
X544Y1010D01*
X560Y1010D02*
X566Y1010D01*
X586Y1010D02*
X593Y1010D01*
X610Y1010D02*
X616Y1010D01*
X637Y1010D02*
X644Y1010D01*
X710Y1010D02*
X716Y1010D01*
X760Y1010D02*
X766Y1010D01*
X787Y1010D02*
X793Y1010D01*
X817Y1010D02*
X823Y1010D01*
X860Y1010D02*
X866Y1010D01*
X887Y1010D02*
X893Y1010D01*
X1369Y1010D02*
X1376Y1010D01*
X0Y1009D02*
X7Y1009D01*
X283Y1009D02*
X296Y1009D01*
X510Y1009D02*
X524Y1009D01*
X529Y1009D02*
X544Y1009D01*
X560Y1009D02*
X566Y1009D01*
X587Y1009D02*
X593Y1009D01*
X610Y1009D02*
X616Y1009D01*
X637Y1009D02*
X644Y1009D01*
X710Y1009D02*
X716Y1009D01*
X760Y1009D02*
X766Y1009D01*
X787Y1009D02*
X793Y1009D01*
X817Y1009D02*
X823Y1009D01*
X860Y1009D02*
X866Y1009D01*
X887Y1009D02*
X893Y1009D01*
X1369Y1009D02*
X1376Y1009D01*
X0Y1008D02*
X7Y1008D01*
X283Y1008D02*
X296Y1008D01*
X510Y1008D02*
X525Y1008D01*
X529Y1008D02*
X544Y1008D01*
X560Y1008D02*
X566Y1008D01*
X587Y1008D02*
X593Y1008D01*
X610Y1008D02*
X616Y1008D01*
X637Y1008D02*
X644Y1008D01*
X710Y1008D02*
X716Y1008D01*
X760Y1008D02*
X766Y1008D01*
X787Y1008D02*
X793Y1008D01*
X817Y1008D02*
X823Y1008D01*
X860Y1008D02*
X866Y1008D01*
X887Y1008D02*
X893Y1008D01*
X1369Y1008D02*
X1376Y1008D01*
X0Y1007D02*
X7Y1007D01*
X283Y1007D02*
X296Y1007D01*
X510Y1007D02*
X516Y1007D01*
X518Y1007D02*
X526Y1007D01*
X528Y1007D02*
X536Y1007D01*
X538Y1007D02*
X544Y1007D01*
X560Y1007D02*
X566Y1007D01*
X588Y1007D02*
X594Y1007D01*
X610Y1007D02*
X616Y1007D01*
X637Y1007D02*
X644Y1007D01*
X710Y1007D02*
X716Y1007D01*
X760Y1007D02*
X766Y1007D01*
X787Y1007D02*
X793Y1007D01*
X817Y1007D02*
X823Y1007D01*
X860Y1007D02*
X866Y1007D01*
X887Y1007D02*
X893Y1007D01*
X1369Y1007D02*
X1376Y1007D01*
X0Y1006D02*
X7Y1006D01*
X283Y1006D02*
X296Y1006D01*
X510Y1006D02*
X516Y1006D01*
X519Y1006D02*
X535Y1006D01*
X538Y1006D02*
X544Y1006D01*
X560Y1006D02*
X566Y1006D01*
X588Y1006D02*
X594Y1006D01*
X610Y1006D02*
X616Y1006D01*
X637Y1006D02*
X644Y1006D01*
X710Y1006D02*
X716Y1006D01*
X760Y1006D02*
X766Y1006D01*
X787Y1006D02*
X793Y1006D01*
X817Y1006D02*
X823Y1006D01*
X860Y1006D02*
X866Y1006D01*
X887Y1006D02*
X893Y1006D01*
X1369Y1006D02*
X1376Y1006D01*
X0Y1005D02*
X7Y1005D01*
X283Y1005D02*
X296Y1005D01*
X510Y1005D02*
X516Y1005D01*
X519Y1005D02*
X534Y1005D01*
X538Y1005D02*
X544Y1005D01*
X560Y1005D02*
X566Y1005D01*
X588Y1005D02*
X594Y1005D01*
X610Y1005D02*
X616Y1005D01*
X637Y1005D02*
X644Y1005D01*
X710Y1005D02*
X716Y1005D01*
X760Y1005D02*
X766Y1005D01*
X787Y1005D02*
X793Y1005D01*
X817Y1005D02*
X823Y1005D01*
X860Y1005D02*
X866Y1005D01*
X887Y1005D02*
X893Y1005D01*
X1369Y1005D02*
X1376Y1005D01*
X0Y1004D02*
X7Y1004D01*
X283Y1004D02*
X296Y1004D01*
X510Y1004D02*
X516Y1004D01*
X520Y1004D02*
X533Y1004D01*
X538Y1004D02*
X544Y1004D01*
X560Y1004D02*
X566Y1004D01*
X588Y1004D02*
X594Y1004D01*
X610Y1004D02*
X616Y1004D01*
X637Y1004D02*
X644Y1004D01*
X710Y1004D02*
X716Y1004D01*
X760Y1004D02*
X766Y1004D01*
X787Y1004D02*
X793Y1004D01*
X817Y1004D02*
X823Y1004D01*
X860Y1004D02*
X866Y1004D01*
X887Y1004D02*
X893Y1004D01*
X1369Y1004D02*
X1376Y1004D01*
X0Y1003D02*
X7Y1003D01*
X92Y1003D02*
X95Y1003D01*
X283Y1003D02*
X296Y1003D01*
X510Y1003D02*
X516Y1003D01*
X521Y1003D02*
X533Y1003D01*
X538Y1003D02*
X544Y1003D01*
X560Y1003D02*
X566Y1003D01*
X588Y1003D02*
X594Y1003D01*
X610Y1003D02*
X616Y1003D01*
X637Y1003D02*
X644Y1003D01*
X710Y1003D02*
X716Y1003D01*
X760Y1003D02*
X766Y1003D01*
X787Y1003D02*
X793Y1003D01*
X817Y1003D02*
X823Y1003D01*
X860Y1003D02*
X866Y1003D01*
X887Y1003D02*
X893Y1003D01*
X1369Y1003D02*
X1376Y1003D01*
X0Y1002D02*
X7Y1002D01*
X88Y1002D02*
X96Y1002D01*
X283Y1002D02*
X296Y1002D01*
X510Y1002D02*
X516Y1002D01*
X521Y1002D02*
X532Y1002D01*
X538Y1002D02*
X544Y1002D01*
X560Y1002D02*
X566Y1002D01*
X588Y1002D02*
X594Y1002D01*
X610Y1002D02*
X616Y1002D01*
X637Y1002D02*
X644Y1002D01*
X710Y1002D02*
X716Y1002D01*
X760Y1002D02*
X766Y1002D01*
X787Y1002D02*
X793Y1002D01*
X817Y1002D02*
X823Y1002D01*
X860Y1002D02*
X866Y1002D01*
X887Y1002D02*
X893Y1002D01*
X1369Y1002D02*
X1376Y1002D01*
X0Y1001D02*
X7Y1001D01*
X85Y1001D02*
X96Y1001D01*
X283Y1001D02*
X296Y1001D01*
X510Y1001D02*
X516Y1001D01*
X522Y1001D02*
X531Y1001D01*
X538Y1001D02*
X544Y1001D01*
X560Y1001D02*
X566Y1001D01*
X588Y1001D02*
X594Y1001D01*
X610Y1001D02*
X616Y1001D01*
X637Y1001D02*
X644Y1001D01*
X710Y1001D02*
X716Y1001D01*
X760Y1001D02*
X766Y1001D01*
X787Y1001D02*
X793Y1001D01*
X817Y1001D02*
X823Y1001D01*
X860Y1001D02*
X866Y1001D01*
X887Y1001D02*
X893Y1001D01*
X1369Y1001D02*
X1376Y1001D01*
X0Y1000D02*
X7Y1000D01*
X82Y1000D02*
X96Y1000D01*
X283Y1000D02*
X296Y1000D01*
X510Y1000D02*
X516Y1000D01*
X523Y1000D02*
X531Y1000D01*
X538Y1000D02*
X544Y1000D01*
X560Y1000D02*
X566Y1000D01*
X588Y1000D02*
X594Y1000D01*
X610Y1000D02*
X616Y1000D01*
X637Y1000D02*
X644Y1000D01*
X710Y1000D02*
X716Y1000D01*
X760Y1000D02*
X766Y1000D01*
X787Y1000D02*
X793Y1000D01*
X817Y1000D02*
X823Y1000D01*
X860Y1000D02*
X866Y1000D01*
X887Y1000D02*
X893Y1000D01*
X1369Y1000D02*
X1376Y1000D01*
X0Y999D02*
X7Y999D01*
X78Y999D02*
X96Y999D01*
X283Y999D02*
X296Y999D01*
X510Y999D02*
X516Y999D01*
X524Y999D02*
X530Y999D01*
X538Y999D02*
X544Y999D01*
X560Y999D02*
X566Y999D01*
X588Y999D02*
X594Y999D01*
X610Y999D02*
X616Y999D01*
X637Y999D02*
X644Y999D01*
X710Y999D02*
X716Y999D01*
X760Y999D02*
X766Y999D01*
X787Y999D02*
X793Y999D01*
X817Y999D02*
X823Y999D01*
X860Y999D02*
X866Y999D01*
X887Y999D02*
X893Y999D01*
X1369Y999D02*
X1376Y999D01*
X0Y998D02*
X7Y998D01*
X75Y998D02*
X95Y998D01*
X283Y998D02*
X296Y998D01*
X510Y998D02*
X516Y998D01*
X524Y998D02*
X530Y998D01*
X538Y998D02*
X544Y998D01*
X560Y998D02*
X566Y998D01*
X588Y998D02*
X594Y998D01*
X610Y998D02*
X616Y998D01*
X637Y998D02*
X644Y998D01*
X710Y998D02*
X716Y998D01*
X760Y998D02*
X766Y998D01*
X787Y998D02*
X793Y998D01*
X817Y998D02*
X823Y998D01*
X860Y998D02*
X866Y998D01*
X887Y998D02*
X893Y998D01*
X1369Y998D02*
X1376Y998D01*
X0Y997D02*
X7Y997D01*
X71Y997D02*
X92Y997D01*
X283Y997D02*
X296Y997D01*
X510Y997D02*
X516Y997D01*
X524Y997D02*
X530Y997D01*
X538Y997D02*
X544Y997D01*
X560Y997D02*
X566Y997D01*
X588Y997D02*
X594Y997D01*
X610Y997D02*
X616Y997D01*
X637Y997D02*
X644Y997D01*
X710Y997D02*
X716Y997D01*
X760Y997D02*
X766Y997D01*
X787Y997D02*
X793Y997D01*
X817Y997D02*
X823Y997D01*
X860Y997D02*
X866Y997D01*
X887Y997D02*
X893Y997D01*
X1369Y997D02*
X1376Y997D01*
X0Y996D02*
X7Y996D01*
X68Y996D02*
X89Y996D01*
X283Y996D02*
X296Y996D01*
X510Y996D02*
X516Y996D01*
X524Y996D02*
X530Y996D01*
X538Y996D02*
X544Y996D01*
X560Y996D02*
X566Y996D01*
X588Y996D02*
X594Y996D01*
X610Y996D02*
X616Y996D01*
X637Y996D02*
X644Y996D01*
X710Y996D02*
X716Y996D01*
X760Y996D02*
X766Y996D01*
X787Y996D02*
X793Y996D01*
X817Y996D02*
X823Y996D01*
X860Y996D02*
X866Y996D01*
X887Y996D02*
X893Y996D01*
X1369Y996D02*
X1376Y996D01*
X0Y995D02*
X7Y995D01*
X64Y995D02*
X86Y995D01*
X283Y995D02*
X296Y995D01*
X510Y995D02*
X516Y995D01*
X524Y995D02*
X529Y995D01*
X538Y995D02*
X544Y995D01*
X560Y995D02*
X566Y995D01*
X587Y995D02*
X594Y995D01*
X610Y995D02*
X616Y995D01*
X637Y995D02*
X644Y995D01*
X710Y995D02*
X716Y995D01*
X760Y995D02*
X766Y995D01*
X787Y995D02*
X793Y995D01*
X817Y995D02*
X823Y995D01*
X860Y995D02*
X866Y995D01*
X887Y995D02*
X893Y995D01*
X1369Y995D02*
X1376Y995D01*
X0Y994D02*
X7Y994D01*
X61Y994D02*
X86Y994D01*
X283Y994D02*
X296Y994D01*
X510Y994D02*
X516Y994D01*
X525Y994D02*
X528Y994D01*
X538Y994D02*
X544Y994D01*
X560Y994D02*
X566Y994D01*
X587Y994D02*
X593Y994D01*
X610Y994D02*
X616Y994D01*
X637Y994D02*
X644Y994D01*
X710Y994D02*
X716Y994D01*
X760Y994D02*
X766Y994D01*
X787Y994D02*
X793Y994D01*
X817Y994D02*
X839Y994D01*
X860Y994D02*
X866Y994D01*
X887Y994D02*
X893Y994D01*
X1369Y994D02*
X1376Y994D01*
X0Y993D02*
X7Y993D01*
X58Y993D02*
X78Y993D01*
X81Y993D02*
X86Y993D01*
X283Y993D02*
X296Y993D01*
X510Y993D02*
X516Y993D01*
X538Y993D02*
X544Y993D01*
X560Y993D02*
X566Y993D01*
X587Y993D02*
X593Y993D01*
X610Y993D02*
X616Y993D01*
X637Y993D02*
X644Y993D01*
X710Y993D02*
X716Y993D01*
X760Y993D02*
X766Y993D01*
X787Y993D02*
X793Y993D01*
X817Y993D02*
X841Y993D01*
X860Y993D02*
X866Y993D01*
X887Y993D02*
X893Y993D01*
X1369Y993D02*
X1376Y993D01*
X0Y992D02*
X7Y992D01*
X54Y992D02*
X75Y992D01*
X81Y992D02*
X86Y992D01*
X283Y992D02*
X296Y992D01*
X510Y992D02*
X516Y992D01*
X538Y992D02*
X544Y992D01*
X560Y992D02*
X566Y992D01*
X586Y992D02*
X593Y992D01*
X610Y992D02*
X616Y992D01*
X637Y992D02*
X644Y992D01*
X710Y992D02*
X716Y992D01*
X760Y992D02*
X766Y992D01*
X787Y992D02*
X793Y992D01*
X817Y992D02*
X842Y992D01*
X860Y992D02*
X866Y992D01*
X887Y992D02*
X893Y992D01*
X1369Y992D02*
X1376Y992D01*
X0Y991D02*
X7Y991D01*
X51Y991D02*
X72Y991D01*
X81Y991D02*
X86Y991D01*
X283Y991D02*
X296Y991D01*
X510Y991D02*
X516Y991D01*
X538Y991D02*
X544Y991D01*
X560Y991D02*
X593Y991D01*
X610Y991D02*
X616Y991D01*
X637Y991D02*
X644Y991D01*
X710Y991D02*
X716Y991D01*
X760Y991D02*
X766Y991D01*
X787Y991D02*
X793Y991D01*
X817Y991D02*
X842Y991D01*
X860Y991D02*
X866Y991D01*
X887Y991D02*
X893Y991D01*
X1369Y991D02*
X1376Y991D01*
X0Y990D02*
X7Y990D01*
X50Y990D02*
X68Y990D01*
X81Y990D02*
X86Y990D01*
X283Y990D02*
X296Y990D01*
X510Y990D02*
X516Y990D01*
X538Y990D02*
X544Y990D01*
X560Y990D02*
X592Y990D01*
X610Y990D02*
X616Y990D01*
X637Y990D02*
X644Y990D01*
X710Y990D02*
X716Y990D01*
X760Y990D02*
X766Y990D01*
X787Y990D02*
X793Y990D01*
X817Y990D02*
X843Y990D01*
X860Y990D02*
X866Y990D01*
X887Y990D02*
X893Y990D01*
X1369Y990D02*
X1376Y990D01*
X0Y989D02*
X7Y989D01*
X50Y989D02*
X65Y989D01*
X81Y989D02*
X86Y989D01*
X283Y989D02*
X296Y989D01*
X510Y989D02*
X516Y989D01*
X538Y989D02*
X544Y989D01*
X560Y989D02*
X592Y989D01*
X610Y989D02*
X616Y989D01*
X637Y989D02*
X644Y989D01*
X710Y989D02*
X716Y989D01*
X760Y989D02*
X766Y989D01*
X787Y989D02*
X793Y989D01*
X817Y989D02*
X843Y989D01*
X860Y989D02*
X866Y989D01*
X887Y989D02*
X893Y989D01*
X1369Y989D02*
X1376Y989D01*
X0Y988D02*
X7Y988D01*
X50Y988D02*
X64Y988D01*
X81Y988D02*
X86Y988D01*
X283Y988D02*
X296Y988D01*
X510Y988D02*
X516Y988D01*
X538Y988D02*
X544Y988D01*
X560Y988D02*
X591Y988D01*
X610Y988D02*
X616Y988D01*
X637Y988D02*
X644Y988D01*
X710Y988D02*
X742Y988D01*
X760Y988D02*
X766Y988D01*
X787Y988D02*
X793Y988D01*
X817Y988D02*
X843Y988D01*
X860Y988D02*
X866Y988D01*
X887Y988D02*
X893Y988D01*
X1369Y988D02*
X1376Y988D01*
X0Y987D02*
X7Y987D01*
X50Y987D02*
X68Y987D01*
X81Y987D02*
X86Y987D01*
X283Y987D02*
X296Y987D01*
X510Y987D02*
X516Y987D01*
X538Y987D02*
X544Y987D01*
X560Y987D02*
X590Y987D01*
X610Y987D02*
X616Y987D01*
X637Y987D02*
X644Y987D01*
X710Y987D02*
X743Y987D01*
X760Y987D02*
X766Y987D01*
X787Y987D02*
X793Y987D01*
X837Y987D02*
X843Y987D01*
X860Y987D02*
X866Y987D01*
X887Y987D02*
X893Y987D01*
X1369Y987D02*
X1376Y987D01*
X0Y986D02*
X7Y986D01*
X51Y986D02*
X71Y986D01*
X81Y986D02*
X86Y986D01*
X283Y986D02*
X296Y986D01*
X510Y986D02*
X516Y986D01*
X538Y986D02*
X544Y986D01*
X560Y986D02*
X588Y986D01*
X610Y986D02*
X616Y986D01*
X637Y986D02*
X644Y986D01*
X710Y986D02*
X743Y986D01*
X760Y986D02*
X766Y986D01*
X787Y986D02*
X793Y986D01*
X837Y986D02*
X843Y986D01*
X860Y986D02*
X866Y986D01*
X887Y986D02*
X893Y986D01*
X1369Y986D02*
X1376Y986D01*
X0Y985D02*
X7Y985D01*
X54Y985D02*
X75Y985D01*
X81Y985D02*
X86Y985D01*
X283Y985D02*
X296Y985D01*
X510Y985D02*
X516Y985D01*
X538Y985D02*
X544Y985D01*
X560Y985D02*
X586Y985D01*
X610Y985D02*
X616Y985D01*
X637Y985D02*
X644Y985D01*
X710Y985D02*
X743Y985D01*
X760Y985D02*
X766Y985D01*
X787Y985D02*
X793Y985D01*
X837Y985D02*
X843Y985D01*
X860Y985D02*
X866Y985D01*
X887Y985D02*
X893Y985D01*
X1369Y985D02*
X1376Y985D01*
X0Y984D02*
X7Y984D01*
X57Y984D02*
X78Y984D01*
X81Y984D02*
X86Y984D01*
X283Y984D02*
X296Y984D01*
X510Y984D02*
X516Y984D01*
X538Y984D02*
X544Y984D01*
X560Y984D02*
X566Y984D01*
X610Y984D02*
X616Y984D01*
X637Y984D02*
X644Y984D01*
X710Y984D02*
X743Y984D01*
X760Y984D02*
X766Y984D01*
X787Y984D02*
X793Y984D01*
X837Y984D02*
X843Y984D01*
X860Y984D02*
X866Y984D01*
X887Y984D02*
X893Y984D01*
X1369Y984D02*
X1376Y984D01*
X0Y983D02*
X7Y983D01*
X61Y983D02*
X86Y983D01*
X283Y983D02*
X296Y983D01*
X510Y983D02*
X516Y983D01*
X538Y983D02*
X544Y983D01*
X560Y983D02*
X566Y983D01*
X610Y983D02*
X616Y983D01*
X637Y983D02*
X644Y983D01*
X710Y983D02*
X743Y983D01*
X760Y983D02*
X766Y983D01*
X787Y983D02*
X793Y983D01*
X837Y983D02*
X843Y983D01*
X860Y983D02*
X866Y983D01*
X887Y983D02*
X893Y983D01*
X1369Y983D02*
X1376Y983D01*
X0Y982D02*
X7Y982D01*
X64Y982D02*
X86Y982D01*
X283Y982D02*
X296Y982D01*
X510Y982D02*
X516Y982D01*
X538Y982D02*
X544Y982D01*
X560Y982D02*
X566Y982D01*
X610Y982D02*
X616Y982D01*
X637Y982D02*
X644Y982D01*
X710Y982D02*
X743Y982D01*
X760Y982D02*
X766Y982D01*
X787Y982D02*
X793Y982D01*
X837Y982D02*
X843Y982D01*
X860Y982D02*
X866Y982D01*
X887Y982D02*
X893Y982D01*
X1369Y982D02*
X1376Y982D01*
X0Y981D02*
X7Y981D01*
X67Y981D02*
X88Y981D01*
X283Y981D02*
X296Y981D01*
X510Y981D02*
X516Y981D01*
X538Y981D02*
X544Y981D01*
X560Y981D02*
X566Y981D01*
X610Y981D02*
X616Y981D01*
X637Y981D02*
X644Y981D01*
X710Y981D02*
X716Y981D01*
X737Y981D02*
X743Y981D01*
X760Y981D02*
X766Y981D01*
X787Y981D02*
X793Y981D01*
X837Y981D02*
X843Y981D01*
X860Y981D02*
X866Y981D01*
X887Y981D02*
X893Y981D01*
X1369Y981D02*
X1376Y981D01*
X0Y980D02*
X7Y980D01*
X71Y980D02*
X92Y980D01*
X283Y980D02*
X296Y980D01*
X510Y980D02*
X516Y980D01*
X538Y980D02*
X544Y980D01*
X560Y980D02*
X566Y980D01*
X610Y980D02*
X616Y980D01*
X637Y980D02*
X644Y980D01*
X710Y980D02*
X716Y980D01*
X737Y980D02*
X743Y980D01*
X760Y980D02*
X766Y980D01*
X787Y980D02*
X793Y980D01*
X837Y980D02*
X843Y980D01*
X860Y980D02*
X866Y980D01*
X887Y980D02*
X893Y980D01*
X1369Y980D02*
X1376Y980D01*
X0Y979D02*
X7Y979D01*
X74Y979D02*
X95Y979D01*
X283Y979D02*
X296Y979D01*
X510Y979D02*
X516Y979D01*
X538Y979D02*
X544Y979D01*
X560Y979D02*
X566Y979D01*
X610Y979D02*
X616Y979D01*
X637Y979D02*
X644Y979D01*
X710Y979D02*
X716Y979D01*
X737Y979D02*
X743Y979D01*
X760Y979D02*
X766Y979D01*
X787Y979D02*
X793Y979D01*
X837Y979D02*
X843Y979D01*
X860Y979D02*
X866Y979D01*
X887Y979D02*
X893Y979D01*
X1369Y979D02*
X1376Y979D01*
X0Y978D02*
X7Y978D01*
X78Y978D02*
X96Y978D01*
X283Y978D02*
X296Y978D01*
X510Y978D02*
X516Y978D01*
X538Y978D02*
X544Y978D01*
X560Y978D02*
X566Y978D01*
X610Y978D02*
X616Y978D01*
X637Y978D02*
X644Y978D01*
X710Y978D02*
X716Y978D01*
X737Y978D02*
X743Y978D01*
X760Y978D02*
X766Y978D01*
X787Y978D02*
X793Y978D01*
X837Y978D02*
X843Y978D01*
X860Y978D02*
X866Y978D01*
X887Y978D02*
X893Y978D01*
X1369Y978D02*
X1376Y978D01*
X0Y977D02*
X7Y977D01*
X81Y977D02*
X96Y977D01*
X283Y977D02*
X296Y977D01*
X510Y977D02*
X516Y977D01*
X538Y977D02*
X544Y977D01*
X560Y977D02*
X566Y977D01*
X610Y977D02*
X616Y977D01*
X637Y977D02*
X644Y977D01*
X710Y977D02*
X716Y977D01*
X737Y977D02*
X743Y977D01*
X760Y977D02*
X766Y977D01*
X787Y977D02*
X793Y977D01*
X837Y977D02*
X843Y977D01*
X860Y977D02*
X866Y977D01*
X887Y977D02*
X893Y977D01*
X1369Y977D02*
X1376Y977D01*
X0Y976D02*
X7Y976D01*
X84Y976D02*
X96Y976D01*
X283Y976D02*
X296Y976D01*
X510Y976D02*
X516Y976D01*
X538Y976D02*
X544Y976D01*
X560Y976D02*
X566Y976D01*
X610Y976D02*
X616Y976D01*
X637Y976D02*
X644Y976D01*
X710Y976D02*
X716Y976D01*
X737Y976D02*
X743Y976D01*
X760Y976D02*
X766Y976D01*
X787Y976D02*
X793Y976D01*
X837Y976D02*
X843Y976D01*
X860Y976D02*
X866Y976D01*
X887Y976D02*
X893Y976D01*
X1369Y976D02*
X1376Y976D01*
X0Y975D02*
X7Y975D01*
X88Y975D02*
X96Y975D01*
X138Y975D02*
X139Y975D01*
X162Y975D02*
X175Y975D01*
X283Y975D02*
X296Y975D01*
X510Y975D02*
X516Y975D01*
X538Y975D02*
X544Y975D01*
X560Y975D02*
X566Y975D01*
X610Y975D02*
X616Y975D01*
X637Y975D02*
X644Y975D01*
X710Y975D02*
X716Y975D01*
X737Y975D02*
X743Y975D01*
X760Y975D02*
X766Y975D01*
X787Y975D02*
X793Y975D01*
X837Y975D02*
X843Y975D01*
X860Y975D02*
X866Y975D01*
X887Y975D02*
X893Y975D01*
X1369Y975D02*
X1376Y975D01*
X0Y974D02*
X7Y974D01*
X91Y974D02*
X95Y974D01*
X136Y974D02*
X140Y974D01*
X162Y974D02*
X177Y974D01*
X283Y974D02*
X296Y974D01*
X510Y974D02*
X516Y974D01*
X538Y974D02*
X544Y974D01*
X560Y974D02*
X566Y974D01*
X610Y974D02*
X616Y974D01*
X637Y974D02*
X643Y974D01*
X710Y974D02*
X716Y974D01*
X737Y974D02*
X743Y974D01*
X760Y974D02*
X766Y974D01*
X787Y974D02*
X793Y974D01*
X837Y974D02*
X843Y974D01*
X860Y974D02*
X866Y974D01*
X887Y974D02*
X893Y974D01*
X1369Y974D02*
X1376Y974D01*
X0Y973D02*
X7Y973D01*
X136Y973D02*
X141Y973D01*
X162Y973D02*
X179Y973D01*
X283Y973D02*
X296Y973D01*
X510Y973D02*
X516Y973D01*
X538Y973D02*
X544Y973D01*
X560Y973D02*
X566Y973D01*
X610Y973D02*
X616Y973D01*
X637Y973D02*
X643Y973D01*
X710Y973D02*
X716Y973D01*
X737Y973D02*
X743Y973D01*
X760Y973D02*
X766Y973D01*
X787Y973D02*
X793Y973D01*
X811Y973D02*
X815Y973D01*
X837Y973D02*
X843Y973D01*
X860Y973D02*
X866Y973D01*
X887Y973D02*
X893Y973D01*
X1369Y973D02*
X1376Y973D01*
X0Y972D02*
X7Y972D01*
X136Y972D02*
X141Y972D01*
X162Y972D02*
X180Y972D01*
X283Y972D02*
X296Y972D01*
X510Y972D02*
X516Y972D01*
X538Y972D02*
X544Y972D01*
X560Y972D02*
X566Y972D01*
X610Y972D02*
X617Y972D01*
X636Y972D02*
X643Y972D01*
X710Y972D02*
X716Y972D01*
X737Y972D02*
X743Y972D01*
X760Y972D02*
X766Y972D01*
X787Y972D02*
X793Y972D01*
X810Y972D02*
X817Y972D01*
X837Y972D02*
X843Y972D01*
X860Y972D02*
X866Y972D01*
X887Y972D02*
X893Y972D01*
X1369Y972D02*
X1376Y972D01*
X0Y971D02*
X7Y971D01*
X136Y971D02*
X141Y971D01*
X162Y971D02*
X181Y971D01*
X283Y971D02*
X296Y971D01*
X510Y971D02*
X516Y971D01*
X538Y971D02*
X544Y971D01*
X560Y971D02*
X566Y971D01*
X611Y971D02*
X619Y971D01*
X634Y971D02*
X643Y971D01*
X710Y971D02*
X716Y971D01*
X737Y971D02*
X743Y971D01*
X760Y971D02*
X766Y971D01*
X787Y971D02*
X793Y971D01*
X810Y971D02*
X820Y971D01*
X837Y971D02*
X843Y971D01*
X860Y971D02*
X866Y971D01*
X887Y971D02*
X893Y971D01*
X1369Y971D02*
X1376Y971D01*
X0Y970D02*
X7Y970D01*
X136Y970D02*
X141Y970D01*
X162Y970D02*
X181Y970D01*
X283Y970D02*
X296Y970D01*
X510Y970D02*
X516Y970D01*
X538Y970D02*
X544Y970D01*
X560Y970D02*
X566Y970D01*
X611Y970D02*
X643Y970D01*
X710Y970D02*
X743Y970D01*
X760Y970D02*
X793Y970D01*
X810Y970D02*
X843Y970D01*
X860Y970D02*
X893Y970D01*
X1369Y970D02*
X1376Y970D01*
X0Y969D02*
X7Y969D01*
X136Y969D02*
X141Y969D01*
X162Y969D02*
X167Y969D01*
X174Y969D02*
X182Y969D01*
X283Y969D02*
X296Y969D01*
X510Y969D02*
X516Y969D01*
X538Y969D02*
X544Y969D01*
X560Y969D02*
X566Y969D01*
X611Y969D02*
X642Y969D01*
X710Y969D02*
X743Y969D01*
X760Y969D02*
X793Y969D01*
X810Y969D02*
X843Y969D01*
X860Y969D02*
X893Y969D01*
X1369Y969D02*
X1376Y969D01*
X0Y968D02*
X7Y968D01*
X136Y968D02*
X141Y968D01*
X162Y968D02*
X167Y968D01*
X176Y968D02*
X182Y968D01*
X283Y968D02*
X296Y968D01*
X510Y968D02*
X516Y968D01*
X538Y968D02*
X544Y968D01*
X560Y968D02*
X566Y968D01*
X612Y968D02*
X641Y968D01*
X710Y968D02*
X743Y968D01*
X760Y968D02*
X793Y968D01*
X811Y968D02*
X843Y968D01*
X860Y968D02*
X893Y968D01*
X1369Y968D02*
X1376Y968D01*
X0Y967D02*
X7Y967D01*
X136Y967D02*
X141Y967D01*
X162Y967D02*
X167Y967D01*
X177Y967D02*
X182Y967D01*
X283Y967D02*
X296Y967D01*
X510Y967D02*
X516Y967D01*
X538Y967D02*
X543Y967D01*
X560Y967D02*
X566Y967D01*
X613Y967D02*
X640Y967D01*
X710Y967D02*
X743Y967D01*
X761Y967D02*
X792Y967D01*
X812Y967D02*
X842Y967D01*
X861Y967D02*
X892Y967D01*
X1369Y967D02*
X1376Y967D01*
X0Y966D02*
X7Y966D01*
X136Y966D02*
X141Y966D01*
X162Y966D02*
X167Y966D01*
X177Y966D02*
X182Y966D01*
X283Y966D02*
X296Y966D01*
X510Y966D02*
X516Y966D01*
X538Y966D02*
X543Y966D01*
X560Y966D02*
X566Y966D01*
X614Y966D02*
X639Y966D01*
X710Y966D02*
X743Y966D01*
X762Y966D02*
X791Y966D01*
X814Y966D02*
X841Y966D01*
X862Y966D02*
X891Y966D01*
X1369Y966D02*
X1376Y966D01*
X0Y965D02*
X7Y965D01*
X136Y965D02*
X141Y965D01*
X162Y965D02*
X167Y965D01*
X177Y965D02*
X182Y965D01*
X283Y965D02*
X296Y965D01*
X511Y965D02*
X515Y965D01*
X539Y965D02*
X543Y965D01*
X561Y965D02*
X565Y965D01*
X616Y965D02*
X638Y965D01*
X711Y965D02*
X742Y965D01*
X763Y965D02*
X790Y965D01*
X816Y965D02*
X840Y965D01*
X863Y965D02*
X890Y965D01*
X1369Y965D02*
X1376Y965D01*
X0Y964D02*
X7Y964D01*
X136Y964D02*
X141Y964D01*
X162Y964D02*
X167Y964D01*
X177Y964D02*
X182Y964D01*
X283Y964D02*
X296Y964D01*
X513Y964D02*
X513Y964D01*
X540Y964D02*
X541Y964D01*
X563Y964D02*
X563Y964D01*
X619Y964D02*
X634Y964D01*
X713Y964D02*
X740Y964D01*
X766Y964D02*
X788Y964D01*
X821Y964D02*
X837Y964D01*
X866Y964D02*
X887Y964D01*
X1369Y964D02*
X1376Y964D01*
X0Y963D02*
X7Y963D01*
X136Y963D02*
X141Y963D01*
X162Y963D02*
X167Y963D01*
X177Y963D02*
X182Y963D01*
X283Y963D02*
X296Y963D01*
X1369Y963D02*
X1376Y963D01*
X0Y962D02*
X7Y962D01*
X136Y962D02*
X141Y962D01*
X162Y962D02*
X167Y962D01*
X177Y962D02*
X182Y962D01*
X283Y962D02*
X296Y962D01*
X1369Y962D02*
X1376Y962D01*
X0Y961D02*
X7Y961D01*
X136Y961D02*
X142Y961D01*
X162Y961D02*
X166Y961D01*
X177Y961D02*
X182Y961D01*
X283Y961D02*
X296Y961D01*
X1369Y961D02*
X1376Y961D01*
X0Y960D02*
X7Y960D01*
X136Y960D02*
X143Y960D01*
X177Y960D02*
X182Y960D01*
X283Y960D02*
X296Y960D01*
X1369Y960D02*
X1376Y960D01*
X0Y959D02*
X7Y959D01*
X50Y959D02*
X95Y959D01*
X137Y959D02*
X144Y959D01*
X177Y959D02*
X182Y959D01*
X283Y959D02*
X296Y959D01*
X1369Y959D02*
X1376Y959D01*
X0Y958D02*
X7Y958D01*
X50Y958D02*
X96Y958D01*
X137Y958D02*
X145Y958D01*
X177Y958D02*
X182Y958D01*
X283Y958D02*
X296Y958D01*
X1369Y958D02*
X1376Y958D01*
X0Y957D02*
X7Y957D01*
X50Y957D02*
X96Y957D01*
X138Y957D02*
X147Y957D01*
X177Y957D02*
X182Y957D01*
X283Y957D02*
X296Y957D01*
X1369Y957D02*
X1376Y957D01*
X0Y956D02*
X7Y956D01*
X50Y956D02*
X96Y956D01*
X139Y956D02*
X148Y956D01*
X177Y956D02*
X182Y956D01*
X283Y956D02*
X296Y956D01*
X1369Y956D02*
X1376Y956D01*
X0Y955D02*
X7Y955D01*
X50Y955D02*
X96Y955D01*
X140Y955D02*
X149Y955D01*
X177Y955D02*
X182Y955D01*
X283Y955D02*
X296Y955D01*
X1369Y955D02*
X1376Y955D01*
X0Y954D02*
X7Y954D01*
X50Y954D02*
X95Y954D01*
X141Y954D02*
X150Y954D01*
X177Y954D02*
X182Y954D01*
X283Y954D02*
X296Y954D01*
X1369Y954D02*
X1376Y954D01*
X0Y953D02*
X7Y953D01*
X50Y953D02*
X58Y953D01*
X143Y953D02*
X152Y953D01*
X177Y953D02*
X182Y953D01*
X283Y953D02*
X296Y953D01*
X1369Y953D02*
X1376Y953D01*
X0Y952D02*
X7Y952D01*
X50Y952D02*
X60Y952D01*
X144Y952D02*
X153Y952D01*
X176Y952D02*
X182Y952D01*
X283Y952D02*
X296Y952D01*
X1369Y952D02*
X1376Y952D01*
X0Y951D02*
X7Y951D01*
X51Y951D02*
X61Y951D01*
X145Y951D02*
X157Y951D01*
X174Y951D02*
X182Y951D01*
X283Y951D02*
X296Y951D01*
X1369Y951D02*
X1376Y951D01*
X0Y950D02*
X7Y950D01*
X53Y950D02*
X62Y950D01*
X147Y950D02*
X181Y950D01*
X283Y950D02*
X296Y950D01*
X1369Y950D02*
X1376Y950D01*
X0Y949D02*
X7Y949D01*
X54Y949D02*
X64Y949D01*
X148Y949D02*
X181Y949D01*
X283Y949D02*
X296Y949D01*
X1369Y949D02*
X1376Y949D01*
X0Y948D02*
X7Y948D01*
X56Y948D02*
X65Y948D01*
X149Y948D02*
X180Y948D01*
X283Y948D02*
X296Y948D01*
X1369Y948D02*
X1376Y948D01*
X0Y947D02*
X7Y947D01*
X57Y947D02*
X69Y947D01*
X151Y947D02*
X179Y947D01*
X283Y947D02*
X296Y947D01*
X1369Y947D02*
X1376Y947D01*
X0Y946D02*
X7Y946D01*
X58Y946D02*
X70Y946D01*
X152Y946D02*
X178Y946D01*
X283Y946D02*
X296Y946D01*
X1369Y946D02*
X1376Y946D01*
X0Y945D02*
X7Y945D01*
X60Y945D02*
X71Y945D01*
X155Y945D02*
X175Y945D01*
X283Y945D02*
X296Y945D01*
X1369Y945D02*
X1376Y945D01*
X0Y944D02*
X7Y944D01*
X60Y944D02*
X70Y944D01*
X283Y944D02*
X296Y944D01*
X1369Y944D02*
X1376Y944D01*
X0Y943D02*
X7Y943D01*
X58Y943D02*
X70Y943D01*
X283Y943D02*
X296Y943D01*
X1369Y943D02*
X1376Y943D01*
X0Y942D02*
X7Y942D01*
X57Y942D02*
X69Y942D01*
X283Y942D02*
X296Y942D01*
X1369Y942D02*
X1376Y942D01*
X0Y941D02*
X7Y941D01*
X55Y941D02*
X65Y941D01*
X283Y941D02*
X296Y941D01*
X1369Y941D02*
X1376Y941D01*
X0Y940D02*
X7Y940D01*
X54Y940D02*
X64Y940D01*
X283Y940D02*
X296Y940D01*
X1369Y940D02*
X1376Y940D01*
X0Y939D02*
X7Y939D01*
X53Y939D02*
X62Y939D01*
X283Y939D02*
X296Y939D01*
X1369Y939D02*
X1376Y939D01*
X0Y938D02*
X7Y938D01*
X51Y938D02*
X61Y938D01*
X283Y938D02*
X296Y938D01*
X1369Y938D02*
X1376Y938D01*
X0Y937D02*
X7Y937D01*
X50Y937D02*
X60Y937D01*
X283Y937D02*
X296Y937D01*
X1369Y937D02*
X1376Y937D01*
X0Y936D02*
X7Y936D01*
X50Y936D02*
X58Y936D01*
X283Y936D02*
X296Y936D01*
X1369Y936D02*
X1376Y936D01*
X0Y935D02*
X7Y935D01*
X50Y935D02*
X95Y935D01*
X283Y935D02*
X296Y935D01*
X1369Y935D02*
X1376Y935D01*
X0Y934D02*
X7Y934D01*
X50Y934D02*
X96Y934D01*
X283Y934D02*
X296Y934D01*
X1369Y934D02*
X1376Y934D01*
X0Y933D02*
X7Y933D01*
X50Y933D02*
X96Y933D01*
X283Y933D02*
X296Y933D01*
X1369Y933D02*
X1376Y933D01*
X0Y932D02*
X7Y932D01*
X50Y932D02*
X96Y932D01*
X283Y932D02*
X296Y932D01*
X1369Y932D02*
X1376Y932D01*
X0Y931D02*
X7Y931D01*
X50Y931D02*
X96Y931D01*
X138Y931D02*
X139Y931D01*
X179Y931D02*
X180Y931D01*
X283Y931D02*
X296Y931D01*
X1369Y931D02*
X1376Y931D01*
X0Y930D02*
X7Y930D01*
X50Y930D02*
X95Y930D01*
X136Y930D02*
X140Y930D01*
X178Y930D02*
X182Y930D01*
X283Y930D02*
X296Y930D01*
X1369Y930D02*
X1376Y930D01*
X0Y929D02*
X7Y929D01*
X136Y929D02*
X141Y929D01*
X177Y929D02*
X182Y929D01*
X283Y929D02*
X296Y929D01*
X1369Y929D02*
X1376Y929D01*
X0Y928D02*
X7Y928D01*
X136Y928D02*
X141Y928D01*
X177Y928D02*
X182Y928D01*
X283Y928D02*
X296Y928D01*
X1369Y928D02*
X1376Y928D01*
X0Y927D02*
X7Y927D01*
X136Y927D02*
X141Y927D01*
X177Y927D02*
X182Y927D01*
X283Y927D02*
X296Y927D01*
X1369Y927D02*
X1376Y927D01*
X0Y926D02*
X7Y926D01*
X136Y926D02*
X141Y926D01*
X177Y926D02*
X182Y926D01*
X283Y926D02*
X296Y926D01*
X1369Y926D02*
X1376Y926D01*
X0Y925D02*
X7Y925D01*
X136Y925D02*
X141Y925D01*
X177Y925D02*
X182Y925D01*
X283Y925D02*
X296Y925D01*
X1369Y925D02*
X1376Y925D01*
X0Y924D02*
X7Y924D01*
X136Y924D02*
X141Y924D01*
X177Y924D02*
X182Y924D01*
X283Y924D02*
X296Y924D01*
X1369Y924D02*
X1376Y924D01*
X0Y923D02*
X7Y923D01*
X136Y923D02*
X141Y923D01*
X177Y923D02*
X182Y923D01*
X283Y923D02*
X296Y923D01*
X1369Y923D02*
X1376Y923D01*
X0Y922D02*
X7Y922D01*
X136Y922D02*
X141Y922D01*
X177Y922D02*
X182Y922D01*
X283Y922D02*
X296Y922D01*
X1369Y922D02*
X1376Y922D01*
X0Y921D02*
X7Y921D01*
X136Y921D02*
X141Y921D01*
X177Y921D02*
X182Y921D01*
X283Y921D02*
X296Y921D01*
X1369Y921D02*
X1376Y921D01*
X0Y920D02*
X7Y920D01*
X136Y920D02*
X141Y920D01*
X177Y920D02*
X182Y920D01*
X283Y920D02*
X296Y920D01*
X1369Y920D02*
X1376Y920D01*
X0Y919D02*
X7Y919D01*
X136Y919D02*
X141Y919D01*
X159Y919D02*
X159Y919D01*
X177Y919D02*
X182Y919D01*
X283Y919D02*
X296Y919D01*
X1369Y919D02*
X1376Y919D01*
X0Y918D02*
X7Y918D01*
X136Y918D02*
X141Y918D01*
X157Y918D02*
X161Y918D01*
X177Y918D02*
X182Y918D01*
X283Y918D02*
X296Y918D01*
X1369Y918D02*
X1376Y918D01*
X0Y917D02*
X7Y917D01*
X136Y917D02*
X141Y917D01*
X157Y917D02*
X161Y917D01*
X177Y917D02*
X182Y917D01*
X283Y917D02*
X296Y917D01*
X1369Y917D02*
X1376Y917D01*
X0Y916D02*
X7Y916D01*
X136Y916D02*
X141Y916D01*
X156Y916D02*
X162Y916D01*
X177Y916D02*
X182Y916D01*
X283Y916D02*
X296Y916D01*
X1369Y916D02*
X1376Y916D01*
X0Y915D02*
X7Y915D01*
X72Y915D02*
X77Y915D01*
X136Y915D02*
X141Y915D01*
X156Y915D02*
X162Y915D01*
X177Y915D02*
X182Y915D01*
X283Y915D02*
X296Y915D01*
X1369Y915D02*
X1376Y915D01*
X0Y914D02*
X7Y914D01*
X71Y914D02*
X78Y914D01*
X136Y914D02*
X141Y914D01*
X156Y914D02*
X162Y914D01*
X177Y914D02*
X182Y914D01*
X283Y914D02*
X296Y914D01*
X1369Y914D02*
X1376Y914D01*
X0Y913D02*
X7Y913D01*
X71Y913D02*
X78Y913D01*
X136Y913D02*
X141Y913D01*
X156Y913D02*
X162Y913D01*
X177Y913D02*
X182Y913D01*
X283Y913D02*
X296Y913D01*
X1369Y913D02*
X1376Y913D01*
X0Y912D02*
X7Y912D01*
X71Y912D02*
X78Y912D01*
X136Y912D02*
X141Y912D01*
X156Y912D02*
X162Y912D01*
X177Y912D02*
X182Y912D01*
X283Y912D02*
X296Y912D01*
X1369Y912D02*
X1376Y912D01*
X0Y911D02*
X7Y911D01*
X71Y911D02*
X78Y911D01*
X136Y911D02*
X141Y911D01*
X156Y911D02*
X162Y911D01*
X177Y911D02*
X182Y911D01*
X283Y911D02*
X296Y911D01*
X1369Y911D02*
X1376Y911D01*
X0Y910D02*
X7Y910D01*
X71Y910D02*
X78Y910D01*
X136Y910D02*
X141Y910D01*
X156Y910D02*
X162Y910D01*
X177Y910D02*
X182Y910D01*
X283Y910D02*
X296Y910D01*
X1369Y910D02*
X1376Y910D01*
X0Y909D02*
X7Y909D01*
X71Y909D02*
X78Y909D01*
X136Y909D02*
X141Y909D01*
X156Y909D02*
X162Y909D01*
X177Y909D02*
X182Y909D01*
X283Y909D02*
X296Y909D01*
X1369Y909D02*
X1376Y909D01*
X0Y908D02*
X7Y908D01*
X71Y908D02*
X78Y908D01*
X136Y908D02*
X141Y908D01*
X156Y908D02*
X162Y908D01*
X177Y908D02*
X182Y908D01*
X283Y908D02*
X296Y908D01*
X1369Y908D02*
X1376Y908D01*
X0Y907D02*
X7Y907D01*
X71Y907D02*
X78Y907D01*
X136Y907D02*
X182Y907D01*
X283Y907D02*
X296Y907D01*
X1369Y907D02*
X1376Y907D01*
X0Y906D02*
X7Y906D01*
X71Y906D02*
X78Y906D01*
X136Y906D02*
X182Y906D01*
X283Y906D02*
X296Y906D01*
X1369Y906D02*
X1376Y906D01*
X0Y905D02*
X7Y905D01*
X71Y905D02*
X78Y905D01*
X136Y905D02*
X182Y905D01*
X283Y905D02*
X296Y905D01*
X1369Y905D02*
X1376Y905D01*
X0Y904D02*
X7Y904D01*
X71Y904D02*
X78Y904D01*
X136Y904D02*
X182Y904D01*
X283Y904D02*
X296Y904D01*
X1369Y904D02*
X1376Y904D01*
X0Y903D02*
X7Y903D01*
X71Y903D02*
X78Y903D01*
X136Y903D02*
X182Y903D01*
X283Y903D02*
X296Y903D01*
X1369Y903D02*
X1376Y903D01*
X0Y902D02*
X7Y902D01*
X71Y902D02*
X78Y902D01*
X136Y902D02*
X182Y902D01*
X283Y902D02*
X296Y902D01*
X1369Y902D02*
X1376Y902D01*
X0Y901D02*
X7Y901D01*
X71Y901D02*
X78Y901D01*
X136Y901D02*
X182Y901D01*
X283Y901D02*
X296Y901D01*
X1369Y901D02*
X1376Y901D01*
X0Y900D02*
X7Y900D01*
X71Y900D02*
X78Y900D01*
X283Y900D02*
X296Y900D01*
X1369Y900D02*
X1376Y900D01*
X0Y899D02*
X7Y899D01*
X71Y899D02*
X78Y899D01*
X283Y899D02*
X296Y899D01*
X1369Y899D02*
X1376Y899D01*
X0Y898D02*
X7Y898D01*
X71Y898D02*
X78Y898D01*
X283Y898D02*
X296Y898D01*
X1369Y898D02*
X1376Y898D01*
X0Y897D02*
X7Y897D01*
X71Y897D02*
X78Y897D01*
X283Y897D02*
X296Y897D01*
X1369Y897D02*
X1376Y897D01*
X0Y896D02*
X7Y896D01*
X71Y896D02*
X78Y896D01*
X283Y896D02*
X296Y896D01*
X1369Y896D02*
X1376Y896D01*
X0Y895D02*
X7Y895D01*
X71Y895D02*
X78Y895D01*
X283Y895D02*
X296Y895D01*
X1369Y895D02*
X1376Y895D01*
X0Y894D02*
X7Y894D01*
X71Y894D02*
X78Y894D01*
X283Y894D02*
X296Y894D01*
X1369Y894D02*
X1376Y894D01*
X0Y893D02*
X7Y893D01*
X71Y893D02*
X78Y893D01*
X283Y893D02*
X296Y893D01*
X1369Y893D02*
X1376Y893D01*
X0Y892D02*
X7Y892D01*
X71Y892D02*
X78Y892D01*
X283Y892D02*
X296Y892D01*
X1369Y892D02*
X1376Y892D01*
X0Y891D02*
X7Y891D01*
X71Y891D02*
X78Y891D01*
X283Y891D02*
X296Y891D01*
X1369Y891D02*
X1376Y891D01*
X0Y890D02*
X7Y890D01*
X71Y890D02*
X78Y890D01*
X283Y890D02*
X296Y890D01*
X1369Y890D02*
X1376Y890D01*
X0Y889D02*
X7Y889D01*
X71Y889D02*
X78Y889D01*
X283Y889D02*
X296Y889D01*
X1369Y889D02*
X1376Y889D01*
X0Y888D02*
X7Y888D01*
X71Y888D02*
X78Y888D01*
X283Y888D02*
X296Y888D01*
X1369Y888D02*
X1376Y888D01*
X0Y887D02*
X7Y887D01*
X71Y887D02*
X78Y887D01*
X137Y887D02*
X182Y887D01*
X283Y887D02*
X296Y887D01*
X1369Y887D02*
X1376Y887D01*
X0Y886D02*
X7Y886D01*
X72Y886D02*
X77Y886D01*
X136Y886D02*
X182Y886D01*
X283Y886D02*
X296Y886D01*
X1369Y886D02*
X1376Y886D01*
X0Y885D02*
X7Y885D01*
X136Y885D02*
X182Y885D01*
X283Y885D02*
X296Y885D01*
X1369Y885D02*
X1376Y885D01*
X0Y884D02*
X7Y884D01*
X136Y884D02*
X182Y884D01*
X283Y884D02*
X296Y884D01*
X1369Y884D02*
X1376Y884D01*
X0Y883D02*
X7Y883D01*
X136Y883D02*
X182Y883D01*
X283Y883D02*
X296Y883D01*
X1369Y883D02*
X1376Y883D01*
X0Y882D02*
X7Y882D01*
X137Y882D02*
X182Y882D01*
X283Y882D02*
X296Y882D01*
X1369Y882D02*
X1376Y882D01*
X0Y881D02*
X7Y881D01*
X171Y881D02*
X182Y881D01*
X283Y881D02*
X296Y881D01*
X1369Y881D02*
X1376Y881D01*
X0Y880D02*
X7Y880D01*
X170Y880D02*
X182Y880D01*
X283Y880D02*
X296Y880D01*
X1369Y880D02*
X1376Y880D01*
X0Y879D02*
X7Y879D01*
X167Y879D02*
X182Y879D01*
X283Y879D02*
X296Y879D01*
X1369Y879D02*
X1376Y879D01*
X0Y878D02*
X7Y878D01*
X165Y878D02*
X180Y878D01*
X283Y878D02*
X296Y878D01*
X1369Y878D02*
X1376Y878D01*
X0Y877D02*
X7Y877D01*
X163Y877D02*
X177Y877D01*
X283Y877D02*
X296Y877D01*
X1369Y877D02*
X1376Y877D01*
X0Y876D02*
X7Y876D01*
X161Y876D02*
X175Y876D01*
X283Y876D02*
X296Y876D01*
X1369Y876D02*
X1376Y876D01*
X0Y875D02*
X7Y875D01*
X158Y875D02*
X173Y875D01*
X283Y875D02*
X296Y875D01*
X1369Y875D02*
X1376Y875D01*
X0Y874D02*
X7Y874D01*
X156Y874D02*
X170Y874D01*
X283Y874D02*
X296Y874D01*
X1369Y874D02*
X1376Y874D01*
X0Y873D02*
X7Y873D01*
X154Y873D02*
X168Y873D01*
X283Y873D02*
X296Y873D01*
X1369Y873D02*
X1376Y873D01*
X0Y872D02*
X7Y872D01*
X151Y872D02*
X166Y872D01*
X283Y872D02*
X296Y872D01*
X1369Y872D02*
X1376Y872D01*
X0Y871D02*
X7Y871D01*
X55Y871D02*
X73Y871D01*
X149Y871D02*
X164Y871D01*
X283Y871D02*
X296Y871D01*
X1369Y871D02*
X1376Y871D01*
X0Y870D02*
X7Y870D01*
X54Y870D02*
X75Y870D01*
X147Y870D02*
X161Y870D01*
X283Y870D02*
X296Y870D01*
X1369Y870D02*
X1376Y870D01*
X0Y869D02*
X7Y869D01*
X52Y869D02*
X76Y869D01*
X145Y869D02*
X159Y869D01*
X283Y869D02*
X296Y869D01*
X1369Y869D02*
X1376Y869D01*
X0Y868D02*
X7Y868D01*
X52Y868D02*
X77Y868D01*
X142Y868D02*
X157Y868D01*
X283Y868D02*
X296Y868D01*
X1369Y868D02*
X1376Y868D01*
X0Y867D02*
X7Y867D01*
X51Y867D02*
X77Y867D01*
X140Y867D02*
X154Y867D01*
X283Y867D02*
X296Y867D01*
X1369Y867D02*
X1376Y867D01*
X0Y866D02*
X7Y866D01*
X51Y866D02*
X78Y866D01*
X138Y866D02*
X152Y866D01*
X283Y866D02*
X296Y866D01*
X1369Y866D02*
X1376Y866D01*
X0Y865D02*
X7Y865D01*
X50Y865D02*
X56Y865D01*
X72Y865D02*
X78Y865D01*
X136Y865D02*
X150Y865D01*
X283Y865D02*
X296Y865D01*
X1369Y865D02*
X1376Y865D01*
X0Y864D02*
X7Y864D01*
X50Y864D02*
X55Y864D01*
X73Y864D02*
X78Y864D01*
X136Y864D02*
X148Y864D01*
X283Y864D02*
X296Y864D01*
X1369Y864D02*
X1376Y864D01*
X0Y863D02*
X7Y863D01*
X50Y863D02*
X55Y863D01*
X73Y863D02*
X78Y863D01*
X136Y863D02*
X180Y863D01*
X283Y863D02*
X296Y863D01*
X1369Y863D02*
X1376Y863D01*
X0Y862D02*
X7Y862D01*
X50Y862D02*
X55Y862D01*
X73Y862D02*
X78Y862D01*
X136Y862D02*
X182Y862D01*
X283Y862D02*
X296Y862D01*
X1369Y862D02*
X1376Y862D01*
X0Y861D02*
X7Y861D01*
X50Y861D02*
X55Y861D01*
X73Y861D02*
X78Y861D01*
X136Y861D02*
X182Y861D01*
X283Y861D02*
X296Y861D01*
X1369Y861D02*
X1376Y861D01*
X0Y860D02*
X7Y860D01*
X50Y860D02*
X55Y860D01*
X73Y860D02*
X78Y860D01*
X136Y860D02*
X182Y860D01*
X283Y860D02*
X296Y860D01*
X1369Y860D02*
X1376Y860D01*
X0Y859D02*
X7Y859D01*
X50Y859D02*
X55Y859D01*
X73Y859D02*
X78Y859D01*
X136Y859D02*
X182Y859D01*
X283Y859D02*
X296Y859D01*
X1369Y859D02*
X1376Y859D01*
X0Y858D02*
X7Y858D01*
X50Y858D02*
X55Y858D01*
X73Y858D02*
X78Y858D01*
X136Y858D02*
X181Y858D01*
X283Y858D02*
X296Y858D01*
X1369Y858D02*
X1376Y858D01*
X0Y857D02*
X7Y857D01*
X50Y857D02*
X55Y857D01*
X73Y857D02*
X78Y857D01*
X136Y857D02*
X179Y857D01*
X283Y857D02*
X296Y857D01*
X1369Y857D02*
X1376Y857D01*
X0Y856D02*
X7Y856D01*
X50Y856D02*
X55Y856D01*
X73Y856D02*
X78Y856D01*
X283Y856D02*
X296Y856D01*
X1369Y856D02*
X1376Y856D01*
X0Y855D02*
X7Y855D01*
X50Y855D02*
X55Y855D01*
X73Y855D02*
X78Y855D01*
X283Y855D02*
X296Y855D01*
X1369Y855D02*
X1376Y855D01*
X0Y854D02*
X7Y854D01*
X50Y854D02*
X55Y854D01*
X73Y854D02*
X78Y854D01*
X283Y854D02*
X296Y854D01*
X1369Y854D02*
X1376Y854D01*
X0Y853D02*
X7Y853D01*
X50Y853D02*
X55Y853D01*
X73Y853D02*
X78Y853D01*
X283Y853D02*
X296Y853D01*
X1369Y853D02*
X1376Y853D01*
X0Y852D02*
X7Y852D01*
X50Y852D02*
X55Y852D01*
X73Y852D02*
X78Y852D01*
X283Y852D02*
X296Y852D01*
X1369Y852D02*
X1376Y852D01*
X0Y851D02*
X7Y851D01*
X50Y851D02*
X55Y851D01*
X73Y851D02*
X78Y851D01*
X283Y851D02*
X296Y851D01*
X1369Y851D02*
X1376Y851D01*
X0Y850D02*
X7Y850D01*
X50Y850D02*
X55Y850D01*
X73Y850D02*
X78Y850D01*
X283Y850D02*
X296Y850D01*
X1369Y850D02*
X1376Y850D01*
X0Y849D02*
X7Y849D01*
X50Y849D02*
X55Y849D01*
X73Y849D02*
X78Y849D01*
X283Y849D02*
X296Y849D01*
X1369Y849D02*
X1376Y849D01*
X0Y848D02*
X7Y848D01*
X50Y848D02*
X55Y848D01*
X73Y848D02*
X78Y848D01*
X283Y848D02*
X296Y848D01*
X1369Y848D02*
X1376Y848D01*
X0Y847D02*
X7Y847D01*
X50Y847D02*
X95Y847D01*
X283Y847D02*
X296Y847D01*
X1369Y847D02*
X1376Y847D01*
X0Y846D02*
X7Y846D01*
X50Y846D02*
X96Y846D01*
X283Y846D02*
X296Y846D01*
X1369Y846D02*
X1376Y846D01*
X0Y845D02*
X7Y845D01*
X50Y845D02*
X96Y845D01*
X283Y845D02*
X296Y845D01*
X1369Y845D02*
X1376Y845D01*
X0Y844D02*
X7Y844D01*
X50Y844D02*
X96Y844D01*
X283Y844D02*
X296Y844D01*
X1369Y844D02*
X1376Y844D01*
X0Y843D02*
X7Y843D01*
X50Y843D02*
X96Y843D01*
X178Y843D02*
X181Y843D01*
X283Y843D02*
X296Y843D01*
X1369Y843D02*
X1376Y843D01*
X0Y842D02*
X7Y842D01*
X50Y842D02*
X95Y842D01*
X175Y842D02*
X182Y842D01*
X283Y842D02*
X296Y842D01*
X1369Y842D02*
X1376Y842D01*
X0Y841D02*
X7Y841D01*
X172Y841D02*
X182Y841D01*
X283Y841D02*
X296Y841D01*
X1369Y841D02*
X1376Y841D01*
X0Y840D02*
X7Y840D01*
X168Y840D02*
X182Y840D01*
X283Y840D02*
X296Y840D01*
X1369Y840D02*
X1376Y840D01*
X0Y839D02*
X7Y839D01*
X165Y839D02*
X182Y839D01*
X283Y839D02*
X296Y839D01*
X1369Y839D02*
X1376Y839D01*
X0Y838D02*
X7Y838D01*
X161Y838D02*
X181Y838D01*
X283Y838D02*
X296Y838D01*
X1369Y838D02*
X1376Y838D01*
X0Y837D02*
X7Y837D01*
X158Y837D02*
X179Y837D01*
X283Y837D02*
X296Y837D01*
X1369Y837D02*
X1376Y837D01*
X0Y836D02*
X7Y836D01*
X154Y836D02*
X175Y836D01*
X283Y836D02*
X296Y836D01*
X1369Y836D02*
X1376Y836D01*
X0Y835D02*
X7Y835D01*
X151Y835D02*
X172Y835D01*
X283Y835D02*
X296Y835D01*
X1369Y835D02*
X1376Y835D01*
X0Y834D02*
X7Y834D01*
X147Y834D02*
X172Y834D01*
X283Y834D02*
X296Y834D01*
X1369Y834D02*
X1376Y834D01*
X0Y833D02*
X7Y833D01*
X144Y833D02*
X172Y833D01*
X283Y833D02*
X296Y833D01*
X1369Y833D02*
X1376Y833D01*
X0Y832D02*
X7Y832D01*
X141Y832D02*
X162Y832D01*
X167Y832D02*
X172Y832D01*
X283Y832D02*
X296Y832D01*
X1369Y832D02*
X1376Y832D01*
X0Y831D02*
X7Y831D01*
X137Y831D02*
X158Y831D01*
X167Y831D02*
X172Y831D01*
X283Y831D02*
X296Y831D01*
X1369Y831D02*
X1376Y831D01*
X0Y830D02*
X7Y830D01*
X136Y830D02*
X155Y830D01*
X167Y830D02*
X172Y830D01*
X283Y830D02*
X296Y830D01*
X1369Y830D02*
X1376Y830D01*
X0Y829D02*
X7Y829D01*
X136Y829D02*
X151Y829D01*
X167Y829D02*
X172Y829D01*
X283Y829D02*
X296Y829D01*
X1369Y829D02*
X1376Y829D01*
X0Y828D02*
X7Y828D01*
X136Y828D02*
X150Y828D01*
X167Y828D02*
X172Y828D01*
X283Y828D02*
X296Y828D01*
X1369Y828D02*
X1376Y828D01*
X0Y827D02*
X7Y827D01*
X54Y827D02*
X59Y827D01*
X87Y827D02*
X93Y827D01*
X136Y827D02*
X153Y827D01*
X167Y827D02*
X172Y827D01*
X283Y827D02*
X296Y827D01*
X1369Y827D02*
X1376Y827D01*
X0Y826D02*
X7Y826D01*
X53Y826D02*
X60Y826D01*
X86Y826D02*
X94Y826D01*
X137Y826D02*
X156Y826D01*
X167Y826D02*
X172Y826D01*
X283Y826D02*
X296Y826D01*
X1369Y826D02*
X1376Y826D01*
X0Y825D02*
X7Y825D01*
X52Y825D02*
X60Y825D01*
X84Y825D02*
X95Y825D01*
X139Y825D02*
X160Y825D01*
X167Y825D02*
X172Y825D01*
X283Y825D02*
X296Y825D01*
X1369Y825D02*
X1376Y825D01*
X0Y824D02*
X7Y824D01*
X51Y824D02*
X60Y824D01*
X83Y824D02*
X96Y824D01*
X142Y824D02*
X163Y824D01*
X167Y824D02*
X172Y824D01*
X283Y824D02*
X296Y824D01*
X1369Y824D02*
X1376Y824D01*
X0Y823D02*
X7Y823D01*
X51Y823D02*
X59Y823D01*
X82Y823D02*
X96Y823D01*
X146Y823D02*
X172Y823D01*
X283Y823D02*
X296Y823D01*
X1369Y823D02*
X1376Y823D01*
X0Y822D02*
X7Y822D01*
X50Y822D02*
X58Y822D01*
X80Y822D02*
X96Y822D01*
X149Y822D02*
X172Y822D01*
X283Y822D02*
X296Y822D01*
X1369Y822D02*
X1376Y822D01*
X0Y821D02*
X7Y821D01*
X50Y821D02*
X56Y821D01*
X79Y821D02*
X88Y821D01*
X91Y821D02*
X96Y821D01*
X153Y821D02*
X173Y821D01*
X283Y821D02*
X296Y821D01*
X1369Y821D02*
X1376Y821D01*
X0Y820D02*
X7Y820D01*
X50Y820D02*
X55Y820D01*
X78Y820D02*
X87Y820D01*
X91Y820D02*
X96Y820D01*
X156Y820D02*
X177Y820D01*
X283Y820D02*
X296Y820D01*
X1369Y820D02*
X1376Y820D01*
X0Y819D02*
X7Y819D01*
X50Y819D02*
X55Y819D01*
X77Y819D02*
X86Y819D01*
X91Y819D02*
X96Y819D01*
X159Y819D02*
X180Y819D01*
X283Y819D02*
X296Y819D01*
X1369Y819D02*
X1376Y819D01*
X0Y818D02*
X7Y818D01*
X50Y818D02*
X55Y818D01*
X75Y818D02*
X85Y818D01*
X91Y818D02*
X96Y818D01*
X163Y818D02*
X182Y818D01*
X283Y818D02*
X296Y818D01*
X1369Y818D02*
X1376Y818D01*
X0Y817D02*
X7Y817D01*
X50Y817D02*
X55Y817D01*
X74Y817D02*
X83Y817D01*
X91Y817D02*
X96Y817D01*
X166Y817D02*
X182Y817D01*
X283Y817D02*
X296Y817D01*
X1369Y817D02*
X1376Y817D01*
X0Y816D02*
X7Y816D01*
X50Y816D02*
X55Y816D01*
X73Y816D02*
X82Y816D01*
X91Y816D02*
X96Y816D01*
X170Y816D02*
X182Y816D01*
X283Y816D02*
X296Y816D01*
X1369Y816D02*
X1376Y816D01*
X0Y815D02*
X7Y815D01*
X50Y815D02*
X55Y815D01*
X71Y815D02*
X81Y815D01*
X91Y815D02*
X96Y815D01*
X173Y815D02*
X182Y815D01*
X283Y815D02*
X296Y815D01*
X1369Y815D02*
X1376Y815D01*
X0Y814D02*
X7Y814D01*
X50Y814D02*
X55Y814D01*
X70Y814D02*
X79Y814D01*
X91Y814D02*
X96Y814D01*
X176Y814D02*
X181Y814D01*
X283Y814D02*
X296Y814D01*
X1369Y814D02*
X1376Y814D01*
X0Y813D02*
X7Y813D01*
X50Y813D02*
X55Y813D01*
X69Y813D02*
X78Y813D01*
X91Y813D02*
X96Y813D01*
X180Y813D02*
X180Y813D01*
X283Y813D02*
X296Y813D01*
X1369Y813D02*
X1376Y813D01*
X0Y812D02*
X7Y812D01*
X50Y812D02*
X55Y812D01*
X68Y812D02*
X77Y812D01*
X91Y812D02*
X96Y812D01*
X283Y812D02*
X296Y812D01*
X1369Y812D02*
X1376Y812D01*
X0Y811D02*
X7Y811D01*
X50Y811D02*
X55Y811D01*
X66Y811D02*
X76Y811D01*
X91Y811D02*
X96Y811D01*
X283Y811D02*
X296Y811D01*
X1369Y811D02*
X1376Y811D01*
X0Y810D02*
X7Y810D01*
X50Y810D02*
X55Y810D01*
X65Y810D02*
X74Y810D01*
X91Y810D02*
X96Y810D01*
X283Y810D02*
X296Y810D01*
X1369Y810D02*
X1376Y810D01*
X0Y809D02*
X7Y809D01*
X50Y809D02*
X55Y809D01*
X64Y809D02*
X73Y809D01*
X91Y809D02*
X96Y809D01*
X283Y809D02*
X296Y809D01*
X1369Y809D02*
X1376Y809D01*
X0Y808D02*
X7Y808D01*
X50Y808D02*
X55Y808D01*
X62Y808D02*
X72Y808D01*
X91Y808D02*
X96Y808D01*
X283Y808D02*
X296Y808D01*
X1369Y808D02*
X1376Y808D01*
X0Y807D02*
X7Y807D01*
X50Y807D02*
X55Y807D01*
X61Y807D02*
X70Y807D01*
X91Y807D02*
X96Y807D01*
X283Y807D02*
X296Y807D01*
X1369Y807D02*
X1376Y807D01*
X0Y806D02*
X7Y806D01*
X50Y806D02*
X55Y806D01*
X60Y806D02*
X69Y806D01*
X91Y806D02*
X96Y806D01*
X283Y806D02*
X296Y806D01*
X1369Y806D02*
X1376Y806D01*
X0Y805D02*
X7Y805D01*
X50Y805D02*
X55Y805D01*
X59Y805D02*
X68Y805D01*
X91Y805D02*
X96Y805D01*
X283Y805D02*
X296Y805D01*
X1369Y805D02*
X1376Y805D01*
X0Y804D02*
X7Y804D01*
X50Y804D02*
X55Y804D01*
X57Y804D02*
X66Y804D01*
X90Y804D02*
X96Y804D01*
X283Y804D02*
X296Y804D01*
X1369Y804D02*
X1376Y804D01*
X0Y803D02*
X7Y803D01*
X50Y803D02*
X65Y803D01*
X87Y803D02*
X96Y803D01*
X283Y803D02*
X296Y803D01*
X1369Y803D02*
X1376Y803D01*
X0Y802D02*
X7Y802D01*
X50Y802D02*
X64Y802D01*
X86Y802D02*
X95Y802D01*
X283Y802D02*
X296Y802D01*
X1369Y802D02*
X1376Y802D01*
X0Y801D02*
X7Y801D01*
X51Y801D02*
X63Y801D01*
X86Y801D02*
X95Y801D01*
X283Y801D02*
X296Y801D01*
X1369Y801D02*
X1376Y801D01*
X0Y800D02*
X7Y800D01*
X52Y800D02*
X61Y800D01*
X86Y800D02*
X94Y800D01*
X283Y800D02*
X296Y800D01*
X1369Y800D02*
X1376Y800D01*
X0Y799D02*
X7Y799D01*
X53Y799D02*
X60Y799D01*
X87Y799D02*
X93Y799D01*
X283Y799D02*
X296Y799D01*
X1369Y799D02*
X1376Y799D01*
X0Y798D02*
X7Y798D01*
X55Y798D02*
X58Y798D01*
X88Y798D02*
X91Y798D01*
X283Y798D02*
X296Y798D01*
X1369Y798D02*
X1376Y798D01*
X0Y797D02*
X7Y797D01*
X283Y797D02*
X296Y797D01*
X1369Y797D02*
X1376Y797D01*
X0Y796D02*
X7Y796D01*
X283Y796D02*
X296Y796D01*
X1369Y796D02*
X1376Y796D01*
X0Y795D02*
X7Y795D01*
X283Y795D02*
X296Y795D01*
X1369Y795D02*
X1376Y795D01*
X0Y794D02*
X7Y794D01*
X283Y794D02*
X296Y794D01*
X1369Y794D02*
X1376Y794D01*
X0Y793D02*
X7Y793D01*
X283Y793D02*
X296Y793D01*
X1369Y793D02*
X1376Y793D01*
X0Y792D02*
X7Y792D01*
X283Y792D02*
X296Y792D01*
X1369Y792D02*
X1376Y792D01*
X0Y791D02*
X7Y791D01*
X283Y791D02*
X296Y791D01*
X1369Y791D02*
X1376Y791D01*
X0Y790D02*
X7Y790D01*
X283Y790D02*
X296Y790D01*
X1369Y790D02*
X1376Y790D01*
X0Y789D02*
X7Y789D01*
X283Y789D02*
X296Y789D01*
X1369Y789D02*
X1376Y789D01*
X0Y788D02*
X7Y788D01*
X283Y788D02*
X296Y788D01*
X1369Y788D02*
X1376Y788D01*
X0Y787D02*
X7Y787D01*
X283Y787D02*
X296Y787D01*
X1369Y787D02*
X1376Y787D01*
X0Y786D02*
X7Y786D01*
X283Y786D02*
X296Y786D01*
X1369Y786D02*
X1376Y786D01*
X0Y785D02*
X7Y785D01*
X283Y785D02*
X296Y785D01*
X1369Y785D02*
X1376Y785D01*
X0Y784D02*
X7Y784D01*
X52Y784D02*
X53Y784D01*
X94Y784D02*
X94Y784D01*
X283Y784D02*
X296Y784D01*
X1369Y784D02*
X1376Y784D01*
X0Y783D02*
X7Y783D01*
X51Y783D02*
X54Y783D01*
X92Y783D02*
X96Y783D01*
X283Y783D02*
X296Y783D01*
X1369Y783D02*
X1376Y783D01*
X0Y782D02*
X7Y782D01*
X50Y782D02*
X55Y782D01*
X91Y782D02*
X96Y782D01*
X283Y782D02*
X296Y782D01*
X1369Y782D02*
X1376Y782D01*
X0Y781D02*
X7Y781D01*
X50Y781D02*
X55Y781D01*
X91Y781D02*
X96Y781D01*
X283Y781D02*
X296Y781D01*
X1369Y781D02*
X1376Y781D01*
X0Y780D02*
X7Y780D01*
X50Y780D02*
X55Y780D01*
X91Y780D02*
X96Y780D01*
X283Y780D02*
X296Y780D01*
X1369Y780D02*
X1376Y780D01*
X0Y779D02*
X7Y779D01*
X50Y779D02*
X55Y779D01*
X91Y779D02*
X96Y779D01*
X283Y779D02*
X296Y779D01*
X1369Y779D02*
X1376Y779D01*
X0Y778D02*
X7Y778D01*
X50Y778D02*
X55Y778D01*
X91Y778D02*
X96Y778D01*
X283Y778D02*
X296Y778D01*
X1369Y778D02*
X1376Y778D01*
X0Y777D02*
X7Y777D01*
X50Y777D02*
X55Y777D01*
X91Y777D02*
X96Y777D01*
X283Y777D02*
X296Y777D01*
X1369Y777D02*
X1376Y777D01*
X0Y776D02*
X7Y776D01*
X50Y776D02*
X55Y776D01*
X91Y776D02*
X96Y776D01*
X283Y776D02*
X296Y776D01*
X1369Y776D02*
X1376Y776D01*
X0Y775D02*
X7Y775D01*
X50Y775D02*
X55Y775D01*
X91Y775D02*
X96Y775D01*
X283Y775D02*
X296Y775D01*
X1369Y775D02*
X1376Y775D01*
X0Y774D02*
X7Y774D01*
X50Y774D02*
X55Y774D01*
X91Y774D02*
X96Y774D01*
X283Y774D02*
X296Y774D01*
X1369Y774D02*
X1376Y774D01*
X0Y773D02*
X7Y773D01*
X50Y773D02*
X55Y773D01*
X91Y773D02*
X96Y773D01*
X283Y773D02*
X296Y773D01*
X1369Y773D02*
X1376Y773D01*
X0Y772D02*
X7Y772D01*
X50Y772D02*
X55Y772D01*
X91Y772D02*
X96Y772D01*
X283Y772D02*
X296Y772D01*
X1369Y772D02*
X1376Y772D01*
X0Y771D02*
X7Y771D01*
X50Y771D02*
X55Y771D01*
X71Y771D02*
X75Y771D01*
X91Y771D02*
X96Y771D01*
X283Y771D02*
X296Y771D01*
X1369Y771D02*
X1376Y771D01*
X0Y770D02*
X7Y770D01*
X50Y770D02*
X55Y770D01*
X71Y770D02*
X75Y770D01*
X91Y770D02*
X96Y770D01*
X283Y770D02*
X296Y770D01*
X1369Y770D02*
X1376Y770D01*
X0Y769D02*
X7Y769D01*
X50Y769D02*
X55Y769D01*
X71Y769D02*
X76Y769D01*
X91Y769D02*
X96Y769D01*
X283Y769D02*
X296Y769D01*
X1369Y769D02*
X1376Y769D01*
X0Y768D02*
X7Y768D01*
X50Y768D02*
X55Y768D01*
X71Y768D02*
X76Y768D01*
X91Y768D02*
X96Y768D01*
X283Y768D02*
X296Y768D01*
X1369Y768D02*
X1376Y768D01*
X0Y767D02*
X7Y767D01*
X50Y767D02*
X55Y767D01*
X71Y767D02*
X76Y767D01*
X91Y767D02*
X96Y767D01*
X283Y767D02*
X296Y767D01*
X1369Y767D02*
X1376Y767D01*
X0Y766D02*
X7Y766D01*
X50Y766D02*
X55Y766D01*
X71Y766D02*
X76Y766D01*
X91Y766D02*
X96Y766D01*
X283Y766D02*
X296Y766D01*
X1369Y766D02*
X1376Y766D01*
X0Y765D02*
X7Y765D01*
X50Y765D02*
X55Y765D01*
X71Y765D02*
X76Y765D01*
X91Y765D02*
X96Y765D01*
X283Y765D02*
X296Y765D01*
X1369Y765D02*
X1376Y765D01*
X0Y764D02*
X7Y764D01*
X50Y764D02*
X55Y764D01*
X71Y764D02*
X76Y764D01*
X91Y764D02*
X96Y764D01*
X283Y764D02*
X296Y764D01*
X1369Y764D02*
X1376Y764D01*
X0Y763D02*
X7Y763D01*
X50Y763D02*
X55Y763D01*
X71Y763D02*
X76Y763D01*
X91Y763D02*
X96Y763D01*
X283Y763D02*
X296Y763D01*
X1369Y763D02*
X1376Y763D01*
X0Y762D02*
X7Y762D01*
X50Y762D02*
X55Y762D01*
X71Y762D02*
X76Y762D01*
X91Y762D02*
X96Y762D01*
X283Y762D02*
X296Y762D01*
X1369Y762D02*
X1376Y762D01*
X0Y761D02*
X7Y761D01*
X50Y761D02*
X55Y761D01*
X71Y761D02*
X76Y761D01*
X91Y761D02*
X96Y761D01*
X283Y761D02*
X296Y761D01*
X1369Y761D02*
X1376Y761D01*
X0Y760D02*
X7Y760D01*
X50Y760D02*
X55Y760D01*
X70Y760D02*
X76Y760D01*
X91Y760D02*
X96Y760D01*
X283Y760D02*
X296Y760D01*
X1369Y760D02*
X1376Y760D01*
X0Y759D02*
X7Y759D01*
X50Y759D02*
X96Y759D01*
X283Y759D02*
X296Y759D01*
X1369Y759D02*
X1376Y759D01*
X0Y758D02*
X7Y758D01*
X50Y758D02*
X96Y758D01*
X283Y758D02*
X296Y758D01*
X1369Y758D02*
X1376Y758D01*
X0Y757D02*
X7Y757D01*
X50Y757D02*
X96Y757D01*
X283Y757D02*
X296Y757D01*
X1369Y757D02*
X1376Y757D01*
X0Y756D02*
X7Y756D01*
X50Y756D02*
X96Y756D01*
X283Y756D02*
X296Y756D01*
X1369Y756D02*
X1376Y756D01*
X0Y755D02*
X7Y755D01*
X50Y755D02*
X96Y755D01*
X283Y755D02*
X296Y755D01*
X1369Y755D02*
X1376Y755D01*
X0Y754D02*
X7Y754D01*
X50Y754D02*
X96Y754D01*
X283Y754D02*
X296Y754D01*
X1369Y754D02*
X1376Y754D01*
X0Y753D02*
X7Y753D01*
X283Y753D02*
X296Y753D01*
X1369Y753D02*
X1376Y753D01*
X0Y752D02*
X7Y752D01*
X283Y752D02*
X296Y752D01*
X1369Y752D02*
X1376Y752D01*
X0Y751D02*
X7Y751D01*
X283Y751D02*
X296Y751D01*
X1369Y751D02*
X1376Y751D01*
X0Y750D02*
X7Y750D01*
X283Y750D02*
X296Y750D01*
X1369Y750D02*
X1376Y750D01*
X0Y749D02*
X7Y749D01*
X283Y749D02*
X296Y749D01*
X1369Y749D02*
X1376Y749D01*
X0Y748D02*
X7Y748D01*
X283Y748D02*
X296Y748D01*
X1369Y748D02*
X1376Y748D01*
X0Y747D02*
X7Y747D01*
X283Y747D02*
X296Y747D01*
X1369Y747D02*
X1376Y747D01*
X0Y746D02*
X7Y746D01*
X283Y746D02*
X296Y746D01*
X1369Y746D02*
X1376Y746D01*
X0Y745D02*
X7Y745D01*
X283Y745D02*
X296Y745D01*
X1369Y745D02*
X1376Y745D01*
X0Y744D02*
X7Y744D01*
X283Y744D02*
X296Y744D01*
X1369Y744D02*
X1376Y744D01*
X0Y743D02*
X7Y743D01*
X283Y743D02*
X296Y743D01*
X1369Y743D02*
X1376Y743D01*
X0Y742D02*
X7Y742D01*
X283Y742D02*
X296Y742D01*
X1369Y742D02*
X1376Y742D01*
X0Y741D02*
X7Y741D01*
X283Y741D02*
X296Y741D01*
X1369Y741D02*
X1376Y741D01*
X0Y740D02*
X7Y740D01*
X283Y740D02*
X296Y740D01*
X1369Y740D02*
X1376Y740D01*
X0Y739D02*
X7Y739D01*
X283Y739D02*
X296Y739D01*
X1369Y739D02*
X1376Y739D01*
X0Y738D02*
X7Y738D01*
X283Y738D02*
X296Y738D01*
X1369Y738D02*
X1376Y738D01*
X0Y737D02*
X7Y737D01*
X283Y737D02*
X296Y737D01*
X1369Y737D02*
X1376Y737D01*
X0Y736D02*
X7Y736D01*
X283Y736D02*
X296Y736D01*
X1369Y736D02*
X1376Y736D01*
X0Y735D02*
X7Y735D01*
X283Y735D02*
X296Y735D01*
X1369Y735D02*
X1376Y735D01*
X0Y734D02*
X7Y734D01*
X1369Y734D02*
X1376Y734D01*
X0Y733D02*
X7Y733D01*
X1369Y733D02*
X1376Y733D01*
X0Y732D02*
X7Y732D01*
X1369Y732D02*
X1376Y732D01*
X0Y731D02*
X7Y731D01*
X1369Y731D02*
X1376Y731D01*
X0Y730D02*
X7Y730D01*
X1369Y730D02*
X1376Y730D01*
X0Y729D02*
X7Y729D01*
X1369Y729D02*
X1376Y729D01*
X0Y728D02*
X7Y728D01*
X1369Y728D02*
X1376Y728D01*
X0Y727D02*
X7Y727D01*
X1369Y727D02*
X1376Y727D01*
X0Y726D02*
X7Y726D01*
X1369Y726D02*
X1376Y726D01*
X0Y725D02*
X7Y725D01*
X1369Y725D02*
X1376Y725D01*
X0Y724D02*
X7Y724D01*
X1369Y724D02*
X1376Y724D01*
X0Y723D02*
X7Y723D01*
X1369Y723D02*
X1376Y723D01*
X0Y722D02*
X7Y722D01*
X1369Y722D02*
X1376Y722D01*
X0Y721D02*
X7Y721D01*
X1369Y721D02*
X1376Y721D01*
X0Y720D02*
X7Y720D01*
X1369Y720D02*
X1376Y720D01*
X0Y719D02*
X7Y719D01*
X1369Y719D02*
X1376Y719D01*
X0Y718D02*
X7Y718D01*
X1369Y718D02*
X1376Y718D01*
X0Y717D02*
X7Y717D01*
X1369Y717D02*
X1376Y717D01*
X0Y716D02*
X7Y716D01*
X1369Y716D02*
X1376Y716D01*
X0Y715D02*
X7Y715D01*
X1369Y715D02*
X1376Y715D01*
X0Y714D02*
X7Y714D01*
X1369Y714D02*
X1376Y714D01*
X0Y713D02*
X7Y713D01*
X1369Y713D02*
X1376Y713D01*
X0Y712D02*
X7Y712D01*
X1369Y712D02*
X1376Y712D01*
X0Y711D02*
X7Y711D01*
X1369Y711D02*
X1376Y711D01*
X0Y710D02*
X7Y710D01*
X1369Y710D02*
X1376Y710D01*
X0Y709D02*
X7Y709D01*
X1369Y709D02*
X1376Y709D01*
X0Y708D02*
X7Y708D01*
X1369Y708D02*
X1376Y708D01*
X0Y707D02*
X7Y707D01*
X1369Y707D02*
X1376Y707D01*
X0Y706D02*
X7Y706D01*
X1369Y706D02*
X1376Y706D01*
X0Y705D02*
X7Y705D01*
X1369Y705D02*
X1376Y705D01*
X0Y704D02*
X7Y704D01*
X1369Y704D02*
X1376Y704D01*
X0Y703D02*
X7Y703D01*
X1369Y703D02*
X1376Y703D01*
X0Y702D02*
X7Y702D01*
X1369Y702D02*
X1376Y702D01*
X0Y701D02*
X7Y701D01*
X1369Y701D02*
X1376Y701D01*
X0Y700D02*
X7Y700D01*
X1369Y700D02*
X1376Y700D01*
X0Y699D02*
X7Y699D01*
X1369Y699D02*
X1376Y699D01*
X0Y698D02*
X7Y698D01*
X1369Y698D02*
X1376Y698D01*
X0Y697D02*
X7Y697D01*
X1369Y697D02*
X1376Y697D01*
X0Y696D02*
X7Y696D01*
X1369Y696D02*
X1376Y696D01*
X0Y695D02*
X7Y695D01*
X1369Y695D02*
X1376Y695D01*
X0Y694D02*
X7Y694D01*
X1369Y694D02*
X1376Y694D01*
X0Y693D02*
X7Y693D01*
X1369Y693D02*
X1376Y693D01*
X0Y692D02*
X7Y692D01*
X1369Y692D02*
X1376Y692D01*
X0Y691D02*
X7Y691D01*
X1369Y691D02*
X1376Y691D01*
X0Y690D02*
X7Y690D01*
X1369Y690D02*
X1376Y690D01*
X0Y689D02*
X7Y689D01*
X1369Y689D02*
X1376Y689D01*
X0Y688D02*
X7Y688D01*
X1369Y688D02*
X1376Y688D01*
X0Y687D02*
X7Y687D01*
X1369Y687D02*
X1376Y687D01*
X0Y686D02*
X7Y686D01*
X1369Y686D02*
X1376Y686D01*
X0Y685D02*
X7Y685D01*
X1369Y685D02*
X1376Y685D01*
X0Y684D02*
X7Y684D01*
X1369Y684D02*
X1376Y684D01*
X0Y683D02*
X7Y683D01*
X1369Y683D02*
X1376Y683D01*
X0Y682D02*
X7Y682D01*
X1369Y682D02*
X1376Y682D01*
X0Y681D02*
X7Y681D01*
X1369Y681D02*
X1376Y681D01*
X0Y680D02*
X7Y680D01*
X1369Y680D02*
X1376Y680D01*
X0Y679D02*
X7Y679D01*
X1369Y679D02*
X1376Y679D01*
X0Y678D02*
X7Y678D01*
X1369Y678D02*
X1376Y678D01*
X0Y677D02*
X7Y677D01*
X1369Y677D02*
X1376Y677D01*
X0Y676D02*
X7Y676D01*
X786Y676D02*
X790Y676D01*
X819Y676D02*
X821Y676D01*
X844Y676D02*
X846Y676D01*
X862Y676D02*
X892Y676D01*
X1369Y676D02*
X1376Y676D01*
X0Y675D02*
X7Y675D01*
X784Y675D02*
X792Y675D01*
X818Y675D02*
X822Y675D01*
X843Y675D02*
X847Y675D01*
X862Y675D02*
X892Y675D01*
X1369Y675D02*
X1376Y675D01*
X0Y674D02*
X7Y674D01*
X783Y674D02*
X793Y674D01*
X818Y674D02*
X823Y674D01*
X842Y674D02*
X847Y674D01*
X862Y674D02*
X892Y674D01*
X1369Y674D02*
X1376Y674D01*
X0Y673D02*
X7Y673D01*
X175Y673D02*
X176Y673D01*
X782Y673D02*
X794Y673D01*
X818Y673D02*
X823Y673D01*
X842Y673D02*
X848Y673D01*
X862Y673D02*
X892Y673D01*
X1369Y673D02*
X1376Y673D01*
X0Y672D02*
X7Y672D01*
X173Y672D02*
X177Y672D01*
X781Y672D02*
X795Y672D01*
X818Y672D02*
X823Y672D01*
X842Y672D02*
X848Y672D01*
X862Y672D02*
X892Y672D01*
X1369Y672D02*
X1376Y672D01*
X0Y671D02*
X7Y671D01*
X173Y671D02*
X178Y671D01*
X781Y671D02*
X795Y671D01*
X818Y671D02*
X823Y671D01*
X842Y671D02*
X848Y671D01*
X862Y671D02*
X892Y671D01*
X1369Y671D02*
X1376Y671D01*
X0Y670D02*
X7Y670D01*
X173Y670D02*
X178Y670D01*
X780Y670D02*
X787Y670D01*
X789Y670D02*
X796Y670D01*
X818Y670D02*
X823Y670D01*
X842Y670D02*
X848Y670D01*
X862Y670D02*
X868Y670D01*
X874Y670D02*
X880Y670D01*
X887Y670D02*
X892Y670D01*
X1369Y670D02*
X1376Y670D01*
X0Y669D02*
X7Y669D01*
X173Y669D02*
X178Y669D01*
X780Y669D02*
X786Y669D01*
X790Y669D02*
X796Y669D01*
X818Y669D02*
X823Y669D01*
X842Y669D02*
X848Y669D01*
X862Y669D02*
X868Y669D01*
X875Y669D02*
X880Y669D01*
X887Y669D02*
X892Y669D01*
X1369Y669D02*
X1376Y669D01*
X0Y668D02*
X7Y668D01*
X173Y668D02*
X178Y668D01*
X779Y668D02*
X785Y668D01*
X790Y668D02*
X797Y668D01*
X818Y668D02*
X823Y668D01*
X842Y668D02*
X848Y668D01*
X862Y668D02*
X868Y668D01*
X875Y668D02*
X880Y668D01*
X887Y668D02*
X892Y668D01*
X1369Y668D02*
X1376Y668D01*
X0Y667D02*
X7Y667D01*
X173Y667D02*
X178Y667D01*
X779Y667D02*
X785Y667D01*
X791Y667D02*
X797Y667D01*
X818Y667D02*
X823Y667D01*
X842Y667D02*
X848Y667D01*
X862Y667D02*
X867Y667D01*
X875Y667D02*
X880Y667D01*
X887Y667D02*
X892Y667D01*
X921Y667D02*
X923Y667D01*
X1369Y667D02*
X1376Y667D01*
X0Y666D02*
X7Y666D01*
X173Y666D02*
X178Y666D01*
X778Y666D02*
X784Y666D01*
X791Y666D02*
X798Y666D01*
X818Y666D02*
X823Y666D01*
X842Y666D02*
X848Y666D01*
X863Y666D02*
X867Y666D01*
X875Y666D02*
X880Y666D01*
X888Y666D02*
X891Y666D01*
X920Y666D02*
X924Y666D01*
X1369Y666D02*
X1376Y666D01*
X0Y665D02*
X7Y665D01*
X173Y665D02*
X178Y665D01*
X778Y665D02*
X784Y665D01*
X792Y665D02*
X798Y665D01*
X818Y665D02*
X823Y665D01*
X842Y665D02*
X848Y665D01*
X865Y665D02*
X865Y665D01*
X875Y665D02*
X880Y665D01*
X889Y665D02*
X890Y665D01*
X919Y665D02*
X924Y665D01*
X1369Y665D02*
X1376Y665D01*
X0Y664D02*
X7Y664D01*
X173Y664D02*
X178Y664D01*
X777Y664D02*
X783Y664D01*
X792Y664D02*
X799Y664D01*
X818Y664D02*
X823Y664D01*
X842Y664D02*
X848Y664D01*
X875Y664D02*
X880Y664D01*
X919Y664D02*
X925Y664D01*
X1369Y664D02*
X1376Y664D01*
X0Y663D02*
X7Y663D01*
X173Y663D02*
X178Y663D01*
X777Y663D02*
X783Y663D01*
X793Y663D02*
X799Y663D01*
X818Y663D02*
X823Y663D01*
X842Y663D02*
X848Y663D01*
X875Y663D02*
X880Y663D01*
X919Y663D02*
X925Y663D01*
X1369Y663D02*
X1376Y663D01*
X0Y662D02*
X7Y662D01*
X173Y662D02*
X178Y662D01*
X776Y662D02*
X782Y662D01*
X793Y662D02*
X800Y662D01*
X818Y662D02*
X823Y662D01*
X842Y662D02*
X848Y662D01*
X875Y662D02*
X880Y662D01*
X919Y662D02*
X925Y662D01*
X1369Y662D02*
X1376Y662D01*
X0Y661D02*
X7Y661D01*
X164Y661D02*
X187Y661D01*
X776Y661D02*
X782Y661D01*
X794Y661D02*
X800Y661D01*
X818Y661D02*
X823Y661D01*
X842Y661D02*
X848Y661D01*
X875Y661D02*
X880Y661D01*
X919Y661D02*
X925Y661D01*
X1369Y661D02*
X1376Y661D01*
X0Y660D02*
X7Y660D01*
X161Y660D02*
X189Y660D01*
X775Y660D02*
X781Y660D01*
X795Y660D02*
X801Y660D01*
X818Y660D02*
X823Y660D01*
X842Y660D02*
X848Y660D01*
X875Y660D02*
X880Y660D01*
X919Y660D02*
X925Y660D01*
X1369Y660D02*
X1376Y660D01*
X0Y659D02*
X7Y659D01*
X161Y659D02*
X190Y659D01*
X775Y659D02*
X781Y659D01*
X795Y659D02*
X801Y659D01*
X818Y659D02*
X823Y659D01*
X842Y659D02*
X848Y659D01*
X875Y659D02*
X880Y659D01*
X919Y659D02*
X925Y659D01*
X1369Y659D02*
X1376Y659D01*
X0Y658D02*
X7Y658D01*
X160Y658D02*
X190Y658D01*
X774Y658D02*
X780Y658D01*
X796Y658D02*
X801Y658D01*
X818Y658D02*
X823Y658D01*
X842Y658D02*
X848Y658D01*
X875Y658D02*
X880Y658D01*
X919Y658D02*
X925Y658D01*
X1369Y658D02*
X1376Y658D01*
X0Y657D02*
X7Y657D01*
X160Y657D02*
X190Y657D01*
X774Y657D02*
X780Y657D01*
X796Y657D02*
X802Y657D01*
X818Y657D02*
X823Y657D01*
X842Y657D02*
X848Y657D01*
X875Y657D02*
X880Y657D01*
X919Y657D02*
X925Y657D01*
X1369Y657D02*
X1376Y657D01*
X0Y656D02*
X7Y656D01*
X161Y656D02*
X189Y656D01*
X773Y656D02*
X779Y656D01*
X797Y656D02*
X802Y656D01*
X818Y656D02*
X823Y656D01*
X842Y656D02*
X848Y656D01*
X875Y656D02*
X880Y656D01*
X919Y656D02*
X925Y656D01*
X1369Y656D02*
X1376Y656D01*
X0Y655D02*
X7Y655D01*
X162Y655D02*
X188Y655D01*
X773Y655D02*
X779Y655D01*
X797Y655D02*
X802Y655D01*
X818Y655D02*
X823Y655D01*
X842Y655D02*
X848Y655D01*
X875Y655D02*
X880Y655D01*
X909Y655D02*
X935Y655D01*
X1369Y655D02*
X1376Y655D01*
X0Y654D02*
X7Y654D01*
X173Y654D02*
X178Y654D01*
X773Y654D02*
X778Y654D01*
X797Y654D02*
X803Y654D01*
X818Y654D02*
X823Y654D01*
X842Y654D02*
X848Y654D01*
X875Y654D02*
X880Y654D01*
X908Y654D02*
X936Y654D01*
X1369Y654D02*
X1376Y654D01*
X0Y653D02*
X7Y653D01*
X173Y653D02*
X178Y653D01*
X773Y653D02*
X778Y653D01*
X797Y653D02*
X803Y653D01*
X818Y653D02*
X823Y653D01*
X842Y653D02*
X848Y653D01*
X875Y653D02*
X880Y653D01*
X907Y653D02*
X937Y653D01*
X1369Y653D02*
X1376Y653D01*
X0Y652D02*
X7Y652D01*
X173Y652D02*
X178Y652D01*
X773Y652D02*
X778Y652D01*
X797Y652D02*
X803Y652D01*
X818Y652D02*
X823Y652D01*
X842Y652D02*
X848Y652D01*
X875Y652D02*
X880Y652D01*
X907Y652D02*
X937Y652D01*
X1369Y652D02*
X1376Y652D01*
X0Y651D02*
X7Y651D01*
X173Y651D02*
X178Y651D01*
X773Y651D02*
X778Y651D01*
X797Y651D02*
X803Y651D01*
X818Y651D02*
X823Y651D01*
X842Y651D02*
X848Y651D01*
X875Y651D02*
X880Y651D01*
X907Y651D02*
X937Y651D01*
X1369Y651D02*
X1376Y651D01*
X0Y650D02*
X7Y650D01*
X173Y650D02*
X178Y650D01*
X773Y650D02*
X778Y650D01*
X797Y650D02*
X803Y650D01*
X818Y650D02*
X823Y650D01*
X842Y650D02*
X848Y650D01*
X875Y650D02*
X880Y650D01*
X908Y650D02*
X936Y650D01*
X1369Y650D02*
X1376Y650D01*
X0Y649D02*
X7Y649D01*
X173Y649D02*
X178Y649D01*
X773Y649D02*
X779Y649D01*
X797Y649D02*
X802Y649D01*
X818Y649D02*
X823Y649D01*
X842Y649D02*
X848Y649D01*
X875Y649D02*
X880Y649D01*
X919Y649D02*
X925Y649D01*
X1369Y649D02*
X1376Y649D01*
X0Y648D02*
X7Y648D01*
X173Y648D02*
X178Y648D01*
X774Y648D02*
X779Y648D01*
X796Y648D02*
X802Y648D01*
X818Y648D02*
X823Y648D01*
X842Y648D02*
X848Y648D01*
X875Y648D02*
X880Y648D01*
X919Y648D02*
X925Y648D01*
X1369Y648D02*
X1376Y648D01*
X0Y647D02*
X7Y647D01*
X173Y647D02*
X178Y647D01*
X774Y647D02*
X780Y647D01*
X796Y647D02*
X802Y647D01*
X818Y647D02*
X823Y647D01*
X842Y647D02*
X848Y647D01*
X875Y647D02*
X880Y647D01*
X919Y647D02*
X925Y647D01*
X1369Y647D02*
X1376Y647D01*
X0Y646D02*
X7Y646D01*
X173Y646D02*
X178Y646D01*
X774Y646D02*
X780Y646D01*
X795Y646D02*
X801Y646D01*
X818Y646D02*
X823Y646D01*
X842Y646D02*
X848Y646D01*
X875Y646D02*
X880Y646D01*
X919Y646D02*
X925Y646D01*
X1369Y646D02*
X1376Y646D01*
X0Y645D02*
X7Y645D01*
X173Y645D02*
X178Y645D01*
X775Y645D02*
X781Y645D01*
X795Y645D02*
X801Y645D01*
X818Y645D02*
X823Y645D01*
X842Y645D02*
X848Y645D01*
X875Y645D02*
X880Y645D01*
X919Y645D02*
X925Y645D01*
X1369Y645D02*
X1376Y645D01*
X0Y644D02*
X7Y644D01*
X173Y644D02*
X177Y644D01*
X775Y644D02*
X781Y644D01*
X794Y644D02*
X800Y644D01*
X818Y644D02*
X823Y644D01*
X842Y644D02*
X848Y644D01*
X875Y644D02*
X880Y644D01*
X919Y644D02*
X925Y644D01*
X1369Y644D02*
X1376Y644D01*
X0Y643D02*
X7Y643D01*
X174Y643D02*
X177Y643D01*
X776Y643D02*
X782Y643D01*
X794Y643D02*
X800Y643D01*
X818Y643D02*
X823Y643D01*
X842Y643D02*
X848Y643D01*
X875Y643D02*
X880Y643D01*
X919Y643D02*
X925Y643D01*
X1369Y643D02*
X1376Y643D01*
X0Y642D02*
X7Y642D01*
X776Y642D02*
X782Y642D01*
X793Y642D02*
X799Y642D01*
X818Y642D02*
X823Y642D01*
X842Y642D02*
X848Y642D01*
X875Y642D02*
X880Y642D01*
X919Y642D02*
X925Y642D01*
X1369Y642D02*
X1376Y642D01*
X0Y641D02*
X7Y641D01*
X777Y641D02*
X783Y641D01*
X793Y641D02*
X799Y641D01*
X818Y641D02*
X823Y641D01*
X842Y641D02*
X848Y641D01*
X875Y641D02*
X880Y641D01*
X919Y641D02*
X925Y641D01*
X1369Y641D02*
X1376Y641D01*
X0Y640D02*
X7Y640D01*
X777Y640D02*
X783Y640D01*
X792Y640D02*
X798Y640D01*
X818Y640D02*
X823Y640D01*
X842Y640D02*
X848Y640D01*
X875Y640D02*
X880Y640D01*
X919Y640D02*
X925Y640D01*
X1369Y640D02*
X1376Y640D01*
X0Y639D02*
X7Y639D01*
X778Y639D02*
X784Y639D01*
X792Y639D02*
X798Y639D01*
X818Y639D02*
X823Y639D01*
X842Y639D02*
X848Y639D01*
X875Y639D02*
X880Y639D01*
X919Y639D02*
X924Y639D01*
X1369Y639D02*
X1376Y639D01*
X0Y638D02*
X7Y638D01*
X778Y638D02*
X784Y638D01*
X791Y638D02*
X797Y638D01*
X818Y638D02*
X823Y638D01*
X842Y638D02*
X848Y638D01*
X875Y638D02*
X880Y638D01*
X920Y638D02*
X924Y638D01*
X1369Y638D02*
X1376Y638D01*
X0Y637D02*
X7Y637D01*
X779Y637D02*
X785Y637D01*
X791Y637D02*
X797Y637D01*
X818Y637D02*
X823Y637D01*
X842Y637D02*
X847Y637D01*
X875Y637D02*
X880Y637D01*
X921Y637D02*
X923Y637D01*
X1369Y637D02*
X1376Y637D01*
X0Y636D02*
X7Y636D01*
X779Y636D02*
X785Y636D01*
X790Y636D02*
X796Y636D01*
X818Y636D02*
X823Y636D01*
X842Y636D02*
X847Y636D01*
X875Y636D02*
X880Y636D01*
X1369Y636D02*
X1376Y636D01*
X0Y635D02*
X7Y635D01*
X780Y635D02*
X786Y635D01*
X790Y635D02*
X796Y635D01*
X818Y635D02*
X824Y635D01*
X841Y635D02*
X847Y635D01*
X875Y635D02*
X880Y635D01*
X1369Y635D02*
X1376Y635D01*
X0Y634D02*
X7Y634D01*
X780Y634D02*
X795Y634D01*
X818Y634D02*
X847Y634D01*
X875Y634D02*
X880Y634D01*
X1369Y634D02*
X1376Y634D01*
X0Y633D02*
X7Y633D01*
X781Y633D02*
X795Y633D01*
X819Y633D02*
X846Y633D01*
X875Y633D02*
X880Y633D01*
X1369Y633D02*
X1376Y633D01*
X0Y632D02*
X7Y632D01*
X781Y632D02*
X794Y632D01*
X819Y632D02*
X846Y632D01*
X875Y632D02*
X880Y632D01*
X1369Y632D02*
X1376Y632D01*
X0Y631D02*
X7Y631D01*
X782Y631D02*
X794Y631D01*
X820Y631D02*
X845Y631D01*
X875Y631D02*
X880Y631D01*
X1369Y631D02*
X1376Y631D01*
X0Y630D02*
X7Y630D01*
X783Y630D02*
X793Y630D01*
X821Y630D02*
X844Y630D01*
X875Y630D02*
X880Y630D01*
X1369Y630D02*
X1376Y630D01*
X0Y629D02*
X7Y629D01*
X784Y629D02*
X791Y629D01*
X823Y629D02*
X842Y629D01*
X876Y629D02*
X879Y629D01*
X1369Y629D02*
X1376Y629D01*
X0Y628D02*
X7Y628D01*
X827Y628D02*
X838Y628D01*
X1369Y628D02*
X1376Y628D01*
X0Y627D02*
X7Y627D01*
X1369Y627D02*
X1376Y627D01*
X0Y626D02*
X7Y626D01*
X1369Y626D02*
X1376Y626D01*
X0Y625D02*
X7Y625D01*
X1369Y625D02*
X1376Y625D01*
X0Y624D02*
X7Y624D01*
X1369Y624D02*
X1376Y624D01*
X0Y623D02*
X7Y623D01*
X1369Y623D02*
X1376Y623D01*
X0Y622D02*
X7Y622D01*
X1369Y622D02*
X1376Y622D01*
X0Y621D02*
X7Y621D01*
X1369Y621D02*
X1376Y621D01*
X0Y620D02*
X7Y620D01*
X1369Y620D02*
X1376Y620D01*
X0Y619D02*
X7Y619D01*
X1369Y619D02*
X1376Y619D01*
X0Y618D02*
X7Y618D01*
X1369Y618D02*
X1376Y618D01*
X0Y617D02*
X7Y617D01*
X1369Y617D02*
X1376Y617D01*
X0Y616D02*
X7Y616D01*
X1369Y616D02*
X1376Y616D01*
X0Y615D02*
X7Y615D01*
X1369Y615D02*
X1376Y615D01*
X0Y614D02*
X7Y614D01*
X1369Y614D02*
X1376Y614D01*
X0Y613D02*
X7Y613D01*
X1369Y613D02*
X1376Y613D01*
X0Y612D02*
X7Y612D01*
X1369Y612D02*
X1376Y612D01*
X0Y611D02*
X7Y611D01*
X1369Y611D02*
X1376Y611D01*
X0Y610D02*
X7Y610D01*
X1369Y610D02*
X1376Y610D01*
X0Y609D02*
X7Y609D01*
X1369Y609D02*
X1376Y609D01*
X0Y608D02*
X7Y608D01*
X1369Y608D02*
X1376Y608D01*
X0Y607D02*
X7Y607D01*
X1369Y607D02*
X1376Y607D01*
X0Y606D02*
X7Y606D01*
X1369Y606D02*
X1376Y606D01*
X0Y605D02*
X7Y605D01*
X1369Y605D02*
X1376Y605D01*
X0Y604D02*
X7Y604D01*
X1369Y604D02*
X1376Y604D01*
X0Y603D02*
X7Y603D01*
X1369Y603D02*
X1376Y603D01*
X0Y602D02*
X7Y602D01*
X1369Y602D02*
X1376Y602D01*
X0Y601D02*
X7Y601D01*
X1369Y601D02*
X1376Y601D01*
X0Y600D02*
X7Y600D01*
X1369Y600D02*
X1376Y600D01*
X0Y599D02*
X7Y599D01*
X1369Y599D02*
X1376Y599D01*
X0Y598D02*
X7Y598D01*
X1369Y598D02*
X1376Y598D01*
X0Y597D02*
X7Y597D01*
X1369Y597D02*
X1376Y597D01*
X0Y596D02*
X7Y596D01*
X1369Y596D02*
X1376Y596D01*
X0Y595D02*
X7Y595D01*
X1369Y595D02*
X1376Y595D01*
X0Y594D02*
X7Y594D01*
X1369Y594D02*
X1376Y594D01*
X0Y593D02*
X7Y593D01*
X1369Y593D02*
X1376Y593D01*
X0Y592D02*
X7Y592D01*
X1369Y592D02*
X1376Y592D01*
X0Y591D02*
X7Y591D01*
X1369Y591D02*
X1376Y591D01*
X0Y590D02*
X7Y590D01*
X1369Y590D02*
X1376Y590D01*
X0Y589D02*
X7Y589D01*
X1369Y589D02*
X1376Y589D01*
X0Y588D02*
X7Y588D01*
X1369Y588D02*
X1376Y588D01*
X0Y587D02*
X7Y587D01*
X1369Y587D02*
X1376Y587D01*
X0Y586D02*
X7Y586D01*
X1369Y586D02*
X1376Y586D01*
X0Y585D02*
X7Y585D01*
X1369Y585D02*
X1376Y585D01*
X0Y584D02*
X7Y584D01*
X1369Y584D02*
X1376Y584D01*
X0Y583D02*
X7Y583D01*
X1369Y583D02*
X1376Y583D01*
X0Y582D02*
X7Y582D01*
X1369Y582D02*
X1376Y582D01*
X0Y581D02*
X7Y581D01*
X1369Y581D02*
X1376Y581D01*
X0Y580D02*
X7Y580D01*
X1369Y580D02*
X1376Y580D01*
X0Y579D02*
X7Y579D01*
X1369Y579D02*
X1376Y579D01*
X0Y578D02*
X7Y578D01*
X1369Y578D02*
X1376Y578D01*
X0Y577D02*
X7Y577D01*
X1369Y577D02*
X1376Y577D01*
X0Y576D02*
X7Y576D01*
X1369Y576D02*
X1376Y576D01*
X0Y575D02*
X7Y575D01*
X1369Y575D02*
X1376Y575D01*
X0Y574D02*
X7Y574D01*
X1369Y574D02*
X1376Y574D01*
X0Y573D02*
X7Y573D01*
X1369Y573D02*
X1376Y573D01*
X0Y572D02*
X7Y572D01*
X1369Y572D02*
X1376Y572D01*
X0Y571D02*
X7Y571D01*
X1369Y571D02*
X1376Y571D01*
X0Y570D02*
X7Y570D01*
X1369Y570D02*
X1376Y570D01*
X0Y569D02*
X7Y569D01*
X1369Y569D02*
X1376Y569D01*
X0Y568D02*
X7Y568D01*
X1369Y568D02*
X1376Y568D01*
X0Y567D02*
X7Y567D01*
X1369Y567D02*
X1376Y567D01*
X0Y566D02*
X7Y566D01*
X1369Y566D02*
X1376Y566D01*
X0Y565D02*
X7Y565D01*
X1369Y565D02*
X1376Y565D01*
X0Y564D02*
X7Y564D01*
X1369Y564D02*
X1376Y564D01*
X0Y563D02*
X7Y563D01*
X1369Y563D02*
X1376Y563D01*
X0Y562D02*
X7Y562D01*
X1369Y562D02*
X1376Y562D01*
X0Y561D02*
X7Y561D01*
X1369Y561D02*
X1376Y561D01*
X0Y560D02*
X7Y560D01*
X1369Y560D02*
X1376Y560D01*
X0Y559D02*
X7Y559D01*
X1369Y559D02*
X1376Y559D01*
X0Y558D02*
X7Y558D01*
X1369Y558D02*
X1376Y558D01*
X0Y557D02*
X7Y557D01*
X1369Y557D02*
X1376Y557D01*
X0Y556D02*
X7Y556D01*
X1369Y556D02*
X1376Y556D01*
X0Y555D02*
X7Y555D01*
X1369Y555D02*
X1376Y555D01*
X0Y554D02*
X7Y554D01*
X1369Y554D02*
X1376Y554D01*
X0Y553D02*
X7Y553D01*
X1369Y553D02*
X1376Y553D01*
X0Y552D02*
X7Y552D01*
X1369Y552D02*
X1376Y552D01*
X0Y551D02*
X7Y551D01*
X1369Y551D02*
X1376Y551D01*
X0Y550D02*
X7Y550D01*
X1369Y550D02*
X1376Y550D01*
X0Y549D02*
X7Y549D01*
X1369Y549D02*
X1376Y549D01*
X0Y548D02*
X7Y548D01*
X1369Y548D02*
X1376Y548D01*
X0Y547D02*
X7Y547D01*
X1369Y547D02*
X1376Y547D01*
X0Y546D02*
X7Y546D01*
X1369Y546D02*
X1376Y546D01*
X0Y545D02*
X7Y545D01*
X1369Y545D02*
X1376Y545D01*
X0Y544D02*
X7Y544D01*
X1369Y544D02*
X1376Y544D01*
X0Y543D02*
X7Y543D01*
X1369Y543D02*
X1376Y543D01*
X0Y542D02*
X7Y542D01*
X1369Y542D02*
X1376Y542D01*
X0Y541D02*
X7Y541D01*
X1369Y541D02*
X1376Y541D01*
X0Y540D02*
X7Y540D01*
X1369Y540D02*
X1376Y540D01*
X0Y539D02*
X7Y539D01*
X1369Y539D02*
X1376Y539D01*
X0Y538D02*
X7Y538D01*
X1369Y538D02*
X1376Y538D01*
X0Y537D02*
X7Y537D01*
X1369Y537D02*
X1376Y537D01*
X0Y536D02*
X7Y536D01*
X1369Y536D02*
X1376Y536D01*
X0Y535D02*
X7Y535D01*
X1369Y535D02*
X1376Y535D01*
X0Y534D02*
X7Y534D01*
X1369Y534D02*
X1376Y534D01*
X0Y533D02*
X7Y533D01*
X1369Y533D02*
X1376Y533D01*
X0Y532D02*
X7Y532D01*
X1369Y532D02*
X1376Y532D01*
X0Y531D02*
X7Y531D01*
X1369Y531D02*
X1376Y531D01*
X0Y530D02*
X7Y530D01*
X1369Y530D02*
X1376Y530D01*
X0Y529D02*
X7Y529D01*
X1369Y529D02*
X1376Y529D01*
X0Y528D02*
X7Y528D01*
X1369Y528D02*
X1376Y528D01*
X0Y527D02*
X7Y527D01*
X1369Y527D02*
X1376Y527D01*
X0Y526D02*
X7Y526D01*
X1369Y526D02*
X1376Y526D01*
X0Y525D02*
X7Y525D01*
X1369Y525D02*
X1376Y525D01*
X0Y524D02*
X7Y524D01*
X1369Y524D02*
X1376Y524D01*
X0Y523D02*
X7Y523D01*
X1369Y523D02*
X1376Y523D01*
X0Y522D02*
X7Y522D01*
X1369Y522D02*
X1376Y522D01*
X0Y521D02*
X7Y521D01*
X1369Y521D02*
X1376Y521D01*
X0Y520D02*
X7Y520D01*
X1369Y520D02*
X1376Y520D01*
X0Y519D02*
X7Y519D01*
X1369Y519D02*
X1376Y519D01*
X0Y518D02*
X7Y518D01*
X1369Y518D02*
X1376Y518D01*
X0Y517D02*
X7Y517D01*
X1369Y517D02*
X1376Y517D01*
X0Y516D02*
X7Y516D01*
X1369Y516D02*
X1376Y516D01*
X0Y515D02*
X7Y515D01*
X1369Y515D02*
X1376Y515D01*
X0Y514D02*
X7Y514D01*
X1369Y514D02*
X1376Y514D01*
X0Y513D02*
X7Y513D01*
X1369Y513D02*
X1376Y513D01*
X0Y512D02*
X7Y512D01*
X1369Y512D02*
X1376Y512D01*
X0Y511D02*
X7Y511D01*
X1369Y511D02*
X1376Y511D01*
X0Y510D02*
X7Y510D01*
X1369Y510D02*
X1376Y510D01*
X0Y509D02*
X7Y509D01*
X1369Y509D02*
X1376Y509D01*
X0Y508D02*
X7Y508D01*
X1369Y508D02*
X1376Y508D01*
X0Y507D02*
X7Y507D01*
X1369Y507D02*
X1376Y507D01*
X0Y506D02*
X7Y506D01*
X1369Y506D02*
X1376Y506D01*
X0Y505D02*
X7Y505D01*
X1369Y505D02*
X1376Y505D01*
X0Y504D02*
X7Y504D01*
X1369Y504D02*
X1376Y504D01*
X0Y503D02*
X7Y503D01*
X1369Y503D02*
X1376Y503D01*
X0Y502D02*
X7Y502D01*
X1369Y502D02*
X1376Y502D01*
X0Y501D02*
X7Y501D01*
X1369Y501D02*
X1376Y501D01*
X0Y500D02*
X7Y500D01*
X1369Y500D02*
X1376Y500D01*
X0Y499D02*
X7Y499D01*
X1369Y499D02*
X1376Y499D01*
X0Y498D02*
X7Y498D01*
X1369Y498D02*
X1376Y498D01*
X0Y497D02*
X7Y497D01*
X1369Y497D02*
X1376Y497D01*
X0Y496D02*
X7Y496D01*
X1369Y496D02*
X1376Y496D01*
X0Y495D02*
X7Y495D01*
X953Y495D02*
X972Y495D01*
X1369Y495D02*
X1376Y495D01*
X0Y494D02*
X7Y494D01*
X953Y494D02*
X976Y494D01*
X1369Y494D02*
X1376Y494D01*
X0Y493D02*
X7Y493D01*
X953Y493D02*
X977Y493D01*
X1369Y493D02*
X1376Y493D01*
X0Y492D02*
X7Y492D01*
X953Y492D02*
X979Y492D01*
X1369Y492D02*
X1376Y492D01*
X0Y491D02*
X7Y491D01*
X953Y491D02*
X980Y491D01*
X1369Y491D02*
X1376Y491D01*
X0Y490D02*
X7Y490D01*
X953Y490D02*
X980Y490D01*
X1369Y490D02*
X1376Y490D01*
X0Y489D02*
X7Y489D01*
X953Y489D02*
X981Y489D01*
X1369Y489D02*
X1376Y489D01*
X0Y488D02*
X7Y488D01*
X953Y488D02*
X958Y488D01*
X974Y488D02*
X982Y488D01*
X1369Y488D02*
X1376Y488D01*
X0Y487D02*
X7Y487D01*
X953Y487D02*
X958Y487D01*
X976Y487D02*
X982Y487D01*
X1369Y487D02*
X1376Y487D01*
X0Y486D02*
X7Y486D01*
X953Y486D02*
X958Y486D01*
X976Y486D02*
X982Y486D01*
X1012Y486D02*
X1014Y486D01*
X1369Y486D02*
X1376Y486D01*
X0Y485D02*
X7Y485D01*
X953Y485D02*
X958Y485D01*
X977Y485D02*
X983Y485D01*
X1011Y485D02*
X1015Y485D01*
X1369Y485D02*
X1376Y485D01*
X0Y484D02*
X7Y484D01*
X953Y484D02*
X958Y484D01*
X977Y484D02*
X983Y484D01*
X1010Y484D02*
X1015Y484D01*
X1369Y484D02*
X1376Y484D01*
X0Y483D02*
X7Y483D01*
X953Y483D02*
X958Y483D01*
X978Y483D02*
X983Y483D01*
X1010Y483D02*
X1015Y483D01*
X1369Y483D02*
X1376Y483D01*
X0Y482D02*
X7Y482D01*
X953Y482D02*
X958Y482D01*
X978Y482D02*
X983Y482D01*
X1010Y482D02*
X1015Y482D01*
X1369Y482D02*
X1376Y482D01*
X0Y481D02*
X7Y481D01*
X953Y481D02*
X958Y481D01*
X978Y481D02*
X983Y481D01*
X1010Y481D02*
X1015Y481D01*
X1369Y481D02*
X1376Y481D01*
X0Y480D02*
X7Y480D01*
X953Y480D02*
X958Y480D01*
X978Y480D02*
X983Y480D01*
X1010Y480D02*
X1015Y480D01*
X1369Y480D02*
X1376Y480D01*
X0Y479D02*
X7Y479D01*
X953Y479D02*
X958Y479D01*
X977Y479D02*
X983Y479D01*
X1010Y479D02*
X1015Y479D01*
X1369Y479D02*
X1376Y479D01*
X0Y478D02*
X7Y478D01*
X953Y478D02*
X958Y478D01*
X977Y478D02*
X983Y478D01*
X1010Y478D02*
X1015Y478D01*
X1369Y478D02*
X1376Y478D01*
X0Y477D02*
X7Y477D01*
X953Y477D02*
X958Y477D01*
X977Y477D02*
X982Y477D01*
X1010Y477D02*
X1015Y477D01*
X1369Y477D02*
X1376Y477D01*
X0Y476D02*
X7Y476D01*
X953Y476D02*
X958Y476D01*
X976Y476D02*
X982Y476D01*
X1010Y476D02*
X1015Y476D01*
X1369Y476D02*
X1376Y476D01*
X0Y475D02*
X7Y475D01*
X953Y475D02*
X958Y475D01*
X974Y475D02*
X982Y475D01*
X1010Y475D02*
X1015Y475D01*
X1369Y475D02*
X1376Y475D01*
X0Y474D02*
X7Y474D01*
X953Y474D02*
X981Y474D01*
X1000Y474D02*
X1025Y474D01*
X1369Y474D02*
X1376Y474D01*
X0Y473D02*
X7Y473D01*
X953Y473D02*
X980Y473D01*
X999Y473D02*
X1027Y473D01*
X1369Y473D02*
X1376Y473D01*
X0Y472D02*
X7Y472D01*
X953Y472D02*
X980Y472D01*
X998Y472D02*
X1027Y472D01*
X1369Y472D02*
X1376Y472D01*
X0Y471D02*
X7Y471D01*
X953Y471D02*
X979Y471D01*
X998Y471D02*
X1028Y471D01*
X1369Y471D02*
X1376Y471D01*
X0Y470D02*
X7Y470D01*
X953Y470D02*
X979Y470D01*
X998Y470D02*
X1027Y470D01*
X1369Y470D02*
X1376Y470D01*
X0Y469D02*
X7Y469D01*
X953Y469D02*
X980Y469D01*
X998Y469D02*
X1027Y469D01*
X1369Y469D02*
X1376Y469D01*
X0Y468D02*
X7Y468D01*
X953Y468D02*
X981Y468D01*
X1000Y468D02*
X1025Y468D01*
X1369Y468D02*
X1376Y468D01*
X0Y467D02*
X7Y467D01*
X953Y467D02*
X958Y467D01*
X974Y467D02*
X982Y467D01*
X1010Y467D02*
X1015Y467D01*
X1369Y467D02*
X1376Y467D01*
X0Y466D02*
X7Y466D01*
X953Y466D02*
X958Y466D01*
X976Y466D02*
X982Y466D01*
X1010Y466D02*
X1015Y466D01*
X1369Y466D02*
X1376Y466D01*
X0Y465D02*
X7Y465D01*
X953Y465D02*
X958Y465D01*
X976Y465D02*
X982Y465D01*
X1010Y465D02*
X1015Y465D01*
X1369Y465D02*
X1376Y465D01*
X0Y464D02*
X7Y464D01*
X953Y464D02*
X958Y464D01*
X977Y464D02*
X983Y464D01*
X1010Y464D02*
X1015Y464D01*
X1369Y464D02*
X1376Y464D01*
X0Y463D02*
X7Y463D01*
X953Y463D02*
X958Y463D01*
X977Y463D02*
X983Y463D01*
X1010Y463D02*
X1015Y463D01*
X1369Y463D02*
X1376Y463D01*
X0Y462D02*
X7Y462D01*
X953Y462D02*
X958Y462D01*
X978Y462D02*
X983Y462D01*
X1010Y462D02*
X1015Y462D01*
X1369Y462D02*
X1376Y462D01*
X0Y461D02*
X7Y461D01*
X953Y461D02*
X958Y461D01*
X978Y461D02*
X983Y461D01*
X1010Y461D02*
X1015Y461D01*
X1369Y461D02*
X1376Y461D01*
X0Y460D02*
X7Y460D01*
X953Y460D02*
X958Y460D01*
X978Y460D02*
X983Y460D01*
X1010Y460D02*
X1015Y460D01*
X1369Y460D02*
X1376Y460D01*
X0Y459D02*
X7Y459D01*
X953Y459D02*
X958Y459D01*
X978Y459D02*
X983Y459D01*
X1010Y459D02*
X1015Y459D01*
X1369Y459D02*
X1376Y459D01*
X0Y458D02*
X7Y458D01*
X953Y458D02*
X958Y458D01*
X978Y458D02*
X983Y458D01*
X1010Y458D02*
X1015Y458D01*
X1369Y458D02*
X1376Y458D01*
X0Y457D02*
X7Y457D01*
X953Y457D02*
X958Y457D01*
X977Y457D02*
X983Y457D01*
X1011Y457D02*
X1015Y457D01*
X1369Y457D02*
X1376Y457D01*
X0Y456D02*
X7Y456D01*
X953Y456D02*
X958Y456D01*
X977Y456D02*
X982Y456D01*
X1012Y456D02*
X1014Y456D01*
X1369Y456D02*
X1376Y456D01*
X0Y455D02*
X7Y455D01*
X953Y455D02*
X958Y455D01*
X976Y455D02*
X982Y455D01*
X1369Y455D02*
X1376Y455D01*
X0Y454D02*
X7Y454D01*
X953Y454D02*
X958Y454D01*
X974Y454D02*
X982Y454D01*
X1369Y454D02*
X1376Y454D01*
X0Y453D02*
X7Y453D01*
X953Y453D02*
X981Y453D01*
X1369Y453D02*
X1376Y453D01*
X0Y452D02*
X7Y452D01*
X953Y452D02*
X981Y452D01*
X1369Y452D02*
X1376Y452D01*
X0Y451D02*
X7Y451D01*
X953Y451D02*
X980Y451D01*
X1369Y451D02*
X1376Y451D01*
X0Y450D02*
X7Y450D01*
X953Y450D02*
X979Y450D01*
X1369Y450D02*
X1376Y450D01*
X0Y449D02*
X7Y449D01*
X953Y449D02*
X977Y449D01*
X1369Y449D02*
X1376Y449D01*
X0Y448D02*
X7Y448D01*
X953Y448D02*
X976Y448D01*
X1369Y448D02*
X1376Y448D01*
X0Y447D02*
X7Y447D01*
X953Y447D02*
X973Y447D01*
X1369Y447D02*
X1376Y447D01*
X0Y446D02*
X7Y446D01*
X1369Y446D02*
X1376Y446D01*
X0Y445D02*
X7Y445D01*
X1369Y445D02*
X1376Y445D01*
X0Y444D02*
X7Y444D01*
X1369Y444D02*
X1376Y444D01*
X0Y443D02*
X7Y443D01*
X1369Y443D02*
X1376Y443D01*
X0Y442D02*
X7Y442D01*
X1369Y442D02*
X1376Y442D01*
X0Y441D02*
X7Y441D01*
X1369Y441D02*
X1376Y441D01*
X0Y440D02*
X7Y440D01*
X1369Y440D02*
X1376Y440D01*
X0Y439D02*
X7Y439D01*
X1369Y439D02*
X1376Y439D01*
X0Y438D02*
X7Y438D01*
X1369Y438D02*
X1376Y438D01*
X0Y437D02*
X7Y437D01*
X1369Y437D02*
X1376Y437D01*
X0Y436D02*
X7Y436D01*
X1369Y436D02*
X1376Y436D01*
X0Y435D02*
X7Y435D01*
X1369Y435D02*
X1376Y435D01*
X0Y434D02*
X7Y434D01*
X1369Y434D02*
X1376Y434D01*
X0Y433D02*
X7Y433D01*
X1369Y433D02*
X1376Y433D01*
X0Y432D02*
X7Y432D01*
X1369Y432D02*
X1376Y432D01*
X0Y431D02*
X7Y431D01*
X1369Y431D02*
X1376Y431D01*
X0Y430D02*
X7Y430D01*
X1369Y430D02*
X1376Y430D01*
X0Y429D02*
X7Y429D01*
X1369Y429D02*
X1376Y429D01*
X0Y428D02*
X7Y428D01*
X1369Y428D02*
X1376Y428D01*
X0Y427D02*
X7Y427D01*
X1369Y427D02*
X1376Y427D01*
X0Y426D02*
X7Y426D01*
X1369Y426D02*
X1376Y426D01*
X0Y425D02*
X7Y425D01*
X1369Y425D02*
X1376Y425D01*
X0Y424D02*
X7Y424D01*
X1369Y424D02*
X1376Y424D01*
X0Y423D02*
X7Y423D01*
X1369Y423D02*
X1376Y423D01*
X0Y422D02*
X7Y422D01*
X1369Y422D02*
X1376Y422D01*
X0Y421D02*
X7Y421D01*
X1369Y421D02*
X1376Y421D01*
X0Y420D02*
X7Y420D01*
X1369Y420D02*
X1376Y420D01*
X0Y419D02*
X7Y419D01*
X1369Y419D02*
X1376Y419D01*
X0Y418D02*
X7Y418D01*
X1369Y418D02*
X1376Y418D01*
X0Y417D02*
X7Y417D01*
X1369Y417D02*
X1376Y417D01*
X0Y416D02*
X7Y416D01*
X1369Y416D02*
X1376Y416D01*
X0Y415D02*
X7Y415D01*
X1369Y415D02*
X1376Y415D01*
X0Y414D02*
X7Y414D01*
X1369Y414D02*
X1376Y414D01*
X0Y413D02*
X7Y413D01*
X1369Y413D02*
X1376Y413D01*
X0Y412D02*
X7Y412D01*
X1369Y412D02*
X1376Y412D01*
X0Y411D02*
X7Y411D01*
X1369Y411D02*
X1376Y411D01*
X0Y410D02*
X7Y410D01*
X1369Y410D02*
X1376Y410D01*
X0Y409D02*
X7Y409D01*
X1369Y409D02*
X1376Y409D01*
X0Y408D02*
X7Y408D01*
X1369Y408D02*
X1376Y408D01*
X0Y407D02*
X7Y407D01*
X1369Y407D02*
X1376Y407D01*
X0Y406D02*
X7Y406D01*
X1369Y406D02*
X1376Y406D01*
X0Y405D02*
X7Y405D01*
X1369Y405D02*
X1376Y405D01*
X0Y404D02*
X7Y404D01*
X1369Y404D02*
X1376Y404D01*
X0Y403D02*
X7Y403D01*
X1369Y403D02*
X1376Y403D01*
X0Y402D02*
X7Y402D01*
X1369Y402D02*
X1376Y402D01*
X0Y401D02*
X7Y401D01*
X1369Y401D02*
X1376Y401D01*
X0Y400D02*
X7Y400D01*
X1369Y400D02*
X1376Y400D01*
X0Y399D02*
X7Y399D01*
X1369Y399D02*
X1376Y399D01*
X0Y398D02*
X7Y398D01*
X1369Y398D02*
X1376Y398D01*
X0Y397D02*
X7Y397D01*
X1369Y397D02*
X1376Y397D01*
X0Y396D02*
X7Y396D01*
X1369Y396D02*
X1376Y396D01*
X0Y395D02*
X7Y395D01*
X1369Y395D02*
X1376Y395D01*
X0Y394D02*
X7Y394D01*
X427Y394D02*
X436Y394D01*
X479Y394D02*
X493Y394D01*
X624Y394D02*
X641Y394D01*
X1369Y394D02*
X1376Y394D01*
X0Y393D02*
X7Y393D01*
X252Y393D02*
X312Y393D01*
X326Y393D02*
X358Y393D01*
X426Y393D02*
X437Y393D01*
X475Y393D02*
X497Y393D01*
X533Y393D02*
X574Y393D01*
X619Y393D02*
X642Y393D01*
X1369Y393D02*
X1376Y393D01*
X0Y392D02*
X7Y392D01*
X252Y392D02*
X312Y392D01*
X326Y392D02*
X363Y392D01*
X425Y392D02*
X437Y392D01*
X473Y392D02*
X499Y392D01*
X533Y392D02*
X574Y392D01*
X615Y392D02*
X642Y392D01*
X1369Y392D02*
X1376Y392D01*
X0Y391D02*
X7Y391D01*
X252Y391D02*
X312Y391D01*
X326Y391D02*
X366Y391D01*
X424Y391D02*
X437Y391D01*
X471Y391D02*
X501Y391D01*
X533Y391D02*
X574Y391D01*
X613Y391D02*
X642Y391D01*
X1369Y391D02*
X1376Y391D01*
X0Y390D02*
X7Y390D01*
X252Y390D02*
X312Y390D01*
X326Y390D02*
X369Y390D01*
X423Y390D02*
X437Y390D01*
X469Y390D02*
X503Y390D01*
X533Y390D02*
X574Y390D01*
X611Y390D02*
X642Y390D01*
X1369Y390D02*
X1376Y390D01*
X0Y389D02*
X7Y389D01*
X252Y389D02*
X312Y389D01*
X326Y389D02*
X370Y389D01*
X422Y389D02*
X437Y389D01*
X468Y389D02*
X504Y389D01*
X533Y389D02*
X574Y389D01*
X609Y389D02*
X642Y389D01*
X1369Y389D02*
X1376Y389D01*
X0Y388D02*
X7Y388D01*
X252Y388D02*
X312Y388D01*
X326Y388D02*
X372Y388D01*
X421Y388D02*
X437Y388D01*
X467Y388D02*
X483Y388D01*
X489Y388D02*
X505Y388D01*
X533Y388D02*
X574Y388D01*
X607Y388D02*
X627Y388D01*
X639Y388D02*
X642Y388D01*
X1369Y388D02*
X1376Y388D01*
X0Y387D02*
X7Y387D01*
X252Y387D02*
X312Y387D01*
X326Y387D02*
X337Y387D01*
X349Y387D02*
X373Y387D01*
X420Y387D02*
X437Y387D01*
X466Y387D02*
X479Y387D01*
X494Y387D02*
X506Y387D01*
X533Y387D02*
X574Y387D01*
X606Y387D02*
X622Y387D01*
X1369Y387D02*
X1376Y387D01*
X0Y386D02*
X7Y386D01*
X277Y386D02*
X287Y386D01*
X326Y386D02*
X336Y386D01*
X357Y386D02*
X374Y386D01*
X419Y386D02*
X437Y386D01*
X465Y386D02*
X477Y386D01*
X496Y386D02*
X507Y386D01*
X533Y386D02*
X542Y386D01*
X605Y386D02*
X618Y386D01*
X1369Y386D02*
X1376Y386D01*
X0Y385D02*
X7Y385D01*
X277Y385D02*
X287Y385D01*
X326Y385D02*
X336Y385D01*
X361Y385D02*
X375Y385D01*
X418Y385D02*
X426Y385D01*
X428Y385D02*
X437Y385D01*
X464Y385D02*
X475Y385D01*
X497Y385D02*
X508Y385D01*
X533Y385D02*
X542Y385D01*
X604Y385D02*
X616Y385D01*
X1369Y385D02*
X1376Y385D01*
X0Y384D02*
X7Y384D01*
X277Y384D02*
X287Y384D01*
X326Y384D02*
X336Y384D01*
X363Y384D02*
X376Y384D01*
X417Y384D02*
X425Y384D01*
X428Y384D02*
X437Y384D01*
X464Y384D02*
X474Y384D01*
X498Y384D02*
X509Y384D01*
X532Y384D02*
X542Y384D01*
X603Y384D02*
X615Y384D01*
X1369Y384D02*
X1376Y384D01*
X0Y383D02*
X7Y383D01*
X277Y383D02*
X287Y383D01*
X326Y383D02*
X336Y383D01*
X364Y383D02*
X376Y383D01*
X416Y383D02*
X425Y383D01*
X428Y383D02*
X437Y383D01*
X463Y383D02*
X474Y383D01*
X499Y383D02*
X509Y383D01*
X532Y383D02*
X542Y383D01*
X602Y383D02*
X613Y383D01*
X1369Y383D02*
X1376Y383D01*
X0Y382D02*
X7Y382D01*
X277Y382D02*
X287Y382D01*
X326Y382D02*
X336Y382D01*
X365Y382D02*
X377Y382D01*
X415Y382D02*
X424Y382D01*
X428Y382D02*
X437Y382D01*
X462Y382D02*
X473Y382D01*
X500Y382D02*
X510Y382D01*
X532Y382D02*
X541Y382D01*
X601Y382D02*
X612Y382D01*
X1369Y382D02*
X1376Y382D01*
X0Y381D02*
X7Y381D01*
X277Y381D02*
X287Y381D01*
X326Y381D02*
X336Y381D01*
X366Y381D02*
X377Y381D01*
X414Y381D02*
X423Y381D01*
X428Y381D02*
X437Y381D01*
X462Y381D02*
X472Y381D01*
X500Y381D02*
X510Y381D01*
X532Y381D02*
X541Y381D01*
X600Y381D02*
X611Y381D01*
X1369Y381D02*
X1376Y381D01*
X0Y380D02*
X7Y380D01*
X277Y380D02*
X287Y380D01*
X326Y380D02*
X336Y380D01*
X366Y380D02*
X377Y380D01*
X413Y380D02*
X422Y380D01*
X428Y380D02*
X437Y380D01*
X462Y380D02*
X472Y380D01*
X501Y380D02*
X511Y380D01*
X532Y380D02*
X541Y380D01*
X600Y380D02*
X610Y380D01*
X1369Y380D02*
X1376Y380D01*
X0Y379D02*
X7Y379D01*
X277Y379D02*
X287Y379D01*
X326Y379D02*
X336Y379D01*
X367Y379D02*
X377Y379D01*
X412Y379D02*
X421Y379D01*
X428Y379D02*
X437Y379D01*
X461Y379D02*
X471Y379D01*
X501Y379D02*
X511Y379D01*
X532Y379D02*
X541Y379D01*
X599Y379D02*
X609Y379D01*
X1369Y379D02*
X1376Y379D01*
X0Y378D02*
X7Y378D01*
X277Y378D02*
X287Y378D01*
X326Y378D02*
X336Y378D01*
X367Y378D02*
X378Y378D01*
X411Y378D02*
X421Y378D01*
X428Y378D02*
X437Y378D01*
X461Y378D02*
X471Y378D01*
X502Y378D02*
X512Y378D01*
X532Y378D02*
X541Y378D01*
X599Y378D02*
X609Y378D01*
X1369Y378D02*
X1376Y378D01*
X0Y377D02*
X7Y377D01*
X277Y377D02*
X287Y377D01*
X326Y377D02*
X336Y377D01*
X367Y377D02*
X378Y377D01*
X410Y377D02*
X420Y377D01*
X428Y377D02*
X437Y377D01*
X461Y377D02*
X471Y377D01*
X502Y377D02*
X512Y377D01*
X532Y377D02*
X541Y377D01*
X598Y377D02*
X608Y377D01*
X1369Y377D02*
X1376Y377D01*
X0Y376D02*
X7Y376D01*
X277Y376D02*
X287Y376D01*
X326Y376D02*
X336Y376D01*
X367Y376D02*
X378Y376D01*
X409Y376D02*
X419Y376D01*
X428Y376D02*
X437Y376D01*
X460Y376D02*
X470Y376D01*
X502Y376D02*
X512Y376D01*
X532Y376D02*
X541Y376D01*
X598Y376D02*
X608Y376D01*
X1369Y376D02*
X1376Y376D01*
X0Y375D02*
X7Y375D01*
X277Y375D02*
X287Y375D01*
X326Y375D02*
X336Y375D01*
X367Y375D02*
X378Y375D01*
X408Y375D02*
X418Y375D01*
X428Y375D02*
X437Y375D01*
X460Y375D02*
X470Y375D01*
X503Y375D02*
X513Y375D01*
X531Y375D02*
X540Y375D01*
X597Y375D02*
X607Y375D01*
X1369Y375D02*
X1376Y375D01*
X0Y374D02*
X7Y374D01*
X277Y374D02*
X287Y374D01*
X326Y374D02*
X336Y374D01*
X367Y374D02*
X378Y374D01*
X407Y374D02*
X417Y374D01*
X427Y374D02*
X437Y374D01*
X460Y374D02*
X470Y374D01*
X503Y374D02*
X513Y374D01*
X531Y374D02*
X540Y374D01*
X597Y374D02*
X607Y374D01*
X1369Y374D02*
X1376Y374D01*
X0Y373D02*
X7Y373D01*
X277Y373D02*
X287Y373D01*
X326Y373D02*
X336Y373D01*
X367Y373D02*
X377Y373D01*
X406Y373D02*
X416Y373D01*
X427Y373D02*
X437Y373D01*
X460Y373D02*
X470Y373D01*
X503Y373D02*
X513Y373D01*
X531Y373D02*
X540Y373D01*
X597Y373D02*
X606Y373D01*
X1369Y373D02*
X1376Y373D01*
X0Y372D02*
X7Y372D01*
X277Y372D02*
X287Y372D01*
X326Y372D02*
X336Y372D01*
X367Y372D02*
X377Y372D01*
X405Y372D02*
X415Y372D01*
X427Y372D02*
X437Y372D01*
X460Y372D02*
X470Y372D01*
X503Y372D02*
X513Y372D01*
X531Y372D02*
X540Y372D01*
X596Y372D02*
X606Y372D01*
X1369Y372D02*
X1376Y372D01*
X0Y371D02*
X7Y371D01*
X277Y371D02*
X287Y371D01*
X326Y371D02*
X336Y371D01*
X366Y371D02*
X377Y371D01*
X404Y371D02*
X414Y371D01*
X427Y371D02*
X437Y371D01*
X459Y371D02*
X469Y371D01*
X503Y371D02*
X513Y371D01*
X531Y371D02*
X540Y371D01*
X596Y371D02*
X606Y371D01*
X1369Y371D02*
X1376Y371D01*
X0Y370D02*
X7Y370D01*
X277Y370D02*
X287Y370D01*
X326Y370D02*
X336Y370D01*
X366Y370D02*
X377Y370D01*
X403Y370D02*
X413Y370D01*
X427Y370D02*
X437Y370D01*
X459Y370D02*
X469Y370D01*
X504Y370D02*
X514Y370D01*
X531Y370D02*
X540Y370D01*
X547Y370D02*
X557Y370D01*
X596Y370D02*
X606Y370D01*
X617Y370D02*
X633Y370D01*
X1369Y370D02*
X1376Y370D01*
X0Y369D02*
X7Y369D01*
X277Y369D02*
X287Y369D01*
X326Y369D02*
X336Y369D01*
X365Y369D02*
X376Y369D01*
X402Y369D02*
X412Y369D01*
X427Y369D02*
X437Y369D01*
X459Y369D02*
X469Y369D01*
X504Y369D02*
X514Y369D01*
X531Y369D02*
X563Y369D01*
X596Y369D02*
X606Y369D01*
X614Y369D02*
X637Y369D01*
X1369Y369D02*
X1376Y369D01*
X0Y368D02*
X7Y368D01*
X277Y368D02*
X287Y368D01*
X326Y368D02*
X336Y368D01*
X364Y368D02*
X376Y368D01*
X401Y368D02*
X411Y368D01*
X427Y368D02*
X437Y368D01*
X459Y368D02*
X469Y368D01*
X504Y368D02*
X514Y368D01*
X531Y368D02*
X567Y368D01*
X596Y368D02*
X605Y368D01*
X612Y368D02*
X639Y368D01*
X1369Y368D02*
X1376Y368D01*
X0Y367D02*
X7Y367D01*
X277Y367D02*
X287Y367D01*
X326Y367D02*
X336Y367D01*
X363Y367D02*
X375Y367D01*
X400Y367D02*
X410Y367D01*
X427Y367D02*
X437Y367D01*
X459Y367D02*
X469Y367D01*
X504Y367D02*
X514Y367D01*
X530Y367D02*
X569Y367D01*
X595Y367D02*
X605Y367D01*
X610Y367D02*
X641Y367D01*
X1369Y367D02*
X1376Y367D01*
X0Y366D02*
X7Y366D01*
X277Y366D02*
X287Y366D01*
X326Y366D02*
X336Y366D01*
X362Y366D02*
X374Y366D01*
X399Y366D02*
X409Y366D01*
X427Y366D02*
X437Y366D01*
X459Y366D02*
X469Y366D01*
X504Y366D02*
X514Y366D01*
X530Y366D02*
X572Y366D01*
X595Y366D02*
X605Y366D01*
X609Y366D02*
X642Y366D01*
X1369Y366D02*
X1376Y366D01*
X0Y365D02*
X7Y365D01*
X277Y365D02*
X287Y365D01*
X326Y365D02*
X336Y365D01*
X359Y365D02*
X374Y365D01*
X398Y365D02*
X408Y365D01*
X427Y365D02*
X437Y365D01*
X459Y365D02*
X469Y365D01*
X504Y365D02*
X514Y365D01*
X531Y365D02*
X573Y365D01*
X595Y365D02*
X605Y365D01*
X608Y365D02*
X644Y365D01*
X1369Y365D02*
X1376Y365D01*
X0Y364D02*
X7Y364D01*
X277Y364D02*
X287Y364D01*
X326Y364D02*
X336Y364D01*
X356Y364D02*
X373Y364D01*
X397Y364D02*
X407Y364D01*
X427Y364D02*
X437Y364D01*
X459Y364D02*
X469Y364D01*
X504Y364D02*
X514Y364D01*
X533Y364D02*
X575Y364D01*
X595Y364D02*
X605Y364D01*
X607Y364D02*
X615Y364D01*
X631Y364D02*
X645Y364D01*
X1369Y364D02*
X1376Y364D01*
X0Y363D02*
X7Y363D01*
X277Y363D02*
X287Y363D01*
X326Y363D02*
X371Y363D01*
X396Y363D02*
X406Y363D01*
X427Y363D02*
X437Y363D01*
X459Y363D02*
X469Y363D01*
X504Y363D02*
X514Y363D01*
X535Y363D02*
X537Y363D01*
X558Y363D02*
X576Y363D01*
X595Y363D02*
X613Y363D01*
X633Y363D02*
X645Y363D01*
X1369Y363D02*
X1376Y363D01*
X0Y362D02*
X7Y362D01*
X277Y362D02*
X287Y362D01*
X326Y362D02*
X370Y362D01*
X396Y362D02*
X405Y362D01*
X427Y362D02*
X437Y362D01*
X459Y362D02*
X469Y362D01*
X504Y362D02*
X514Y362D01*
X562Y362D02*
X577Y362D01*
X595Y362D02*
X611Y362D01*
X635Y362D02*
X646Y362D01*
X1369Y362D02*
X1376Y362D01*
X0Y361D02*
X7Y361D01*
X277Y361D02*
X287Y361D01*
X326Y361D02*
X368Y361D01*
X395Y361D02*
X404Y361D01*
X427Y361D02*
X437Y361D01*
X459Y361D02*
X469Y361D01*
X504Y361D02*
X514Y361D01*
X564Y361D02*
X578Y361D01*
X595Y361D02*
X609Y361D01*
X636Y361D02*
X647Y361D01*
X1369Y361D02*
X1376Y361D01*
X0Y360D02*
X7Y360D01*
X277Y360D02*
X287Y360D01*
X326Y360D02*
X366Y360D01*
X394Y360D02*
X403Y360D01*
X427Y360D02*
X437Y360D01*
X459Y360D02*
X469Y360D01*
X504Y360D02*
X514Y360D01*
X566Y360D02*
X578Y360D01*
X595Y360D02*
X608Y360D01*
X637Y360D02*
X647Y360D01*
X1369Y360D02*
X1376Y360D01*
X0Y359D02*
X7Y359D01*
X277Y359D02*
X287Y359D01*
X326Y359D02*
X364Y359D01*
X393Y359D02*
X402Y359D01*
X427Y359D02*
X437Y359D01*
X459Y359D02*
X469Y359D01*
X504Y359D02*
X514Y359D01*
X567Y359D02*
X579Y359D01*
X595Y359D02*
X607Y359D01*
X638Y359D02*
X648Y359D01*
X1369Y359D02*
X1376Y359D01*
X0Y358D02*
X7Y358D01*
X277Y358D02*
X287Y358D01*
X326Y358D02*
X360Y358D01*
X392Y358D02*
X401Y358D01*
X427Y358D02*
X437Y358D01*
X459Y358D02*
X469Y358D01*
X504Y358D02*
X514Y358D01*
X568Y358D02*
X579Y358D01*
X595Y358D02*
X606Y358D01*
X638Y358D02*
X648Y358D01*
X1369Y358D02*
X1376Y358D01*
X0Y357D02*
X7Y357D01*
X277Y357D02*
X287Y357D01*
X326Y357D02*
X354Y357D01*
X391Y357D02*
X400Y357D01*
X427Y357D02*
X437Y357D01*
X459Y357D02*
X469Y357D01*
X504Y357D02*
X514Y357D01*
X569Y357D02*
X580Y357D01*
X595Y357D02*
X606Y357D01*
X639Y357D02*
X649Y357D01*
X1369Y357D02*
X1376Y357D01*
X0Y356D02*
X7Y356D01*
X277Y356D02*
X287Y356D01*
X326Y356D02*
X336Y356D01*
X390Y356D02*
X399Y356D01*
X427Y356D02*
X437Y356D01*
X459Y356D02*
X469Y356D01*
X503Y356D02*
X513Y356D01*
X569Y356D02*
X580Y356D01*
X595Y356D02*
X605Y356D01*
X639Y356D02*
X649Y356D01*
X1369Y356D02*
X1376Y356D01*
X0Y355D02*
X7Y355D01*
X277Y355D02*
X287Y355D01*
X326Y355D02*
X336Y355D01*
X389Y355D02*
X398Y355D01*
X427Y355D02*
X437Y355D01*
X460Y355D02*
X470Y355D01*
X503Y355D02*
X513Y355D01*
X570Y355D02*
X580Y355D01*
X595Y355D02*
X605Y355D01*
X639Y355D02*
X649Y355D01*
X1369Y355D02*
X1376Y355D01*
X0Y354D02*
X7Y354D01*
X277Y354D02*
X287Y354D01*
X326Y354D02*
X336Y354D01*
X388Y354D02*
X397Y354D01*
X427Y354D02*
X437Y354D01*
X460Y354D02*
X470Y354D01*
X503Y354D02*
X513Y354D01*
X570Y354D02*
X580Y354D01*
X595Y354D02*
X605Y354D01*
X639Y354D02*
X649Y354D01*
X1369Y354D02*
X1376Y354D01*
X0Y353D02*
X7Y353D01*
X277Y353D02*
X287Y353D01*
X326Y353D02*
X336Y353D01*
X387Y353D02*
X450Y353D01*
X460Y353D02*
X470Y353D01*
X503Y353D02*
X513Y353D01*
X570Y353D02*
X580Y353D01*
X595Y353D02*
X605Y353D01*
X639Y353D02*
X649Y353D01*
X1369Y353D02*
X1376Y353D01*
X0Y352D02*
X7Y352D01*
X277Y352D02*
X287Y352D01*
X326Y352D02*
X336Y352D01*
X387Y352D02*
X450Y352D01*
X460Y352D02*
X470Y352D01*
X503Y352D02*
X513Y352D01*
X570Y352D02*
X580Y352D01*
X596Y352D02*
X605Y352D01*
X639Y352D02*
X649Y352D01*
X1369Y352D02*
X1376Y352D01*
X0Y351D02*
X7Y351D01*
X277Y351D02*
X287Y351D01*
X326Y351D02*
X336Y351D01*
X387Y351D02*
X450Y351D01*
X460Y351D02*
X470Y351D01*
X503Y351D02*
X513Y351D01*
X570Y351D02*
X580Y351D01*
X596Y351D02*
X605Y351D01*
X639Y351D02*
X649Y351D01*
X1369Y351D02*
X1376Y351D01*
X0Y350D02*
X7Y350D01*
X277Y350D02*
X287Y350D01*
X326Y350D02*
X336Y350D01*
X387Y350D02*
X450Y350D01*
X461Y350D02*
X471Y350D01*
X502Y350D02*
X512Y350D01*
X570Y350D02*
X580Y350D01*
X596Y350D02*
X605Y350D01*
X639Y350D02*
X649Y350D01*
X1369Y350D02*
X1376Y350D01*
X0Y349D02*
X7Y349D01*
X277Y349D02*
X287Y349D01*
X326Y349D02*
X336Y349D01*
X387Y349D02*
X450Y349D01*
X461Y349D02*
X471Y349D01*
X502Y349D02*
X512Y349D01*
X570Y349D02*
X580Y349D01*
X596Y349D02*
X606Y349D01*
X639Y349D02*
X649Y349D01*
X1369Y349D02*
X1376Y349D01*
X0Y348D02*
X7Y348D01*
X277Y348D02*
X287Y348D01*
X326Y348D02*
X336Y348D01*
X387Y348D02*
X450Y348D01*
X461Y348D02*
X471Y348D01*
X502Y348D02*
X512Y348D01*
X570Y348D02*
X580Y348D01*
X597Y348D02*
X606Y348D01*
X639Y348D02*
X649Y348D01*
X1369Y348D02*
X1376Y348D01*
X0Y347D02*
X7Y347D01*
X277Y347D02*
X287Y347D01*
X326Y347D02*
X336Y347D01*
X387Y347D02*
X450Y347D01*
X462Y347D02*
X472Y347D01*
X501Y347D02*
X511Y347D01*
X569Y347D02*
X580Y347D01*
X597Y347D02*
X607Y347D01*
X639Y347D02*
X648Y347D01*
X1369Y347D02*
X1376Y347D01*
X0Y346D02*
X7Y346D01*
X277Y346D02*
X287Y346D01*
X326Y346D02*
X336Y346D01*
X427Y346D02*
X437Y346D01*
X462Y346D02*
X472Y346D01*
X501Y346D02*
X511Y346D01*
X569Y346D02*
X579Y346D01*
X598Y346D02*
X607Y346D01*
X638Y346D02*
X648Y346D01*
X1369Y346D02*
X1376Y346D01*
X0Y345D02*
X7Y345D01*
X277Y345D02*
X287Y345D01*
X326Y345D02*
X336Y345D01*
X427Y345D02*
X437Y345D01*
X463Y345D02*
X473Y345D01*
X500Y345D02*
X510Y345D01*
X568Y345D02*
X579Y345D01*
X598Y345D02*
X608Y345D01*
X638Y345D02*
X648Y345D01*
X1369Y345D02*
X1376Y345D01*
X0Y344D02*
X7Y344D01*
X277Y344D02*
X287Y344D01*
X326Y344D02*
X336Y344D01*
X427Y344D02*
X437Y344D01*
X463Y344D02*
X473Y344D01*
X499Y344D02*
X510Y344D01*
X567Y344D02*
X578Y344D01*
X599Y344D02*
X609Y344D01*
X637Y344D02*
X647Y344D01*
X1369Y344D02*
X1376Y344D01*
X0Y343D02*
X7Y343D01*
X277Y343D02*
X287Y343D01*
X326Y343D02*
X336Y343D01*
X427Y343D02*
X437Y343D01*
X464Y343D02*
X474Y343D01*
X499Y343D02*
X509Y343D01*
X566Y343D02*
X578Y343D01*
X599Y343D02*
X610Y343D01*
X636Y343D02*
X647Y343D01*
X1369Y343D02*
X1376Y343D01*
X0Y342D02*
X7Y342D01*
X277Y342D02*
X287Y342D01*
X326Y342D02*
X336Y342D01*
X427Y342D02*
X437Y342D01*
X465Y342D02*
X475Y342D01*
X498Y342D02*
X509Y342D01*
X528Y342D02*
X529Y342D01*
X565Y342D02*
X577Y342D01*
X600Y342D02*
X611Y342D01*
X635Y342D02*
X646Y342D01*
X1369Y342D02*
X1376Y342D01*
X0Y341D02*
X7Y341D01*
X277Y341D02*
X287Y341D01*
X326Y341D02*
X336Y341D01*
X427Y341D02*
X437Y341D01*
X465Y341D02*
X476Y341D01*
X496Y341D02*
X508Y341D01*
X528Y341D02*
X532Y341D01*
X563Y341D02*
X576Y341D01*
X601Y341D02*
X612Y341D01*
X634Y341D02*
X645Y341D01*
X1369Y341D02*
X1376Y341D01*
X0Y340D02*
X7Y340D01*
X277Y340D02*
X287Y340D01*
X326Y340D02*
X336Y340D01*
X427Y340D02*
X437Y340D01*
X466Y340D02*
X478Y340D01*
X494Y340D02*
X507Y340D01*
X528Y340D02*
X536Y340D01*
X561Y340D02*
X575Y340D01*
X602Y340D02*
X614Y340D01*
X632Y340D02*
X644Y340D01*
X1369Y340D02*
X1376Y340D01*
X0Y339D02*
X7Y339D01*
X277Y339D02*
X287Y339D01*
X326Y339D02*
X336Y339D01*
X427Y339D02*
X437Y339D01*
X467Y339D02*
X481Y339D01*
X491Y339D02*
X506Y339D01*
X528Y339D02*
X542Y339D01*
X556Y339D02*
X574Y339D01*
X603Y339D02*
X617Y339D01*
X628Y339D02*
X644Y339D01*
X1369Y339D02*
X1376Y339D01*
X0Y338D02*
X7Y338D01*
X277Y338D02*
X287Y338D01*
X326Y338D02*
X336Y338D01*
X427Y338D02*
X437Y338D01*
X468Y338D02*
X505Y338D01*
X528Y338D02*
X573Y338D01*
X604Y338D02*
X642Y338D01*
X1369Y338D02*
X1376Y338D01*
X0Y337D02*
X7Y337D01*
X277Y337D02*
X287Y337D01*
X326Y337D02*
X336Y337D01*
X427Y337D02*
X437Y337D01*
X469Y337D02*
X504Y337D01*
X528Y337D02*
X571Y337D01*
X605Y337D02*
X641Y337D01*
X1369Y337D02*
X1376Y337D01*
X0Y336D02*
X7Y336D01*
X277Y336D02*
X287Y336D01*
X326Y336D02*
X336Y336D01*
X427Y336D02*
X437Y336D01*
X471Y336D02*
X502Y336D01*
X528Y336D02*
X570Y336D01*
X607Y336D02*
X639Y336D01*
X1369Y336D02*
X1376Y336D01*
X0Y335D02*
X7Y335D01*
X277Y335D02*
X287Y335D01*
X326Y335D02*
X336Y335D01*
X427Y335D02*
X437Y335D01*
X473Y335D02*
X500Y335D01*
X530Y335D02*
X567Y335D01*
X609Y335D02*
X637Y335D01*
X1369Y335D02*
X1376Y335D01*
X0Y334D02*
X7Y334D01*
X277Y334D02*
X287Y334D01*
X326Y334D02*
X336Y334D01*
X427Y334D02*
X437Y334D01*
X475Y334D02*
X498Y334D01*
X533Y334D02*
X564Y334D01*
X611Y334D02*
X635Y334D01*
X1369Y334D02*
X1376Y334D01*
X0Y333D02*
X7Y333D01*
X277Y333D02*
X287Y333D01*
X327Y333D02*
X336Y333D01*
X428Y333D02*
X437Y333D01*
X478Y333D02*
X495Y333D01*
X538Y333D02*
X560Y333D01*
X615Y333D02*
X631Y333D01*
X1369Y333D02*
X1376Y333D01*
X0Y332D02*
X7Y332D01*
X1369Y332D02*
X1376Y332D01*
X0Y331D02*
X7Y331D01*
X1369Y331D02*
X1376Y331D01*
X0Y330D02*
X7Y330D01*
X1369Y330D02*
X1376Y330D01*
X0Y329D02*
X7Y329D01*
X1369Y329D02*
X1376Y329D01*
X0Y328D02*
X7Y328D01*
X1369Y328D02*
X1376Y328D01*
X0Y327D02*
X7Y327D01*
X1369Y327D02*
X1376Y327D01*
X0Y326D02*
X7Y326D01*
X1369Y326D02*
X1376Y326D01*
X0Y325D02*
X7Y325D01*
X1369Y325D02*
X1376Y325D01*
X0Y324D02*
X7Y324D01*
X1369Y324D02*
X1376Y324D01*
X0Y323D02*
X7Y323D01*
X1369Y323D02*
X1376Y323D01*
X0Y322D02*
X7Y322D01*
X1369Y322D02*
X1376Y322D01*
X0Y321D02*
X7Y321D01*
X1369Y321D02*
X1376Y321D01*
X0Y320D02*
X7Y320D01*
X1369Y320D02*
X1376Y320D01*
X0Y319D02*
X7Y319D01*
X1369Y319D02*
X1376Y319D01*
X0Y318D02*
X7Y318D01*
X1369Y318D02*
X1376Y318D01*
X0Y317D02*
X7Y317D01*
X1369Y317D02*
X1376Y317D01*
X0Y316D02*
X7Y316D01*
X1369Y316D02*
X1376Y316D01*
X0Y315D02*
X7Y315D01*
X1369Y315D02*
X1376Y315D01*
X0Y314D02*
X7Y314D01*
X1369Y314D02*
X1376Y314D01*
X0Y313D02*
X7Y313D01*
X1369Y313D02*
X1376Y313D01*
X0Y312D02*
X7Y312D01*
X1369Y312D02*
X1376Y312D01*
X0Y311D02*
X7Y311D01*
X1369Y311D02*
X1376Y311D01*
X0Y310D02*
X7Y310D01*
X1369Y310D02*
X1376Y310D01*
X0Y309D02*
X7Y309D01*
X1369Y309D02*
X1376Y309D01*
X0Y308D02*
X7Y308D01*
X1369Y308D02*
X1376Y308D01*
X0Y307D02*
X7Y307D01*
X1369Y307D02*
X1376Y307D01*
X0Y306D02*
X7Y306D01*
X1369Y306D02*
X1376Y306D01*
X0Y305D02*
X7Y305D01*
X953Y305D02*
X973Y305D01*
X1369Y305D02*
X1376Y305D01*
X0Y304D02*
X7Y304D01*
X953Y304D02*
X976Y304D01*
X1369Y304D02*
X1376Y304D01*
X0Y303D02*
X7Y303D01*
X953Y303D02*
X977Y303D01*
X1369Y303D02*
X1376Y303D01*
X0Y302D02*
X7Y302D01*
X953Y302D02*
X979Y302D01*
X1369Y302D02*
X1376Y302D01*
X0Y301D02*
X7Y301D01*
X953Y301D02*
X980Y301D01*
X1369Y301D02*
X1376Y301D01*
X0Y300D02*
X7Y300D01*
X953Y300D02*
X981Y300D01*
X1369Y300D02*
X1376Y300D01*
X0Y299D02*
X7Y299D01*
X953Y299D02*
X959Y299D01*
X971Y299D02*
X981Y299D01*
X1369Y299D02*
X1376Y299D01*
X0Y298D02*
X7Y298D01*
X953Y298D02*
X958Y298D01*
X975Y298D02*
X982Y298D01*
X1369Y298D02*
X1376Y298D01*
X0Y297D02*
X7Y297D01*
X953Y297D02*
X958Y297D01*
X976Y297D02*
X982Y297D01*
X1369Y297D02*
X1376Y297D01*
X0Y296D02*
X7Y296D01*
X953Y296D02*
X958Y296D01*
X977Y296D02*
X982Y296D01*
X1369Y296D02*
X1376Y296D01*
X0Y295D02*
X7Y295D01*
X953Y295D02*
X958Y295D01*
X977Y295D02*
X983Y295D01*
X1369Y295D02*
X1376Y295D01*
X0Y294D02*
X7Y294D01*
X953Y294D02*
X958Y294D01*
X978Y294D02*
X983Y294D01*
X1369Y294D02*
X1376Y294D01*
X0Y293D02*
X7Y293D01*
X953Y293D02*
X958Y293D01*
X978Y293D02*
X983Y293D01*
X1369Y293D02*
X1376Y293D01*
X0Y292D02*
X7Y292D01*
X953Y292D02*
X958Y292D01*
X978Y292D02*
X983Y292D01*
X1369Y292D02*
X1376Y292D01*
X0Y291D02*
X7Y291D01*
X953Y291D02*
X958Y291D01*
X978Y291D02*
X983Y291D01*
X1369Y291D02*
X1376Y291D01*
X0Y290D02*
X7Y290D01*
X953Y290D02*
X958Y290D01*
X978Y290D02*
X983Y290D01*
X1369Y290D02*
X1376Y290D01*
X0Y289D02*
X7Y289D01*
X953Y289D02*
X958Y289D01*
X977Y289D02*
X983Y289D01*
X1369Y289D02*
X1376Y289D01*
X0Y288D02*
X7Y288D01*
X953Y288D02*
X958Y288D01*
X977Y288D02*
X983Y288D01*
X1369Y288D02*
X1376Y288D01*
X0Y287D02*
X7Y287D01*
X953Y287D02*
X958Y287D01*
X976Y287D02*
X982Y287D01*
X1369Y287D02*
X1376Y287D01*
X0Y286D02*
X7Y286D01*
X953Y286D02*
X958Y286D01*
X976Y286D02*
X982Y286D01*
X1369Y286D02*
X1376Y286D01*
X0Y285D02*
X7Y285D01*
X953Y285D02*
X958Y285D01*
X974Y285D02*
X982Y285D01*
X1369Y285D02*
X1376Y285D01*
X0Y284D02*
X7Y284D01*
X953Y284D02*
X981Y284D01*
X1000Y284D02*
X1026Y284D01*
X1369Y284D02*
X1376Y284D01*
X0Y283D02*
X7Y283D01*
X953Y283D02*
X980Y283D01*
X998Y283D02*
X1027Y283D01*
X1369Y283D02*
X1376Y283D01*
X0Y282D02*
X7Y282D01*
X953Y282D02*
X979Y282D01*
X998Y282D02*
X1027Y282D01*
X1369Y282D02*
X1376Y282D01*
X0Y281D02*
X7Y281D01*
X953Y281D02*
X979Y281D01*
X998Y281D02*
X1028Y281D01*
X1369Y281D02*
X1376Y281D01*
X0Y280D02*
X7Y280D01*
X953Y280D02*
X980Y280D01*
X998Y280D02*
X1028Y280D01*
X1369Y280D02*
X1376Y280D01*
X0Y279D02*
X7Y279D01*
X953Y279D02*
X981Y279D01*
X998Y279D02*
X1028Y279D01*
X1369Y279D02*
X1376Y279D01*
X0Y278D02*
X7Y278D01*
X953Y278D02*
X981Y278D01*
X998Y278D02*
X1028Y278D01*
X1369Y278D02*
X1376Y278D01*
X0Y277D02*
X7Y277D01*
X953Y277D02*
X958Y277D01*
X975Y277D02*
X982Y277D01*
X998Y277D02*
X1027Y277D01*
X1369Y277D02*
X1376Y277D01*
X0Y276D02*
X7Y276D01*
X953Y276D02*
X958Y276D01*
X976Y276D02*
X982Y276D01*
X999Y276D02*
X1026Y276D01*
X1369Y276D02*
X1376Y276D01*
X0Y275D02*
X7Y275D01*
X953Y275D02*
X958Y275D01*
X977Y275D02*
X982Y275D01*
X1369Y275D02*
X1376Y275D01*
X0Y274D02*
X7Y274D01*
X953Y274D02*
X958Y274D01*
X977Y274D02*
X983Y274D01*
X1369Y274D02*
X1376Y274D01*
X0Y273D02*
X7Y273D01*
X953Y273D02*
X958Y273D01*
X978Y273D02*
X983Y273D01*
X1369Y273D02*
X1376Y273D01*
X0Y272D02*
X7Y272D01*
X953Y272D02*
X958Y272D01*
X978Y272D02*
X983Y272D01*
X1369Y272D02*
X1376Y272D01*
X0Y271D02*
X7Y271D01*
X953Y271D02*
X958Y271D01*
X978Y271D02*
X983Y271D01*
X1369Y271D02*
X1376Y271D01*
X0Y270D02*
X7Y270D01*
X953Y270D02*
X958Y270D01*
X978Y270D02*
X983Y270D01*
X1369Y270D02*
X1376Y270D01*
X0Y269D02*
X7Y269D01*
X953Y269D02*
X958Y269D01*
X978Y269D02*
X983Y269D01*
X1369Y269D02*
X1376Y269D01*
X0Y268D02*
X7Y268D01*
X953Y268D02*
X958Y268D01*
X977Y268D02*
X983Y268D01*
X1369Y268D02*
X1376Y268D01*
X0Y267D02*
X7Y267D01*
X953Y267D02*
X958Y267D01*
X977Y267D02*
X983Y267D01*
X1369Y267D02*
X1376Y267D01*
X0Y266D02*
X7Y266D01*
X953Y266D02*
X958Y266D01*
X976Y266D02*
X982Y266D01*
X1369Y266D02*
X1376Y266D01*
X0Y265D02*
X7Y265D01*
X953Y265D02*
X958Y265D01*
X976Y265D02*
X982Y265D01*
X1369Y265D02*
X1376Y265D01*
X0Y264D02*
X7Y264D01*
X953Y264D02*
X958Y264D01*
X974Y264D02*
X982Y264D01*
X1369Y264D02*
X1376Y264D01*
X0Y263D02*
X7Y263D01*
X953Y263D02*
X981Y263D01*
X1369Y263D02*
X1376Y263D01*
X0Y262D02*
X7Y262D01*
X953Y262D02*
X980Y262D01*
X1369Y262D02*
X1376Y262D01*
X0Y261D02*
X7Y261D01*
X953Y261D02*
X980Y261D01*
X1369Y261D02*
X1376Y261D01*
X0Y260D02*
X7Y260D01*
X953Y260D02*
X978Y260D01*
X1369Y260D02*
X1376Y260D01*
X0Y259D02*
X7Y259D01*
X953Y259D02*
X977Y259D01*
X1369Y259D02*
X1376Y259D01*
X0Y258D02*
X7Y258D01*
X953Y258D02*
X975Y258D01*
X1369Y258D02*
X1376Y258D01*
X0Y257D02*
X7Y257D01*
X953Y257D02*
X972Y257D01*
X1369Y257D02*
X1376Y257D01*
X0Y256D02*
X7Y256D01*
X1369Y256D02*
X1376Y256D01*
X0Y255D02*
X7Y255D01*
X1369Y255D02*
X1376Y255D01*
X0Y254D02*
X7Y254D01*
X1369Y254D02*
X1376Y254D01*
X0Y253D02*
X7Y253D01*
X1369Y253D02*
X1376Y253D01*
X0Y252D02*
X7Y252D01*
X1369Y252D02*
X1376Y252D01*
X0Y251D02*
X7Y251D01*
X1369Y251D02*
X1376Y251D01*
X0Y250D02*
X7Y250D01*
X1369Y250D02*
X1376Y250D01*
X0Y249D02*
X7Y249D01*
X1369Y249D02*
X1376Y249D01*
X0Y248D02*
X7Y248D01*
X1369Y248D02*
X1376Y248D01*
X0Y247D02*
X7Y247D01*
X1369Y247D02*
X1376Y247D01*
X0Y246D02*
X7Y246D01*
X1369Y246D02*
X1376Y246D01*
X0Y245D02*
X7Y245D01*
X1369Y245D02*
X1376Y245D01*
X0Y244D02*
X7Y244D01*
X1369Y244D02*
X1376Y244D01*
X0Y243D02*
X7Y243D01*
X1369Y243D02*
X1376Y243D01*
X0Y242D02*
X7Y242D01*
X1369Y242D02*
X1376Y242D01*
X0Y241D02*
X7Y241D01*
X1369Y241D02*
X1376Y241D01*
X0Y240D02*
X7Y240D01*
X1369Y240D02*
X1376Y240D01*
X0Y239D02*
X7Y239D01*
X1369Y239D02*
X1376Y239D01*
X0Y238D02*
X7Y238D01*
X1369Y238D02*
X1376Y238D01*
X0Y237D02*
X7Y237D01*
X1369Y237D02*
X1376Y237D01*
X0Y236D02*
X7Y236D01*
X1369Y236D02*
X1376Y236D01*
X0Y235D02*
X7Y235D01*
X1369Y235D02*
X1376Y235D01*
X0Y234D02*
X7Y234D01*
X1369Y234D02*
X1376Y234D01*
X0Y233D02*
X7Y233D01*
X1369Y233D02*
X1376Y233D01*
X0Y232D02*
X7Y232D01*
X1369Y232D02*
X1376Y232D01*
X0Y231D02*
X7Y231D01*
X1369Y231D02*
X1376Y231D01*
X0Y230D02*
X7Y230D01*
X1369Y230D02*
X1376Y230D01*
X0Y229D02*
X7Y229D01*
X1369Y229D02*
X1376Y229D01*
X0Y228D02*
X7Y228D01*
X1369Y228D02*
X1376Y228D01*
X0Y227D02*
X7Y227D01*
X1369Y227D02*
X1376Y227D01*
X0Y226D02*
X7Y226D01*
X1369Y226D02*
X1376Y226D01*
X0Y225D02*
X7Y225D01*
X1369Y225D02*
X1376Y225D01*
X0Y224D02*
X7Y224D01*
X1369Y224D02*
X1376Y224D01*
X0Y223D02*
X7Y223D01*
X1369Y223D02*
X1376Y223D01*
X0Y222D02*
X7Y222D01*
X1369Y222D02*
X1376Y222D01*
X0Y221D02*
X7Y221D01*
X1369Y221D02*
X1376Y221D01*
X0Y220D02*
X7Y220D01*
X1369Y220D02*
X1376Y220D01*
X0Y219D02*
X7Y219D01*
X1369Y219D02*
X1376Y219D01*
X0Y218D02*
X7Y218D01*
X1369Y218D02*
X1376Y218D01*
X0Y217D02*
X7Y217D01*
X1369Y217D02*
X1376Y217D01*
X0Y216D02*
X7Y216D01*
X1369Y216D02*
X1376Y216D01*
X0Y215D02*
X7Y215D01*
X1369Y215D02*
X1376Y215D01*
X0Y214D02*
X7Y214D01*
X1369Y214D02*
X1376Y214D01*
X0Y213D02*
X7Y213D01*
X1369Y213D02*
X1376Y213D01*
X0Y212D02*
X7Y212D01*
X1369Y212D02*
X1376Y212D01*
X0Y211D02*
X7Y211D01*
X1369Y211D02*
X1376Y211D01*
X0Y210D02*
X7Y210D01*
X1369Y210D02*
X1376Y210D01*
X0Y209D02*
X7Y209D01*
X1369Y209D02*
X1376Y209D01*
X0Y208D02*
X7Y208D01*
X1369Y208D02*
X1376Y208D01*
X0Y207D02*
X7Y207D01*
X1369Y207D02*
X1376Y207D01*
X0Y206D02*
X7Y206D01*
X1369Y206D02*
X1376Y206D01*
X0Y205D02*
X7Y205D01*
X1369Y205D02*
X1376Y205D01*
X0Y204D02*
X7Y204D01*
X1369Y204D02*
X1376Y204D01*
X0Y203D02*
X7Y203D01*
X1369Y203D02*
X1376Y203D01*
X0Y202D02*
X7Y202D01*
X1369Y202D02*
X1376Y202D01*
X0Y201D02*
X7Y201D01*
X1369Y201D02*
X1376Y201D01*
X0Y200D02*
X7Y200D01*
X1369Y200D02*
X1376Y200D01*
X0Y199D02*
X7Y199D01*
X1369Y199D02*
X1376Y199D01*
X0Y198D02*
X7Y198D01*
X1369Y198D02*
X1376Y198D01*
X0Y197D02*
X7Y197D01*
X1369Y197D02*
X1376Y197D01*
X0Y196D02*
X7Y196D01*
X1369Y196D02*
X1376Y196D01*
X0Y195D02*
X7Y195D01*
X1369Y195D02*
X1376Y195D01*
X0Y194D02*
X7Y194D01*
X1369Y194D02*
X1376Y194D01*
X0Y193D02*
X7Y193D01*
X1369Y193D02*
X1376Y193D01*
X0Y192D02*
X7Y192D01*
X1369Y192D02*
X1376Y192D01*
X0Y191D02*
X7Y191D01*
X1369Y191D02*
X1376Y191D01*
X0Y190D02*
X7Y190D01*
X1369Y190D02*
X1376Y190D01*
X0Y189D02*
X7Y189D01*
X1369Y189D02*
X1376Y189D01*
X0Y188D02*
X7Y188D01*
X1369Y188D02*
X1376Y188D01*
X0Y187D02*
X7Y187D01*
X1369Y187D02*
X1376Y187D01*
X0Y186D02*
X7Y186D01*
X1369Y186D02*
X1376Y186D01*
X0Y185D02*
X7Y185D01*
X1369Y185D02*
X1376Y185D01*
X0Y184D02*
X7Y184D01*
X1369Y184D02*
X1376Y184D01*
X0Y183D02*
X7Y183D01*
X1369Y183D02*
X1376Y183D01*
X0Y182D02*
X7Y182D01*
X1369Y182D02*
X1376Y182D01*
X0Y181D02*
X7Y181D01*
X1369Y181D02*
X1376Y181D01*
X0Y180D02*
X7Y180D01*
X1369Y180D02*
X1376Y180D01*
X0Y179D02*
X7Y179D01*
X1369Y179D02*
X1376Y179D01*
X0Y178D02*
X7Y178D01*
X1369Y178D02*
X1376Y178D01*
X0Y177D02*
X7Y177D01*
X1369Y177D02*
X1376Y177D01*
X0Y176D02*
X7Y176D01*
X1369Y176D02*
X1376Y176D01*
X0Y175D02*
X7Y175D01*
X1369Y175D02*
X1376Y175D01*
X0Y174D02*
X7Y174D01*
X1369Y174D02*
X1376Y174D01*
X0Y173D02*
X7Y173D01*
X1369Y173D02*
X1376Y173D01*
X0Y172D02*
X7Y172D01*
X1369Y172D02*
X1376Y172D01*
X0Y171D02*
X7Y171D01*
X1369Y171D02*
X1376Y171D01*
X0Y170D02*
X7Y170D01*
X1369Y170D02*
X1376Y170D01*
X0Y169D02*
X7Y169D01*
X1369Y169D02*
X1376Y169D01*
X0Y168D02*
X7Y168D01*
X1369Y168D02*
X1376Y168D01*
X0Y167D02*
X7Y167D01*
X1369Y167D02*
X1376Y167D01*
X0Y166D02*
X7Y166D01*
X1369Y166D02*
X1376Y166D01*
X0Y165D02*
X7Y165D01*
X1369Y165D02*
X1376Y165D01*
X0Y164D02*
X7Y164D01*
X1369Y164D02*
X1376Y164D01*
X0Y163D02*
X7Y163D01*
X1369Y163D02*
X1376Y163D01*
X0Y162D02*
X7Y162D01*
X1369Y162D02*
X1376Y162D01*
X0Y161D02*
X7Y161D01*
X1369Y161D02*
X1376Y161D01*
X0Y160D02*
X7Y160D01*
X1369Y160D02*
X1376Y160D01*
X0Y159D02*
X7Y159D01*
X1369Y159D02*
X1376Y159D01*
X0Y158D02*
X7Y158D01*
X1369Y158D02*
X1376Y158D01*
X0Y157D02*
X7Y157D01*
X1369Y157D02*
X1376Y157D01*
X0Y156D02*
X7Y156D01*
X1369Y156D02*
X1376Y156D01*
X0Y155D02*
X7Y155D01*
X1369Y155D02*
X1376Y155D01*
X0Y154D02*
X7Y154D01*
X1369Y154D02*
X1376Y154D01*
X0Y153D02*
X7Y153D01*
X1369Y153D02*
X1376Y153D01*
X0Y152D02*
X7Y152D01*
X1369Y152D02*
X1376Y152D01*
X0Y151D02*
X7Y151D01*
X1369Y151D02*
X1376Y151D01*
X0Y150D02*
X7Y150D01*
X1369Y150D02*
X1376Y150D01*
X0Y149D02*
X7Y149D01*
X1369Y149D02*
X1376Y149D01*
X0Y148D02*
X7Y148D01*
X1369Y148D02*
X1376Y148D01*
X0Y147D02*
X7Y147D01*
X1369Y147D02*
X1376Y147D01*
X0Y146D02*
X7Y146D01*
X1369Y146D02*
X1376Y146D01*
X0Y145D02*
X7Y145D01*
X1369Y145D02*
X1376Y145D01*
X0Y144D02*
X7Y144D01*
X1369Y144D02*
X1376Y144D01*
X0Y143D02*
X7Y143D01*
X1369Y143D02*
X1376Y143D01*
X0Y142D02*
X7Y142D01*
X1369Y142D02*
X1376Y142D01*
X0Y141D02*
X7Y141D01*
X1369Y141D02*
X1376Y141D01*
X0Y140D02*
X7Y140D01*
X1369Y140D02*
X1376Y140D01*
X0Y139D02*
X7Y139D01*
X1369Y139D02*
X1376Y139D01*
X0Y138D02*
X7Y138D01*
X1369Y138D02*
X1376Y138D01*
X0Y137D02*
X7Y137D01*
X1369Y137D02*
X1376Y137D01*
X0Y136D02*
X7Y136D01*
X1369Y136D02*
X1376Y136D01*
X0Y135D02*
X7Y135D01*
X1369Y135D02*
X1376Y135D01*
X0Y134D02*
X7Y134D01*
X1369Y134D02*
X1376Y134D01*
X0Y133D02*
X7Y133D01*
X1369Y133D02*
X1376Y133D01*
X0Y132D02*
X7Y132D01*
X1369Y132D02*
X1376Y132D01*
X0Y131D02*
X7Y131D01*
X1369Y131D02*
X1376Y131D01*
X0Y130D02*
X7Y130D01*
X1369Y130D02*
X1376Y130D01*
X0Y129D02*
X7Y129D01*
X1369Y129D02*
X1376Y129D01*
X0Y128D02*
X7Y128D01*
X1369Y128D02*
X1376Y128D01*
X0Y127D02*
X7Y127D01*
X1369Y127D02*
X1376Y127D01*
X0Y126D02*
X7Y126D01*
X1369Y126D02*
X1376Y126D01*
X0Y125D02*
X7Y125D01*
X1369Y125D02*
X1376Y125D01*
X0Y124D02*
X7Y124D01*
X1369Y124D02*
X1376Y124D01*
X0Y123D02*
X7Y123D01*
X1369Y123D02*
X1376Y123D01*
X0Y122D02*
X7Y122D01*
X1369Y122D02*
X1376Y122D01*
X0Y121D02*
X7Y121D01*
X1369Y121D02*
X1376Y121D01*
X0Y120D02*
X7Y120D01*
X1369Y120D02*
X1376Y120D01*
X0Y119D02*
X7Y119D01*
X1369Y119D02*
X1376Y119D01*
X0Y118D02*
X7Y118D01*
X1369Y118D02*
X1376Y118D01*
X0Y117D02*
X7Y117D01*
X1369Y117D02*
X1376Y117D01*
X0Y116D02*
X7Y116D01*
X1369Y116D02*
X1376Y116D01*
X0Y115D02*
X7Y115D01*
X787Y115D02*
X788Y115D01*
X820Y115D02*
X821Y115D01*
X845Y115D02*
X845Y115D01*
X863Y115D02*
X892Y115D01*
X1369Y115D02*
X1376Y115D01*
X0Y114D02*
X7Y114D01*
X784Y114D02*
X791Y114D01*
X818Y114D02*
X822Y114D01*
X843Y114D02*
X847Y114D01*
X862Y114D02*
X892Y114D01*
X1369Y114D02*
X1376Y114D01*
X0Y113D02*
X7Y113D01*
X783Y113D02*
X793Y113D01*
X818Y113D02*
X823Y113D01*
X842Y113D02*
X847Y113D01*
X862Y113D02*
X892Y113D01*
X1369Y113D02*
X1376Y113D01*
X0Y112D02*
X7Y112D01*
X782Y112D02*
X794Y112D01*
X818Y112D02*
X823Y112D01*
X842Y112D02*
X847Y112D01*
X862Y112D02*
X892Y112D01*
X1369Y112D02*
X1376Y112D01*
X0Y111D02*
X7Y111D01*
X781Y111D02*
X794Y111D01*
X818Y111D02*
X823Y111D01*
X842Y111D02*
X848Y111D01*
X862Y111D02*
X892Y111D01*
X1369Y111D02*
X1376Y111D01*
X0Y110D02*
X7Y110D01*
X781Y110D02*
X795Y110D01*
X818Y110D02*
X823Y110D01*
X842Y110D02*
X848Y110D01*
X862Y110D02*
X892Y110D01*
X1369Y110D02*
X1376Y110D01*
X0Y109D02*
X7Y109D01*
X780Y109D02*
X795Y109D01*
X818Y109D02*
X823Y109D01*
X842Y109D02*
X848Y109D01*
X862Y109D02*
X892Y109D01*
X1369Y109D02*
X1376Y109D01*
X0Y108D02*
X7Y108D01*
X780Y108D02*
X786Y108D01*
X790Y108D02*
X796Y108D01*
X818Y108D02*
X823Y108D01*
X842Y108D02*
X848Y108D01*
X862Y108D02*
X868Y108D01*
X875Y108D02*
X880Y108D01*
X887Y108D02*
X892Y108D01*
X1369Y108D02*
X1376Y108D01*
X0Y107D02*
X7Y107D01*
X779Y107D02*
X785Y107D01*
X790Y107D02*
X796Y107D01*
X818Y107D02*
X823Y107D01*
X842Y107D02*
X848Y107D01*
X862Y107D02*
X868Y107D01*
X875Y107D02*
X880Y107D01*
X887Y107D02*
X892Y107D01*
X1369Y107D02*
X1376Y107D01*
X0Y106D02*
X7Y106D01*
X779Y106D02*
X785Y106D01*
X791Y106D02*
X797Y106D01*
X818Y106D02*
X823Y106D01*
X842Y106D02*
X848Y106D01*
X862Y106D02*
X867Y106D01*
X875Y106D02*
X880Y106D01*
X887Y106D02*
X892Y106D01*
X1369Y106D02*
X1376Y106D01*
X0Y105D02*
X7Y105D01*
X778Y105D02*
X784Y105D01*
X791Y105D02*
X797Y105D01*
X818Y105D02*
X823Y105D01*
X842Y105D02*
X848Y105D01*
X863Y105D02*
X867Y105D01*
X875Y105D02*
X880Y105D01*
X888Y105D02*
X892Y105D01*
X1369Y105D02*
X1376Y105D01*
X0Y104D02*
X7Y104D01*
X778Y104D02*
X784Y104D01*
X792Y104D02*
X798Y104D01*
X818Y104D02*
X823Y104D01*
X842Y104D02*
X848Y104D01*
X864Y104D02*
X866Y104D01*
X875Y104D02*
X880Y104D01*
X889Y104D02*
X890Y104D01*
X1369Y104D02*
X1376Y104D01*
X0Y103D02*
X7Y103D01*
X177Y103D02*
X202Y103D01*
X777Y103D02*
X783Y103D01*
X792Y103D02*
X798Y103D01*
X818Y103D02*
X823Y103D01*
X842Y103D02*
X848Y103D01*
X875Y103D02*
X880Y103D01*
X1369Y103D02*
X1376Y103D01*
X0Y102D02*
X7Y102D01*
X175Y102D02*
X203Y102D01*
X777Y102D02*
X783Y102D01*
X793Y102D02*
X799Y102D01*
X818Y102D02*
X823Y102D01*
X842Y102D02*
X848Y102D01*
X875Y102D02*
X880Y102D01*
X1369Y102D02*
X1376Y102D01*
X0Y101D02*
X7Y101D01*
X174Y101D02*
X204Y101D01*
X776Y101D02*
X782Y101D01*
X793Y101D02*
X799Y101D01*
X818Y101D02*
X823Y101D01*
X842Y101D02*
X848Y101D01*
X875Y101D02*
X880Y101D01*
X1369Y101D02*
X1376Y101D01*
X0Y100D02*
X7Y100D01*
X174Y100D02*
X204Y100D01*
X776Y100D02*
X782Y100D01*
X794Y100D02*
X800Y100D01*
X818Y100D02*
X823Y100D01*
X842Y100D02*
X848Y100D01*
X875Y100D02*
X880Y100D01*
X1369Y100D02*
X1376Y100D01*
X0Y99D02*
X7Y99D01*
X174Y99D02*
X204Y99D01*
X775Y99D02*
X781Y99D01*
X794Y99D02*
X800Y99D01*
X818Y99D02*
X823Y99D01*
X842Y99D02*
X848Y99D01*
X875Y99D02*
X880Y99D01*
X1369Y99D02*
X1376Y99D01*
X0Y98D02*
X7Y98D01*
X174Y98D02*
X204Y98D01*
X775Y98D02*
X781Y98D01*
X795Y98D02*
X801Y98D01*
X818Y98D02*
X823Y98D01*
X842Y98D02*
X848Y98D01*
X875Y98D02*
X880Y98D01*
X1369Y98D02*
X1376Y98D01*
X0Y97D02*
X7Y97D01*
X174Y97D02*
X204Y97D01*
X774Y97D02*
X780Y97D01*
X795Y97D02*
X801Y97D01*
X818Y97D02*
X823Y97D01*
X842Y97D02*
X848Y97D01*
X875Y97D02*
X880Y97D01*
X1369Y97D02*
X1376Y97D01*
X0Y96D02*
X7Y96D01*
X175Y96D02*
X204Y96D01*
X774Y96D02*
X780Y96D01*
X796Y96D02*
X802Y96D01*
X818Y96D02*
X823Y96D01*
X842Y96D02*
X848Y96D01*
X875Y96D02*
X880Y96D01*
X1369Y96D02*
X1376Y96D01*
X0Y95D02*
X7Y95D01*
X175Y95D02*
X203Y95D01*
X774Y95D02*
X779Y95D01*
X796Y95D02*
X802Y95D01*
X818Y95D02*
X823Y95D01*
X842Y95D02*
X848Y95D01*
X875Y95D02*
X880Y95D01*
X1369Y95D02*
X1376Y95D01*
X0Y94D02*
X7Y94D01*
X773Y94D02*
X779Y94D01*
X797Y94D02*
X802Y94D01*
X818Y94D02*
X823Y94D01*
X842Y94D02*
X848Y94D01*
X875Y94D02*
X880Y94D01*
X909Y94D02*
X934Y94D01*
X1369Y94D02*
X1376Y94D01*
X0Y93D02*
X7Y93D01*
X773Y93D02*
X778Y93D01*
X797Y93D02*
X803Y93D01*
X818Y93D02*
X823Y93D01*
X842Y93D02*
X848Y93D01*
X875Y93D02*
X880Y93D01*
X908Y93D02*
X936Y93D01*
X1369Y93D02*
X1376Y93D01*
X0Y92D02*
X7Y92D01*
X773Y92D02*
X778Y92D01*
X797Y92D02*
X803Y92D01*
X818Y92D02*
X823Y92D01*
X842Y92D02*
X848Y92D01*
X875Y92D02*
X880Y92D01*
X907Y92D02*
X937Y92D01*
X1369Y92D02*
X1376Y92D01*
X0Y91D02*
X7Y91D01*
X773Y91D02*
X778Y91D01*
X797Y91D02*
X803Y91D01*
X818Y91D02*
X823Y91D01*
X842Y91D02*
X848Y91D01*
X875Y91D02*
X880Y91D01*
X907Y91D02*
X937Y91D01*
X1369Y91D02*
X1376Y91D01*
X0Y90D02*
X7Y90D01*
X773Y90D02*
X778Y90D01*
X797Y90D02*
X803Y90D01*
X818Y90D02*
X823Y90D01*
X842Y90D02*
X848Y90D01*
X875Y90D02*
X880Y90D01*
X907Y90D02*
X937Y90D01*
X1369Y90D02*
X1376Y90D01*
X0Y89D02*
X7Y89D01*
X773Y89D02*
X778Y89D01*
X797Y89D02*
X803Y89D01*
X818Y89D02*
X823Y89D01*
X842Y89D02*
X848Y89D01*
X875Y89D02*
X880Y89D01*
X907Y89D02*
X937Y89D01*
X1369Y89D02*
X1376Y89D01*
X0Y88D02*
X7Y88D01*
X773Y88D02*
X779Y88D01*
X797Y88D02*
X802Y88D01*
X818Y88D02*
X823Y88D01*
X842Y88D02*
X848Y88D01*
X875Y88D02*
X880Y88D01*
X907Y88D02*
X937Y88D01*
X1369Y88D02*
X1376Y88D01*
X0Y87D02*
X7Y87D01*
X773Y87D02*
X779Y87D01*
X796Y87D02*
X802Y87D01*
X818Y87D02*
X823Y87D01*
X842Y87D02*
X848Y87D01*
X875Y87D02*
X880Y87D01*
X907Y87D02*
X937Y87D01*
X1369Y87D02*
X1376Y87D01*
X0Y86D02*
X7Y86D01*
X774Y86D02*
X780Y86D01*
X796Y86D02*
X802Y86D01*
X818Y86D02*
X823Y86D01*
X842Y86D02*
X848Y86D01*
X875Y86D02*
X880Y86D01*
X908Y86D02*
X936Y86D01*
X1369Y86D02*
X1376Y86D01*
X0Y85D02*
X7Y85D01*
X774Y85D02*
X780Y85D01*
X795Y85D02*
X801Y85D01*
X818Y85D02*
X823Y85D01*
X842Y85D02*
X848Y85D01*
X875Y85D02*
X880Y85D01*
X1369Y85D02*
X1376Y85D01*
X0Y84D02*
X7Y84D01*
X775Y84D02*
X781Y84D01*
X795Y84D02*
X801Y84D01*
X818Y84D02*
X823Y84D01*
X842Y84D02*
X848Y84D01*
X875Y84D02*
X880Y84D01*
X1369Y84D02*
X1376Y84D01*
X0Y83D02*
X7Y83D01*
X775Y83D02*
X781Y83D01*
X794Y83D02*
X800Y83D01*
X818Y83D02*
X823Y83D01*
X842Y83D02*
X848Y83D01*
X875Y83D02*
X880Y83D01*
X1369Y83D02*
X1376Y83D01*
X0Y82D02*
X7Y82D01*
X776Y82D02*
X782Y82D01*
X794Y82D02*
X800Y82D01*
X818Y82D02*
X823Y82D01*
X842Y82D02*
X848Y82D01*
X875Y82D02*
X880Y82D01*
X1369Y82D02*
X1376Y82D01*
X0Y81D02*
X7Y81D01*
X776Y81D02*
X782Y81D01*
X793Y81D02*
X799Y81D01*
X818Y81D02*
X823Y81D01*
X842Y81D02*
X848Y81D01*
X875Y81D02*
X880Y81D01*
X1369Y81D02*
X1376Y81D01*
X0Y80D02*
X7Y80D01*
X777Y80D02*
X783Y80D01*
X793Y80D02*
X799Y80D01*
X818Y80D02*
X823Y80D01*
X842Y80D02*
X848Y80D01*
X875Y80D02*
X880Y80D01*
X1369Y80D02*
X1376Y80D01*
X0Y79D02*
X7Y79D01*
X777Y79D02*
X783Y79D01*
X792Y79D02*
X798Y79D01*
X818Y79D02*
X823Y79D01*
X842Y79D02*
X848Y79D01*
X875Y79D02*
X880Y79D01*
X1369Y79D02*
X1376Y79D01*
X0Y78D02*
X7Y78D01*
X778Y78D02*
X784Y78D01*
X792Y78D02*
X798Y78D01*
X818Y78D02*
X823Y78D01*
X842Y78D02*
X848Y78D01*
X875Y78D02*
X880Y78D01*
X1369Y78D02*
X1376Y78D01*
X0Y77D02*
X7Y77D01*
X778Y77D02*
X784Y77D01*
X791Y77D02*
X797Y77D01*
X818Y77D02*
X823Y77D01*
X842Y77D02*
X848Y77D01*
X875Y77D02*
X880Y77D01*
X1369Y77D02*
X1376Y77D01*
X0Y76D02*
X7Y76D01*
X779Y76D02*
X785Y76D01*
X791Y76D02*
X797Y76D01*
X818Y76D02*
X823Y76D01*
X842Y76D02*
X847Y76D01*
X875Y76D02*
X880Y76D01*
X1369Y76D02*
X1376Y76D01*
X0Y75D02*
X7Y75D01*
X779Y75D02*
X785Y75D01*
X791Y75D02*
X796Y75D01*
X818Y75D02*
X823Y75D01*
X842Y75D02*
X847Y75D01*
X875Y75D02*
X880Y75D01*
X1369Y75D02*
X1376Y75D01*
X0Y74D02*
X7Y74D01*
X780Y74D02*
X786Y74D01*
X790Y74D02*
X796Y74D01*
X818Y74D02*
X824Y74D01*
X841Y74D02*
X847Y74D01*
X875Y74D02*
X880Y74D01*
X1369Y74D02*
X1376Y74D01*
X0Y73D02*
X7Y73D01*
X780Y73D02*
X795Y73D01*
X818Y73D02*
X847Y73D01*
X875Y73D02*
X880Y73D01*
X1369Y73D02*
X1376Y73D01*
X0Y72D02*
X7Y72D01*
X781Y72D02*
X795Y72D01*
X819Y72D02*
X847Y72D01*
X875Y72D02*
X880Y72D01*
X1369Y72D02*
X1376Y72D01*
X0Y71D02*
X7Y71D01*
X781Y71D02*
X794Y71D01*
X819Y71D02*
X846Y71D01*
X875Y71D02*
X880Y71D01*
X1369Y71D02*
X1376Y71D01*
X0Y70D02*
X7Y70D01*
X782Y70D02*
X794Y70D01*
X820Y70D02*
X845Y70D01*
X875Y70D02*
X880Y70D01*
X1369Y70D02*
X1376Y70D01*
X0Y69D02*
X7Y69D01*
X783Y69D02*
X793Y69D01*
X821Y69D02*
X844Y69D01*
X875Y69D02*
X880Y69D01*
X1369Y69D02*
X1376Y69D01*
X0Y68D02*
X7Y68D01*
X784Y68D02*
X792Y68D01*
X822Y68D02*
X843Y68D01*
X875Y68D02*
X879Y68D01*
X1369Y68D02*
X1376Y68D01*
X0Y67D02*
X7Y67D01*
X787Y67D02*
X789Y67D01*
X825Y67D02*
X840Y67D01*
X877Y67D02*
X878Y67D01*
X1369Y67D02*
X1376Y67D01*
X0Y66D02*
X7Y66D01*
X1369Y66D02*
X1376Y66D01*
X0Y65D02*
X7Y65D01*
X1369Y65D02*
X1376Y65D01*
X0Y64D02*
X7Y64D01*
X1369Y64D02*
X1376Y64D01*
X0Y63D02*
X7Y63D01*
X1369Y63D02*
X1376Y63D01*
X0Y62D02*
X7Y62D01*
X1369Y62D02*
X1376Y62D01*
X0Y61D02*
X7Y61D01*
X1369Y61D02*
X1376Y61D01*
X0Y60D02*
X7Y60D01*
X1369Y60D02*
X1376Y60D01*
X0Y59D02*
X7Y59D01*
X1369Y59D02*
X1376Y59D01*
X0Y58D02*
X7Y58D01*
X1369Y58D02*
X1376Y58D01*
X0Y57D02*
X7Y57D01*
X1369Y57D02*
X1376Y57D01*
X0Y56D02*
X7Y56D01*
X1369Y56D02*
X1376Y56D01*
X0Y55D02*
X7Y55D01*
X1369Y55D02*
X1376Y55D01*
X0Y54D02*
X7Y54D01*
X1369Y54D02*
X1376Y54D01*
X0Y53D02*
X7Y53D01*
X1369Y53D02*
X1376Y53D01*
X0Y52D02*
X7Y52D01*
X1369Y52D02*
X1376Y52D01*
X0Y51D02*
X7Y51D01*
X1369Y51D02*
X1376Y51D01*
X0Y50D02*
X7Y50D01*
X1369Y50D02*
X1376Y50D01*
X0Y49D02*
X7Y49D01*
X1369Y49D02*
X1376Y49D01*
X0Y48D02*
X7Y48D01*
X1369Y48D02*
X1376Y48D01*
X0Y47D02*
X7Y47D01*
X1369Y47D02*
X1376Y47D01*
X0Y46D02*
X7Y46D01*
X1369Y46D02*
X1376Y46D01*
X0Y45D02*
X7Y45D01*
X1369Y45D02*
X1376Y45D01*
X0Y44D02*
X7Y44D01*
X1369Y44D02*
X1376Y44D01*
X0Y43D02*
X7Y43D01*
X1369Y43D02*
X1376Y43D01*
X0Y42D02*
X7Y42D01*
X1369Y42D02*
X1376Y42D01*
X0Y41D02*
X7Y41D01*
X1369Y41D02*
X1376Y41D01*
X0Y40D02*
X7Y40D01*
X1369Y40D02*
X1376Y40D01*
X0Y39D02*
X7Y39D01*
X1369Y39D02*
X1376Y39D01*
X0Y38D02*
X7Y38D01*
X1369Y38D02*
X1376Y38D01*
X0Y37D02*
X7Y37D01*
X1369Y37D02*
X1376Y37D01*
X0Y36D02*
X7Y36D01*
X1369Y36D02*
X1376Y36D01*
X0Y35D02*
X7Y35D01*
X1369Y35D02*
X1376Y35D01*
X0Y34D02*
X7Y34D01*
X1369Y34D02*
X1376Y34D01*
X0Y33D02*
X7Y33D01*
X1369Y33D02*
X1376Y33D01*
X0Y32D02*
X7Y32D01*
X1369Y32D02*
X1376Y32D01*
X0Y31D02*
X7Y31D01*
X1369Y31D02*
X1376Y31D01*
X0Y30D02*
X7Y30D01*
X1369Y30D02*
X1376Y30D01*
X0Y29D02*
X7Y29D01*
X1369Y29D02*
X1376Y29D01*
X0Y28D02*
X7Y28D01*
X1369Y28D02*
X1376Y28D01*
X0Y27D02*
X7Y27D01*
X1369Y27D02*
X1376Y27D01*
X0Y26D02*
X7Y26D01*
X1369Y26D02*
X1376Y26D01*
X0Y25D02*
X7Y25D01*
X1369Y25D02*
X1376Y25D01*
X0Y24D02*
X7Y24D01*
X1369Y24D02*
X1376Y24D01*
X0Y23D02*
X7Y23D01*
X1369Y23D02*
X1376Y23D01*
X0Y22D02*
X7Y22D01*
X1369Y22D02*
X1376Y22D01*
X0Y21D02*
X7Y21D01*
X1369Y21D02*
X1376Y21D01*
X0Y20D02*
X7Y20D01*
X1369Y20D02*
X1376Y20D01*
X0Y19D02*
X7Y19D01*
X1369Y19D02*
X1376Y19D01*
X0Y18D02*
X7Y18D01*
X1369Y18D02*
X1376Y18D01*
X0Y17D02*
X7Y17D01*
X1369Y17D02*
X1376Y17D01*
X0Y16D02*
X7Y16D01*
X1369Y16D02*
X1376Y16D01*
X0Y15D02*
X7Y15D01*
X1369Y15D02*
X1376Y15D01*
X0Y14D02*
X7Y14D01*
X1369Y14D02*
X1376Y14D01*
X0Y13D02*
X7Y13D01*
X1369Y13D02*
X1376Y13D01*
X0Y12D02*
X7Y12D01*
X1369Y12D02*
X1376Y12D01*
X0Y11D02*
X7Y11D01*
X1369Y11D02*
X1376Y11D01*
X0Y10D02*
X7Y10D01*
X1369Y10D02*
X1376Y10D01*
X0Y9D02*
X7Y9D01*
X1369Y9D02*
X1376Y9D01*
X0Y8D02*
X1376Y8D01*
X0Y7D02*
X1376Y7D01*
X0Y6D02*
X1376Y6D01*
X0Y5D02*
X1376Y5D01*
X0Y4D02*
X1376Y4D01*
X0Y3D02*
X1376Y3D01*
X0Y2D02*
X1376Y2D01*
X0Y1D02*
X1376Y1D01*
D02*
G04 End of Silk1*
M02*