; NON-PLATED HOLES START AT T1
; THROUGH (PLATED) HOLES START AT T100
M48
INCH
T1C0.086614
T100C0.038000
%
T1
X000722Y000709
X000722Y020709
X012722Y000709
X020722Y020709
T100
X020237Y001119
X002222Y006709
X011222Y012709
X014722Y017209
X011222Y015709
X014722Y020209
X002222Y013709
X011222Y007709
X014721Y015115
X002222Y015709
X014722Y019209
X014721Y014115
X014719Y010208
X011222Y008709
X002225Y017706
X011222Y017709
X011222Y009709
X002225Y018706
X014721Y016115
X002222Y011709
X011222Y018709
X014719Y001119
X002222Y016709
X011222Y010709
X011222Y014709
X014722Y018209
X002222Y012709
X002222Y007709
X011222Y013709
X011222Y011709
X015722Y010208
X019234Y010208
X002222Y010709
X002222Y008709
X014721Y013115
X011222Y006709
X002222Y014709
X002222Y009709
X011222Y016709
X020237Y010208
T00
M30
